G75*
%MOIN*%
%OFA0B0*%
%FSLAX25Y25*%
%IPPOS*%
%LPD*%
%AMOC8*
5,1,8,0,0,1.08239X$1,22.5*
%
%ADD10C,0.06000*%
%ADD11C,0.06600*%
%ADD12C,0.03569*%
%ADD13C,0.04356*%
%ADD14C,0.03765*%
%ADD15C,0.03200*%
%ADD16C,0.01200*%
%ADD17C,0.01600*%
D10*
X0039271Y0039729D03*
X0032200Y0046800D03*
X0039271Y0053871D03*
X0046342Y0046800D03*
X0053413Y0039729D03*
X0046342Y0032658D03*
D11*
X0047318Y0151013D03*
X0057318Y0151013D03*
D12*
X0064200Y0146300D03*
X0065200Y0153800D03*
X0088200Y0178800D03*
X0073200Y0179800D03*
X0105700Y0192800D03*
X0123700Y0193300D03*
X0142700Y0171800D03*
X0114700Y0146800D03*
X0103200Y0144800D03*
X0119450Y0135300D03*
X0116700Y0123800D03*
X0119700Y0119800D03*
X0110700Y0113800D03*
X0113200Y0098300D03*
X0093700Y0119800D03*
X0091700Y0123800D03*
X0070200Y0121800D03*
X0066200Y0110300D03*
X0060200Y0107300D03*
X0054700Y0105300D03*
X0054700Y0109800D03*
X0054700Y0114300D03*
X0054200Y0122300D03*
X0062700Y0099300D03*
X0059200Y0094300D03*
X0060700Y0083300D03*
X0077700Y0081300D03*
X0084700Y0095300D03*
X0100700Y0070800D03*
X0098700Y0065300D03*
X0091700Y0044800D03*
X0088200Y0034800D03*
X0077200Y0043800D03*
X0073700Y0034800D03*
X0062700Y0048800D03*
X0047700Y0063800D03*
X0051200Y0066800D03*
X0038700Y0063300D03*
X0021700Y0086300D03*
X0010200Y0095800D03*
X0023200Y0105800D03*
X0008200Y0080800D03*
X0102200Y0034800D03*
X0105700Y0043300D03*
X0115700Y0034800D03*
X0119450Y0043300D03*
X0130200Y0034800D03*
X0133700Y0042800D03*
X0144450Y0034800D03*
X0150700Y0045300D03*
X0138200Y0124300D03*
X0133200Y0134300D03*
X0157200Y0133300D03*
X0163200Y0133300D03*
X0172200Y0126300D03*
X0177200Y0126300D03*
D13*
X0077700Y0193300D03*
D14*
X0111200Y0173800D03*
X0111200Y0168800D03*
X0091200Y0097800D03*
X0031200Y0149800D03*
D15*
X0074700Y0193300D01*
X0077700Y0193300D01*
X0091700Y0193300D01*
X0111200Y0173800D01*
X0111200Y0168800D01*
X0111534Y0164517D02*
X0103200Y0144800D01*
X0111534Y0164517D02*
X0112974Y0164517D01*
X0115483Y0167026D01*
X0115483Y0173859D01*
X0123700Y0193300D01*
D16*
X0060200Y0107300D02*
X0060200Y0101303D01*
X0056016Y0097119D01*
X0056016Y0095616D01*
X0049700Y0089300D01*
X0049700Y0074300D01*
X0038700Y0063300D01*
D17*
X0025135Y0041423D02*
X0032974Y0032574D01*
X0041823Y0024735D01*
X0051553Y0018019D01*
X0062021Y0012525D01*
X0073074Y0008333D01*
X0084553Y0005504D01*
X0096289Y0004079D01*
X0102200Y0003900D01*
X0102200Y0003900D01*
X0108111Y0004079D01*
X0119847Y0005504D01*
X0131326Y0008333D01*
X0142379Y0012525D01*
X0152847Y0018019D01*
X0152847Y0018019D01*
X0162577Y0024735D01*
X0162577Y0024735D01*
X0171426Y0032574D01*
X0179265Y0041423D01*
X0185278Y0050135D01*
X0184700Y0050300D01*
X0198700Y0103300D01*
X0200066Y0102910D01*
X0199921Y0107711D01*
X0198496Y0119447D01*
X0195667Y0130926D01*
X0194523Y0133943D01*
X0193321Y0131042D01*
X0190958Y0128679D01*
X0187871Y0127400D01*
X0184529Y0127400D01*
X0181442Y0128679D01*
X0179079Y0131042D01*
X0177800Y0134129D01*
X0177800Y0137471D01*
X0179079Y0140558D01*
X0181442Y0142921D01*
X0184529Y0144200D01*
X0187871Y0144200D01*
X0190958Y0142921D01*
X0191006Y0142874D01*
X0185981Y0152447D01*
X0179265Y0162177D01*
X0171426Y0171026D01*
X0162577Y0178865D01*
X0152847Y0185581D01*
X0142379Y0191075D01*
X0131326Y0195267D01*
X0119847Y0198096D01*
X0108111Y0199521D01*
X0102200Y0199700D01*
X0102200Y0199700D01*
X0096289Y0199521D01*
X0084553Y0198096D01*
X0079186Y0196774D01*
X0079840Y0196503D01*
X0079843Y0196500D01*
X0092337Y0196500D01*
X0093513Y0196013D01*
X0112490Y0177035D01*
X0113173Y0176752D01*
X0113214Y0176711D01*
X0120316Y0193513D01*
X0120316Y0193973D01*
X0120831Y0195217D01*
X0121783Y0196169D01*
X0123027Y0196684D01*
X0124373Y0196684D01*
X0125617Y0196169D01*
X0126569Y0195217D01*
X0127084Y0193973D01*
X0127084Y0192627D01*
X0126569Y0191383D01*
X0126214Y0191028D01*
X0118683Y0173210D01*
X0118683Y0166390D01*
X0118195Y0165213D01*
X0115687Y0162705D01*
X0114787Y0161804D01*
X0113665Y0161340D01*
X0106584Y0144587D01*
X0106584Y0144127D01*
X0106069Y0142883D01*
X0105117Y0141931D01*
X0103873Y0141416D01*
X0102527Y0141416D01*
X0101283Y0141931D01*
X0100331Y0142883D01*
X0099816Y0144127D01*
X0099816Y0145473D01*
X0100331Y0146717D01*
X0100686Y0147072D01*
X0108582Y0165753D01*
X0108799Y0166276D01*
X0108248Y0166827D01*
X0107717Y0168107D01*
X0107717Y0169493D01*
X0108000Y0170175D01*
X0108000Y0172425D01*
X0107965Y0172510D01*
X0090375Y0190100D01*
X0079843Y0190100D01*
X0079840Y0190097D01*
X0078451Y0189522D01*
X0076949Y0189522D01*
X0075887Y0189962D01*
X0055553Y0169628D01*
X0056135Y0169387D01*
X0056973Y0168549D01*
X0057426Y0167454D01*
X0057426Y0166270D01*
X0056973Y0165175D01*
X0056135Y0164337D01*
X0055040Y0163884D01*
X0053856Y0163884D01*
X0052761Y0164337D01*
X0051923Y0165175D01*
X0051682Y0165757D01*
X0034435Y0148510D01*
X0034152Y0147827D01*
X0033173Y0146848D01*
X0031893Y0146317D01*
X0030507Y0146317D01*
X0029227Y0146848D01*
X0028248Y0147827D01*
X0027717Y0149107D01*
X0027717Y0150493D01*
X0028248Y0151773D01*
X0029227Y0152752D01*
X0029910Y0153035D01*
X0071572Y0194697D01*
X0062021Y0191075D01*
X0051553Y0185581D01*
X0041823Y0178865D01*
X0032974Y0171026D01*
X0025135Y0162177D01*
X0018419Y0152447D01*
X0012925Y0141979D01*
X0008733Y0130926D01*
X0005904Y0119447D01*
X0004479Y0107711D01*
X0004300Y0101800D01*
X0004300Y0101800D01*
X0004479Y0095889D01*
X0005904Y0084153D01*
X0006074Y0083460D01*
X0006283Y0083669D01*
X0007527Y0084184D01*
X0008873Y0084184D01*
X0010117Y0083669D01*
X0011069Y0082717D01*
X0011584Y0081473D01*
X0011584Y0080127D01*
X0047500Y0080127D01*
X0047500Y0078529D02*
X0010715Y0078529D01*
X0011069Y0078883D02*
X0011584Y0080127D01*
X0011069Y0078883D02*
X0010117Y0077931D01*
X0008873Y0077416D01*
X0007564Y0077416D01*
X0008733Y0072674D01*
X0009877Y0069657D01*
X0011079Y0072558D01*
X0013442Y0074921D01*
X0016529Y0076200D01*
X0019871Y0076200D01*
X0022958Y0074921D01*
X0025321Y0072558D01*
X0026600Y0069471D01*
X0026600Y0066129D01*
X0025321Y0063042D01*
X0022958Y0060679D01*
X0019871Y0059400D01*
X0016529Y0059400D01*
X0013442Y0060679D01*
X0013394Y0060726D01*
X0018419Y0051153D01*
X0025135Y0041423D01*
X0024900Y0041763D02*
X0035135Y0041763D01*
X0035371Y0042335D02*
X0034671Y0040644D01*
X0034671Y0038814D01*
X0035371Y0037123D01*
X0036665Y0035829D01*
X0038356Y0035129D01*
X0040186Y0035129D01*
X0041877Y0035829D01*
X0043171Y0037123D01*
X0043871Y0038814D01*
X0043871Y0040644D01*
X0043171Y0042335D01*
X0041877Y0043629D01*
X0040186Y0044329D01*
X0038356Y0044329D01*
X0036665Y0043629D01*
X0035371Y0042335D01*
X0034806Y0042900D02*
X0036100Y0044194D01*
X0036800Y0045885D01*
X0036800Y0047715D01*
X0036100Y0049406D01*
X0034806Y0050700D01*
X0033115Y0051400D01*
X0031285Y0051400D01*
X0029594Y0050700D01*
X0028300Y0049406D01*
X0027600Y0047715D01*
X0027600Y0045885D01*
X0028300Y0044194D01*
X0029594Y0042900D01*
X0031285Y0042200D01*
X0033115Y0042200D01*
X0034806Y0042900D01*
X0035267Y0043361D02*
X0036398Y0043361D01*
X0036417Y0044960D02*
X0042125Y0044960D01*
X0042442Y0044194D02*
X0041742Y0045885D01*
X0041742Y0047715D01*
X0042442Y0049406D01*
X0043736Y0050700D01*
X0045427Y0051400D01*
X0047257Y0051400D01*
X0048948Y0050700D01*
X0050242Y0049406D01*
X0050942Y0047715D01*
X0050942Y0045885D01*
X0050242Y0044194D01*
X0048948Y0042900D01*
X0047257Y0042200D01*
X0045427Y0042200D01*
X0043736Y0042900D01*
X0042442Y0044194D01*
X0042144Y0043361D02*
X0043275Y0043361D01*
X0043408Y0041763D02*
X0049277Y0041763D01*
X0049514Y0042335D02*
X0048813Y0040644D01*
X0048813Y0038814D01*
X0049514Y0037123D01*
X0050808Y0035829D01*
X0052498Y0035129D01*
X0054328Y0035129D01*
X0056019Y0035829D01*
X0057313Y0037123D01*
X0058013Y0038814D01*
X0058013Y0040644D01*
X0057313Y0042335D01*
X0056019Y0043629D01*
X0054328Y0044329D01*
X0052498Y0044329D01*
X0050808Y0043629D01*
X0049514Y0042335D01*
X0049409Y0043361D02*
X0050540Y0043361D01*
X0050559Y0044960D02*
X0074017Y0044960D01*
X0073816Y0044473D02*
X0074331Y0045717D01*
X0074800Y0046186D01*
X0074800Y0063977D01*
X0071915Y0067686D01*
X0071699Y0067892D01*
X0071625Y0068059D01*
X0071512Y0068203D01*
X0071433Y0068492D01*
X0071312Y0068765D01*
X0071308Y0068948D01*
X0071259Y0069124D01*
X0071296Y0069421D01*
X0070362Y0108213D01*
X0068777Y0108091D01*
X0068117Y0107431D01*
X0066873Y0106916D01*
X0065527Y0106916D01*
X0064283Y0107431D01*
X0063474Y0108240D01*
X0063584Y0107973D01*
X0063584Y0106627D01*
X0063069Y0105383D01*
X0062400Y0104714D01*
X0062400Y0102684D01*
X0063373Y0102684D01*
X0064617Y0102169D01*
X0065569Y0101217D01*
X0066084Y0099973D01*
X0066084Y0098627D01*
X0065569Y0097383D01*
X0064617Y0096431D01*
X0063373Y0095916D01*
X0062194Y0095916D01*
X0062584Y0094973D01*
X0062584Y0093627D01*
X0062069Y0092383D01*
X0061117Y0091431D01*
X0059873Y0090916D01*
X0058527Y0090916D01*
X0057283Y0091431D01*
X0056331Y0092383D01*
X0056203Y0092692D01*
X0051900Y0088389D01*
X0051900Y0073389D01*
X0050611Y0072100D01*
X0042084Y0063573D01*
X0042084Y0062627D01*
X0041569Y0061383D01*
X0040617Y0060431D01*
X0039373Y0059916D01*
X0038027Y0059916D01*
X0036783Y0060431D01*
X0035831Y0061383D01*
X0035316Y0062627D01*
X0035316Y0063973D01*
X0035831Y0065217D01*
X0036783Y0066169D01*
X0038027Y0066684D01*
X0038973Y0066684D01*
X0047500Y0075211D01*
X0047500Y0090211D01*
X0053816Y0096527D01*
X0053816Y0098030D01*
X0058000Y0102214D01*
X0058000Y0104714D01*
X0057331Y0105383D01*
X0056816Y0106627D01*
X0056816Y0107973D01*
X0057331Y0109217D01*
X0058283Y0110169D01*
X0059527Y0110684D01*
X0060873Y0110684D01*
X0062117Y0110169D01*
X0062926Y0109360D01*
X0062816Y0109627D01*
X0062816Y0110973D01*
X0063331Y0112217D01*
X0064283Y0113169D01*
X0065527Y0113684D01*
X0066873Y0113684D01*
X0068117Y0113169D01*
X0068409Y0112877D01*
X0072105Y0113161D01*
X0072165Y0113188D01*
X0072579Y0113198D01*
X0072992Y0113230D01*
X0073054Y0113209D01*
X0073119Y0113211D01*
X0073506Y0113062D01*
X0073899Y0112933D01*
X0073949Y0112890D01*
X0074010Y0112867D01*
X0074310Y0112581D01*
X0074624Y0112312D01*
X0074654Y0112253D01*
X0074701Y0112208D01*
X0074869Y0111829D01*
X0075056Y0111460D01*
X0075061Y0111395D01*
X0075088Y0111335D01*
X0075098Y0110921D01*
X0075130Y0110508D01*
X0075109Y0110446D01*
X0075743Y0084129D01*
X0075783Y0084169D01*
X0077027Y0084684D01*
X0078373Y0084684D01*
X0079617Y0084169D01*
X0080569Y0083217D01*
X0081084Y0081973D01*
X0081084Y0081560D01*
X0092972Y0071371D01*
X0093059Y0071335D01*
X0093332Y0071062D01*
X0093624Y0070812D01*
X0093667Y0070727D01*
X0093735Y0070659D01*
X0093882Y0070304D01*
X0094056Y0069960D01*
X0094064Y0069865D01*
X0094100Y0069777D01*
X0094100Y0069392D01*
X0094130Y0069008D01*
X0094100Y0068918D01*
X0094100Y0047186D01*
X0094569Y0046717D01*
X0095084Y0045473D01*
X0095084Y0044127D01*
X0094569Y0042883D01*
X0093617Y0041931D01*
X0092373Y0041416D01*
X0091027Y0041416D01*
X0089783Y0041931D01*
X0088831Y0042883D01*
X0088316Y0044127D01*
X0088316Y0045473D01*
X0088831Y0046717D01*
X0089300Y0047186D01*
X0089300Y0068196D01*
X0077960Y0077916D01*
X0077027Y0077916D01*
X0075882Y0078390D01*
X0076080Y0070149D01*
X0079003Y0066391D01*
X0079235Y0066159D01*
X0079293Y0066018D01*
X0079388Y0065897D01*
X0079474Y0065580D01*
X0079600Y0065277D01*
X0079600Y0065124D01*
X0079641Y0064976D01*
X0079600Y0064651D01*
X0079600Y0046186D01*
X0080069Y0045717D01*
X0080584Y0044473D01*
X0080584Y0043127D01*
X0080069Y0041883D01*
X0079117Y0040931D01*
X0077873Y0040416D01*
X0076527Y0040416D01*
X0075283Y0040931D01*
X0074331Y0041883D01*
X0073816Y0043127D01*
X0073816Y0044473D01*
X0073816Y0043361D02*
X0056286Y0043361D01*
X0057550Y0041763D02*
X0074451Y0041763D01*
X0077200Y0043800D02*
X0077200Y0064800D01*
X0073700Y0069300D01*
X0072700Y0110800D01*
X0066200Y0110300D01*
X0062816Y0110499D02*
X0061321Y0110499D01*
X0059079Y0110499D02*
X0004817Y0110499D01*
X0005011Y0112097D02*
X0063281Y0112097D01*
X0057200Y0108900D02*
X0024559Y0108900D01*
X0025117Y0108669D02*
X0023873Y0109184D01*
X0022527Y0109184D01*
X0021283Y0108669D01*
X0020331Y0107717D01*
X0019816Y0106473D01*
X0019816Y0105127D01*
X0020331Y0103883D01*
X0021283Y0102931D01*
X0022527Y0102416D01*
X0023873Y0102416D01*
X0025117Y0102931D01*
X0026069Y0103883D01*
X0026584Y0105127D01*
X0026584Y0106473D01*
X0026069Y0107717D01*
X0025117Y0108669D01*
X0026241Y0107302D02*
X0056816Y0107302D01*
X0057198Y0105703D02*
X0026584Y0105703D01*
X0026161Y0104105D02*
X0058000Y0104105D01*
X0058000Y0102506D02*
X0024092Y0102506D01*
X0022308Y0102506D02*
X0004321Y0102506D01*
X0004327Y0100908D02*
X0056693Y0100908D01*
X0055095Y0099309D02*
X0004375Y0099309D01*
X0004424Y0097711D02*
X0007328Y0097711D01*
X0007331Y0097717D02*
X0006816Y0096473D01*
X0006816Y0095127D01*
X0007331Y0093883D01*
X0008283Y0092931D01*
X0009527Y0092416D01*
X0010873Y0092416D01*
X0012117Y0092931D01*
X0013069Y0093883D01*
X0013584Y0095127D01*
X0013584Y0096473D01*
X0013069Y0097717D01*
X0012117Y0098669D01*
X0010873Y0099184D01*
X0009527Y0099184D01*
X0008283Y0098669D01*
X0007331Y0097717D01*
X0006816Y0096112D02*
X0004472Y0096112D01*
X0004646Y0094514D02*
X0007070Y0094514D01*
X0008321Y0092915D02*
X0004840Y0092915D01*
X0005034Y0091317D02*
X0048605Y0091317D01*
X0047500Y0089718D02*
X0005228Y0089718D01*
X0005422Y0088120D02*
X0018791Y0088120D01*
X0018831Y0088217D02*
X0018316Y0086973D01*
X0018316Y0085627D01*
X0018831Y0084383D01*
X0019783Y0083431D01*
X0021027Y0082916D01*
X0022373Y0082916D01*
X0023617Y0083431D01*
X0024569Y0084383D01*
X0025084Y0085627D01*
X0025084Y0086973D01*
X0024569Y0088217D01*
X0023617Y0089169D01*
X0022373Y0089684D01*
X0021027Y0089684D01*
X0019783Y0089169D01*
X0018831Y0088217D01*
X0018316Y0086521D02*
X0005616Y0086521D01*
X0005810Y0084923D02*
X0018607Y0084923D01*
X0020041Y0083324D02*
X0010462Y0083324D01*
X0011480Y0081726D02*
X0047500Y0081726D01*
X0047500Y0083324D02*
X0023359Y0083324D01*
X0024793Y0084923D02*
X0047500Y0084923D01*
X0047500Y0086521D02*
X0025084Y0086521D01*
X0024609Y0088120D02*
X0047500Y0088120D01*
X0051900Y0088120D02*
X0070846Y0088120D01*
X0070807Y0089718D02*
X0053229Y0089718D01*
X0054828Y0091317D02*
X0057559Y0091317D01*
X0060841Y0091317D02*
X0070769Y0091317D01*
X0070730Y0092915D02*
X0062289Y0092915D01*
X0062584Y0094514D02*
X0070692Y0094514D01*
X0070653Y0096112D02*
X0063847Y0096112D01*
X0065705Y0097711D02*
X0070615Y0097711D01*
X0070576Y0099309D02*
X0066084Y0099309D01*
X0065697Y0100908D02*
X0070538Y0100908D01*
X0070499Y0102506D02*
X0063803Y0102506D01*
X0062400Y0104105D02*
X0070461Y0104105D01*
X0070422Y0105703D02*
X0063202Y0105703D01*
X0063584Y0107302D02*
X0064595Y0107302D01*
X0067805Y0107302D02*
X0070384Y0107302D01*
X0075185Y0107302D02*
X0199934Y0107302D01*
X0199982Y0105703D02*
X0075223Y0105703D01*
X0075262Y0104105D02*
X0200030Y0104105D01*
X0198490Y0102506D02*
X0075301Y0102506D01*
X0075339Y0100908D02*
X0089602Y0100908D01*
X0089227Y0100752D02*
X0088248Y0099773D01*
X0087717Y0098493D01*
X0087717Y0097107D01*
X0088248Y0095827D01*
X0089227Y0094848D01*
X0090507Y0094317D01*
X0091893Y0094317D01*
X0093173Y0094848D01*
X0094152Y0095827D01*
X0094683Y0097107D01*
X0094683Y0098493D01*
X0094152Y0099773D01*
X0093173Y0100752D01*
X0091893Y0101283D01*
X0090507Y0101283D01*
X0089227Y0100752D01*
X0088056Y0099309D02*
X0075378Y0099309D01*
X0075416Y0097711D02*
X0082325Y0097711D01*
X0082783Y0098169D02*
X0081831Y0097217D01*
X0081316Y0095973D01*
X0081316Y0094627D01*
X0081831Y0093383D01*
X0082783Y0092431D01*
X0084027Y0091916D01*
X0085373Y0091916D01*
X0086617Y0092431D01*
X0087569Y0093383D01*
X0088084Y0094627D01*
X0088084Y0095973D01*
X0087569Y0097217D01*
X0086617Y0098169D01*
X0085373Y0098684D01*
X0084027Y0098684D01*
X0082783Y0098169D01*
X0081373Y0096112D02*
X0075455Y0096112D01*
X0075493Y0094514D02*
X0081363Y0094514D01*
X0082299Y0092915D02*
X0075532Y0092915D01*
X0075570Y0091317D02*
X0195535Y0091317D01*
X0195957Y0092915D02*
X0087101Y0092915D01*
X0088037Y0094514D02*
X0090033Y0094514D01*
X0092367Y0094514D02*
X0196379Y0094514D01*
X0196801Y0096112D02*
X0115798Y0096112D01*
X0116069Y0096383D02*
X0116584Y0097627D01*
X0116584Y0098973D01*
X0116069Y0100217D01*
X0115117Y0101169D01*
X0113873Y0101684D01*
X0112527Y0101684D01*
X0111283Y0101169D01*
X0110331Y0100217D01*
X0109816Y0098973D01*
X0109816Y0097627D01*
X0110331Y0096383D01*
X0111283Y0095431D01*
X0112527Y0094916D01*
X0113873Y0094916D01*
X0115117Y0095431D01*
X0116069Y0096383D01*
X0116584Y0097711D02*
X0197224Y0097711D01*
X0197646Y0099309D02*
X0116445Y0099309D01*
X0115378Y0100908D02*
X0198068Y0100908D01*
X0199777Y0108900D02*
X0075146Y0108900D01*
X0075126Y0110499D02*
X0199583Y0110499D01*
X0199389Y0112097D02*
X0074750Y0112097D01*
X0072117Y0118931D02*
X0073069Y0119883D01*
X0073584Y0121127D01*
X0073584Y0122473D01*
X0073069Y0123717D01*
X0072117Y0124669D01*
X0070873Y0125184D01*
X0069527Y0125184D01*
X0068283Y0124669D01*
X0067331Y0123717D01*
X0066816Y0122473D01*
X0066816Y0121127D01*
X0067331Y0119883D01*
X0068283Y0118931D01*
X0069527Y0118416D01*
X0070873Y0118416D01*
X0072117Y0118931D01*
X0071056Y0118491D02*
X0090579Y0118491D01*
X0090831Y0117883D02*
X0090316Y0119127D01*
X0090316Y0120473D01*
X0090400Y0120676D01*
X0089783Y0120931D01*
X0088831Y0121883D01*
X0088316Y0123127D01*
X0088316Y0124473D01*
X0088831Y0125717D01*
X0089783Y0126669D01*
X0091027Y0127184D01*
X0092373Y0127184D01*
X0093617Y0126669D01*
X0094569Y0125717D01*
X0095084Y0124473D01*
X0095084Y0123127D01*
X0095000Y0122924D01*
X0095617Y0122669D01*
X0096569Y0121717D01*
X0097084Y0120473D01*
X0097084Y0119127D01*
X0096569Y0117883D01*
X0095617Y0116931D01*
X0094373Y0116416D01*
X0093027Y0116416D01*
X0091783Y0116931D01*
X0090831Y0117883D01*
X0091875Y0116893D02*
X0005593Y0116893D01*
X0005788Y0118491D02*
X0069344Y0118491D01*
X0067245Y0120090D02*
X0056776Y0120090D01*
X0057069Y0120383D02*
X0056117Y0119431D01*
X0054873Y0118916D01*
X0053527Y0118916D01*
X0052283Y0119431D01*
X0051331Y0120383D01*
X0050816Y0121627D01*
X0050816Y0122973D01*
X0051331Y0124217D01*
X0052283Y0125169D01*
X0053527Y0125684D01*
X0054873Y0125684D01*
X0056117Y0125169D01*
X0057069Y0124217D01*
X0057584Y0122973D01*
X0057584Y0121627D01*
X0057069Y0120383D01*
X0057584Y0121688D02*
X0066816Y0121688D01*
X0067153Y0123287D02*
X0057454Y0123287D01*
X0056401Y0124885D02*
X0068805Y0124885D01*
X0071595Y0124885D02*
X0088486Y0124885D01*
X0088316Y0123287D02*
X0073247Y0123287D01*
X0073584Y0121688D02*
X0089026Y0121688D01*
X0090316Y0120090D02*
X0073155Y0120090D01*
X0089598Y0126484D02*
X0007638Y0126484D01*
X0008032Y0128082D02*
X0169275Y0128082D01*
X0169331Y0128217D02*
X0168816Y0126973D01*
X0168816Y0125627D01*
X0169331Y0124383D01*
X0170283Y0123431D01*
X0171527Y0122916D01*
X0172873Y0122916D01*
X0174117Y0123431D01*
X0174700Y0124014D01*
X0175283Y0123431D01*
X0176527Y0122916D01*
X0177873Y0122916D01*
X0179117Y0123431D01*
X0180069Y0124383D01*
X0180584Y0125627D01*
X0180584Y0126973D01*
X0180069Y0128217D01*
X0179117Y0129169D01*
X0177873Y0129684D01*
X0176527Y0129684D01*
X0175283Y0129169D01*
X0174700Y0128586D01*
X0174117Y0129169D01*
X0172873Y0129684D01*
X0171527Y0129684D01*
X0170283Y0129169D01*
X0169331Y0128217D01*
X0168816Y0126484D02*
X0140802Y0126484D01*
X0141069Y0126217D02*
X0140117Y0127169D01*
X0138873Y0127684D01*
X0137527Y0127684D01*
X0136283Y0127169D01*
X0135331Y0126217D01*
X0134816Y0124973D01*
X0134816Y0123627D01*
X0135331Y0122383D01*
X0136283Y0121431D01*
X0137527Y0120916D01*
X0138873Y0120916D01*
X0140117Y0121431D01*
X0141069Y0122383D01*
X0141584Y0123627D01*
X0141584Y0124973D01*
X0141069Y0126217D01*
X0141584Y0124885D02*
X0169123Y0124885D01*
X0170631Y0123287D02*
X0141443Y0123287D01*
X0140374Y0121688D02*
X0197944Y0121688D01*
X0198338Y0120090D02*
X0123084Y0120090D01*
X0123084Y0120473D02*
X0123084Y0119127D01*
X0122569Y0117883D01*
X0121617Y0116931D01*
X0120373Y0116416D01*
X0119027Y0116416D01*
X0117783Y0116931D01*
X0116831Y0117883D01*
X0116316Y0119127D01*
X0116316Y0120416D01*
X0116027Y0120416D01*
X0114783Y0120931D01*
X0113831Y0121883D01*
X0113316Y0123127D01*
X0113316Y0124473D01*
X0113831Y0125717D01*
X0114783Y0126669D01*
X0116027Y0127184D01*
X0117373Y0127184D01*
X0118617Y0126669D01*
X0119569Y0125717D01*
X0120084Y0124473D01*
X0120084Y0123184D01*
X0120373Y0123184D01*
X0121617Y0122669D01*
X0122569Y0121717D01*
X0123084Y0120473D01*
X0122581Y0121688D02*
X0136026Y0121688D01*
X0134957Y0123287D02*
X0120084Y0123287D01*
X0119914Y0124885D02*
X0134816Y0124885D01*
X0135598Y0126484D02*
X0118802Y0126484D01*
X0114598Y0126484D02*
X0093802Y0126484D01*
X0094914Y0124885D02*
X0113486Y0124885D01*
X0113316Y0123287D02*
X0095084Y0123287D01*
X0096581Y0121688D02*
X0114026Y0121688D01*
X0116316Y0120090D02*
X0097084Y0120090D01*
X0096821Y0118491D02*
X0116579Y0118491D01*
X0117875Y0116893D02*
X0095525Y0116893D01*
X0092798Y0100908D02*
X0111022Y0100908D01*
X0109955Y0099309D02*
X0094344Y0099309D01*
X0094683Y0097711D02*
X0109816Y0097711D01*
X0110602Y0096112D02*
X0094270Y0096112D01*
X0088129Y0096112D02*
X0088027Y0096112D01*
X0087717Y0097711D02*
X0087075Y0097711D01*
X0075609Y0089718D02*
X0195112Y0089718D01*
X0194690Y0088120D02*
X0075647Y0088120D01*
X0075686Y0086521D02*
X0194268Y0086521D01*
X0193846Y0084923D02*
X0075724Y0084923D01*
X0077700Y0081300D02*
X0091700Y0069300D01*
X0091700Y0044800D01*
X0094767Y0043361D02*
X0102316Y0043361D01*
X0102316Y0043973D02*
X0102316Y0042627D01*
X0102831Y0041383D01*
X0103783Y0040431D01*
X0105027Y0039916D01*
X0106373Y0039916D01*
X0107617Y0040431D01*
X0108569Y0041383D01*
X0109084Y0042627D01*
X0109084Y0043973D01*
X0108569Y0045217D01*
X0107617Y0046169D01*
X0106373Y0046684D01*
X0105027Y0046684D01*
X0103783Y0046169D01*
X0102831Y0045217D01*
X0102316Y0043973D01*
X0102724Y0044960D02*
X0095084Y0044960D01*
X0094635Y0046558D02*
X0104723Y0046558D01*
X0106677Y0046558D02*
X0118473Y0046558D01*
X0118777Y0046684D02*
X0117533Y0046169D01*
X0116581Y0045217D01*
X0116066Y0043973D01*
X0116066Y0042627D01*
X0116581Y0041383D01*
X0117533Y0040431D01*
X0118777Y0039916D01*
X0120123Y0039916D01*
X0121367Y0040431D01*
X0122319Y0041383D01*
X0122834Y0042627D01*
X0122834Y0043973D01*
X0122319Y0045217D01*
X0121367Y0046169D01*
X0120123Y0046684D01*
X0118777Y0046684D01*
X0120427Y0046558D02*
X0147558Y0046558D01*
X0147316Y0045973D02*
X0147316Y0044627D01*
X0147831Y0043383D01*
X0148783Y0042431D01*
X0150027Y0041916D01*
X0151373Y0041916D01*
X0152617Y0042431D01*
X0153569Y0043383D01*
X0154084Y0044627D01*
X0154084Y0045973D01*
X0153569Y0047217D01*
X0152617Y0048169D01*
X0151373Y0048684D01*
X0150027Y0048684D01*
X0148783Y0048169D01*
X0147831Y0047217D01*
X0147316Y0045973D01*
X0147316Y0044960D02*
X0136326Y0044960D01*
X0136569Y0044717D02*
X0135617Y0045669D01*
X0134373Y0046184D01*
X0133027Y0046184D01*
X0131783Y0045669D01*
X0130831Y0044717D01*
X0130316Y0043473D01*
X0130316Y0042127D01*
X0130831Y0040883D01*
X0131783Y0039931D01*
X0133027Y0039416D01*
X0134373Y0039416D01*
X0135617Y0039931D01*
X0136569Y0040883D01*
X0137084Y0042127D01*
X0137084Y0043473D01*
X0136569Y0044717D01*
X0137084Y0043361D02*
X0147853Y0043361D01*
X0148771Y0048157D02*
X0094100Y0048157D01*
X0094100Y0049755D02*
X0185017Y0049755D01*
X0184978Y0051354D02*
X0094100Y0051354D01*
X0094100Y0052952D02*
X0185401Y0052952D01*
X0185823Y0054551D02*
X0094100Y0054551D01*
X0094100Y0056149D02*
X0186245Y0056149D01*
X0186667Y0057748D02*
X0094100Y0057748D01*
X0094100Y0059346D02*
X0187090Y0059346D01*
X0187512Y0060945D02*
X0094100Y0060945D01*
X0094100Y0062543D02*
X0096671Y0062543D01*
X0096783Y0062431D02*
X0098027Y0061916D01*
X0099373Y0061916D01*
X0100617Y0062431D01*
X0101569Y0063383D01*
X0102084Y0064627D01*
X0102084Y0065973D01*
X0101569Y0067217D01*
X0101370Y0067416D01*
X0101373Y0067416D01*
X0102617Y0067931D01*
X0103569Y0068883D01*
X0104084Y0070127D01*
X0104084Y0071473D01*
X0103569Y0072717D01*
X0102617Y0073669D01*
X0101373Y0074184D01*
X0100027Y0074184D01*
X0098783Y0073669D01*
X0097831Y0072717D01*
X0097316Y0071473D01*
X0097316Y0070127D01*
X0097831Y0068883D01*
X0098030Y0068684D01*
X0098027Y0068684D01*
X0096783Y0068169D01*
X0095831Y0067217D01*
X0095316Y0065973D01*
X0095316Y0064627D01*
X0095831Y0063383D01*
X0096783Y0062431D01*
X0095517Y0064142D02*
X0094100Y0064142D01*
X0094100Y0065740D02*
X0095316Y0065740D01*
X0095953Y0067339D02*
X0094100Y0067339D01*
X0094106Y0068937D02*
X0097808Y0068937D01*
X0097316Y0070536D02*
X0093786Y0070536D01*
X0092081Y0072134D02*
X0097590Y0072134D01*
X0098937Y0073733D02*
X0090216Y0073733D01*
X0088351Y0075332D02*
X0191312Y0075332D01*
X0191734Y0076930D02*
X0086486Y0076930D01*
X0084621Y0078529D02*
X0192157Y0078529D01*
X0192579Y0080127D02*
X0082756Y0080127D01*
X0081084Y0081726D02*
X0193001Y0081726D01*
X0193423Y0083324D02*
X0080462Y0083324D01*
X0079110Y0076930D02*
X0075917Y0076930D01*
X0075955Y0075332D02*
X0080975Y0075332D01*
X0082840Y0073733D02*
X0075994Y0073733D01*
X0076032Y0072134D02*
X0084705Y0072134D01*
X0086570Y0070536D02*
X0076071Y0070536D01*
X0077022Y0068937D02*
X0088435Y0068937D01*
X0089300Y0067339D02*
X0078266Y0067339D01*
X0079430Y0065740D02*
X0089300Y0065740D01*
X0089300Y0064142D02*
X0079600Y0064142D01*
X0079600Y0062543D02*
X0089300Y0062543D01*
X0089300Y0060945D02*
X0079600Y0060945D01*
X0079600Y0059346D02*
X0089300Y0059346D01*
X0089300Y0057748D02*
X0079600Y0057748D01*
X0079600Y0056149D02*
X0089300Y0056149D01*
X0089300Y0054551D02*
X0079600Y0054551D01*
X0079600Y0052952D02*
X0089300Y0052952D01*
X0089300Y0051354D02*
X0079600Y0051354D01*
X0079600Y0049755D02*
X0089300Y0049755D01*
X0089300Y0048157D02*
X0079600Y0048157D01*
X0079600Y0046558D02*
X0088765Y0046558D01*
X0088316Y0044960D02*
X0080383Y0044960D01*
X0080584Y0043361D02*
X0088633Y0043361D01*
X0090189Y0041763D02*
X0079949Y0041763D01*
X0075617Y0037669D02*
X0074373Y0038184D01*
X0073027Y0038184D01*
X0071783Y0037669D01*
X0070831Y0036717D01*
X0070316Y0035473D01*
X0070316Y0034127D01*
X0070831Y0032883D01*
X0071783Y0031931D01*
X0073027Y0031416D01*
X0074373Y0031416D01*
X0075617Y0031931D01*
X0076569Y0032883D01*
X0077084Y0034127D01*
X0077084Y0035473D01*
X0076569Y0036717D01*
X0075617Y0037669D01*
X0076319Y0036967D02*
X0085581Y0036967D01*
X0085331Y0036717D02*
X0084816Y0035473D01*
X0084816Y0034127D01*
X0085331Y0032883D01*
X0086283Y0031931D01*
X0087527Y0031416D01*
X0088873Y0031416D01*
X0090117Y0031931D01*
X0091069Y0032883D01*
X0091584Y0034127D01*
X0091584Y0035473D01*
X0091069Y0036717D01*
X0090117Y0037669D01*
X0088873Y0038184D01*
X0087527Y0038184D01*
X0086283Y0037669D01*
X0085331Y0036717D01*
X0084816Y0035369D02*
X0077084Y0035369D01*
X0076937Y0033770D02*
X0084963Y0033770D01*
X0086042Y0032172D02*
X0075858Y0032172D01*
X0071542Y0032172D02*
X0050942Y0032172D01*
X0050942Y0031743D02*
X0050242Y0030052D01*
X0048948Y0028758D01*
X0047257Y0028058D01*
X0045427Y0028058D01*
X0043736Y0028758D01*
X0042442Y0030052D01*
X0041742Y0031743D01*
X0041742Y0033573D01*
X0042442Y0035264D01*
X0043736Y0036558D01*
X0045427Y0037258D01*
X0047257Y0037258D01*
X0048948Y0036558D01*
X0050242Y0035264D01*
X0050942Y0033573D01*
X0050942Y0031743D01*
X0050458Y0030573D02*
X0169167Y0030573D01*
X0167363Y0028975D02*
X0049164Y0028975D01*
X0050860Y0033770D02*
X0070463Y0033770D01*
X0070316Y0035369D02*
X0054907Y0035369D01*
X0057157Y0036967D02*
X0071081Y0036967D01*
X0074800Y0046558D02*
X0065244Y0046558D01*
X0065569Y0046883D02*
X0064617Y0045931D01*
X0063373Y0045416D01*
X0062027Y0045416D01*
X0060783Y0045931D01*
X0059831Y0046883D01*
X0059316Y0048127D01*
X0059316Y0049473D01*
X0059831Y0050717D01*
X0060783Y0051669D01*
X0062027Y0052184D01*
X0063373Y0052184D01*
X0064617Y0051669D01*
X0065569Y0050717D01*
X0066084Y0049473D01*
X0066084Y0048127D01*
X0065569Y0046883D01*
X0066084Y0048157D02*
X0074800Y0048157D01*
X0074800Y0049755D02*
X0065967Y0049755D01*
X0064932Y0051354D02*
X0074800Y0051354D01*
X0074800Y0052952D02*
X0043870Y0052952D01*
X0043871Y0052956D02*
X0043171Y0051265D01*
X0041877Y0049971D01*
X0040186Y0049271D01*
X0038356Y0049271D01*
X0036665Y0049971D01*
X0035371Y0051265D01*
X0034671Y0052956D01*
X0034671Y0054786D01*
X0035371Y0056477D01*
X0036665Y0057771D01*
X0038356Y0058471D01*
X0040186Y0058471D01*
X0041877Y0057771D01*
X0043171Y0056477D01*
X0043871Y0054786D01*
X0043871Y0052956D01*
X0043871Y0054551D02*
X0074800Y0054551D01*
X0074800Y0056149D02*
X0043306Y0056149D01*
X0041900Y0057748D02*
X0074800Y0057748D01*
X0074800Y0059346D02*
X0014119Y0059346D01*
X0014958Y0057748D02*
X0036643Y0057748D01*
X0035236Y0056149D02*
X0015797Y0056149D01*
X0016635Y0054551D02*
X0034671Y0054551D01*
X0034673Y0052952D02*
X0017474Y0052952D01*
X0018313Y0051354D02*
X0031174Y0051354D01*
X0033226Y0051354D02*
X0035335Y0051354D01*
X0035750Y0049755D02*
X0037187Y0049755D01*
X0036617Y0048157D02*
X0041925Y0048157D01*
X0041742Y0046558D02*
X0036800Y0046558D01*
X0041355Y0049755D02*
X0042792Y0049755D01*
X0043207Y0051354D02*
X0045316Y0051354D01*
X0047368Y0051354D02*
X0060468Y0051354D01*
X0059433Y0049755D02*
X0049892Y0049755D01*
X0050759Y0048157D02*
X0059316Y0048157D01*
X0060156Y0046558D02*
X0050942Y0046558D01*
X0048813Y0040164D02*
X0043871Y0040164D01*
X0043768Y0038566D02*
X0048916Y0038566D01*
X0049669Y0036967D02*
X0047959Y0036967D01*
X0050137Y0035369D02*
X0051919Y0035369D01*
X0057910Y0038566D02*
X0176734Y0038566D01*
X0178150Y0040164D02*
X0135850Y0040164D01*
X0136933Y0041763D02*
X0179500Y0041763D01*
X0180603Y0043361D02*
X0153547Y0043361D01*
X0154084Y0044960D02*
X0181706Y0044960D01*
X0182810Y0046558D02*
X0153842Y0046558D01*
X0152629Y0048157D02*
X0183913Y0048157D01*
X0175318Y0036967D02*
X0147069Y0036967D01*
X0147319Y0036717D02*
X0146367Y0037669D01*
X0145123Y0038184D01*
X0143777Y0038184D01*
X0142533Y0037669D01*
X0141581Y0036717D01*
X0141066Y0035473D01*
X0141066Y0034127D01*
X0141581Y0032883D01*
X0142533Y0031931D01*
X0143777Y0031416D01*
X0145123Y0031416D01*
X0146367Y0031931D01*
X0147319Y0032883D01*
X0147834Y0034127D01*
X0147834Y0035473D01*
X0147319Y0036717D01*
X0147834Y0035369D02*
X0173901Y0035369D01*
X0172485Y0033770D02*
X0147687Y0033770D01*
X0146608Y0032172D02*
X0170971Y0032172D01*
X0165558Y0027376D02*
X0038842Y0027376D01*
X0040646Y0025778D02*
X0163754Y0025778D01*
X0161772Y0024179D02*
X0042628Y0024179D01*
X0044944Y0022581D02*
X0159456Y0022581D01*
X0157140Y0020982D02*
X0047260Y0020982D01*
X0049576Y0019384D02*
X0154824Y0019384D01*
X0152402Y0017785D02*
X0051998Y0017785D01*
X0055044Y0016187D02*
X0149356Y0016187D01*
X0146310Y0014588D02*
X0058090Y0014588D01*
X0061135Y0012990D02*
X0143265Y0012990D01*
X0139389Y0011391D02*
X0065011Y0011391D01*
X0069225Y0009793D02*
X0135175Y0009793D01*
X0130763Y0008194D02*
X0073637Y0008194D01*
X0080123Y0006596D02*
X0124277Y0006596D01*
X0115675Y0004997D02*
X0088725Y0004997D01*
X0090358Y0032172D02*
X0100042Y0032172D01*
X0100283Y0031931D02*
X0101527Y0031416D01*
X0102873Y0031416D01*
X0104117Y0031931D01*
X0105069Y0032883D01*
X0105584Y0034127D01*
X0105584Y0035473D01*
X0105069Y0036717D01*
X0104117Y0037669D01*
X0102873Y0038184D01*
X0101527Y0038184D01*
X0100283Y0037669D01*
X0099331Y0036717D01*
X0098816Y0035473D01*
X0098816Y0034127D01*
X0099331Y0032883D01*
X0100283Y0031931D01*
X0098963Y0033770D02*
X0091437Y0033770D01*
X0091584Y0035369D02*
X0098816Y0035369D01*
X0099581Y0036967D02*
X0090819Y0036967D01*
X0093211Y0041763D02*
X0102674Y0041763D01*
X0104427Y0040164D02*
X0058013Y0040164D01*
X0044726Y0036967D02*
X0043015Y0036967D01*
X0042548Y0035369D02*
X0040765Y0035369D01*
X0041824Y0033770D02*
X0031915Y0033770D01*
X0030499Y0035369D02*
X0037777Y0035369D01*
X0035527Y0036967D02*
X0029082Y0036967D01*
X0027666Y0038566D02*
X0034774Y0038566D01*
X0034671Y0040164D02*
X0026250Y0040164D01*
X0023797Y0043361D02*
X0029133Y0043361D01*
X0027983Y0044960D02*
X0022694Y0044960D01*
X0021590Y0046558D02*
X0027600Y0046558D01*
X0027783Y0048157D02*
X0020487Y0048157D01*
X0019383Y0049755D02*
X0028650Y0049755D01*
X0023224Y0060945D02*
X0036269Y0060945D01*
X0035350Y0062543D02*
X0024823Y0062543D01*
X0025777Y0064142D02*
X0035386Y0064142D01*
X0036354Y0065740D02*
X0026439Y0065740D01*
X0026600Y0067339D02*
X0039628Y0067339D01*
X0041226Y0068937D02*
X0026600Y0068937D01*
X0026159Y0070536D02*
X0042825Y0070536D01*
X0044423Y0072134D02*
X0025497Y0072134D01*
X0024146Y0073733D02*
X0046022Y0073733D01*
X0047500Y0075332D02*
X0021968Y0075332D01*
X0014432Y0075332D02*
X0008078Y0075332D01*
X0007684Y0076930D02*
X0047500Y0076930D01*
X0051900Y0076930D02*
X0071115Y0076930D01*
X0071154Y0075332D02*
X0051900Y0075332D01*
X0051900Y0073733D02*
X0071192Y0073733D01*
X0071231Y0072134D02*
X0050646Y0072134D01*
X0050527Y0070184D02*
X0049283Y0069669D01*
X0048331Y0068717D01*
X0047816Y0067473D01*
X0047816Y0067184D01*
X0047027Y0067184D01*
X0045783Y0066669D01*
X0044831Y0065717D01*
X0044316Y0064473D01*
X0044316Y0063127D01*
X0044831Y0061883D01*
X0045783Y0060931D01*
X0047027Y0060416D01*
X0048373Y0060416D01*
X0049617Y0060931D01*
X0050569Y0061883D01*
X0051084Y0063127D01*
X0051084Y0063416D01*
X0051873Y0063416D01*
X0053117Y0063931D01*
X0054069Y0064883D01*
X0054584Y0066127D01*
X0054584Y0067473D01*
X0054069Y0068717D01*
X0053117Y0069669D01*
X0051873Y0070184D01*
X0050527Y0070184D01*
X0049047Y0070536D02*
X0071270Y0070536D01*
X0071308Y0068937D02*
X0053849Y0068937D01*
X0054584Y0067339D02*
X0072185Y0067339D01*
X0073428Y0065740D02*
X0054424Y0065740D01*
X0053328Y0064142D02*
X0074671Y0064142D01*
X0074800Y0062543D02*
X0050843Y0062543D01*
X0049631Y0060945D02*
X0074800Y0060945D01*
X0071077Y0078529D02*
X0051900Y0078529D01*
X0051900Y0080127D02*
X0059517Y0080127D01*
X0060027Y0079916D02*
X0061373Y0079916D01*
X0062617Y0080431D01*
X0063569Y0081383D01*
X0064084Y0082627D01*
X0064084Y0083973D01*
X0063569Y0085217D01*
X0062617Y0086169D01*
X0061373Y0086684D01*
X0060027Y0086684D01*
X0058783Y0086169D01*
X0057831Y0085217D01*
X0057316Y0083973D01*
X0057316Y0082627D01*
X0057831Y0081383D01*
X0058783Y0080431D01*
X0060027Y0079916D01*
X0061883Y0080127D02*
X0071038Y0080127D01*
X0071000Y0081726D02*
X0063711Y0081726D01*
X0064084Y0083324D02*
X0070961Y0083324D01*
X0070923Y0084923D02*
X0063691Y0084923D01*
X0061767Y0086521D02*
X0070884Y0086521D01*
X0059633Y0086521D02*
X0051900Y0086521D01*
X0051900Y0084923D02*
X0057709Y0084923D01*
X0057316Y0083324D02*
X0051900Y0083324D01*
X0051900Y0081726D02*
X0057689Y0081726D01*
X0050204Y0092915D02*
X0012079Y0092915D01*
X0013330Y0094514D02*
X0051802Y0094514D01*
X0053401Y0096112D02*
X0013584Y0096112D01*
X0013072Y0097711D02*
X0053816Y0097711D01*
X0051624Y0120090D02*
X0006062Y0120090D01*
X0006456Y0121688D02*
X0050816Y0121688D01*
X0050946Y0123287D02*
X0006850Y0123287D01*
X0007244Y0124885D02*
X0051999Y0124885D01*
X0062283Y0143431D02*
X0061331Y0144383D01*
X0060816Y0145627D01*
X0060816Y0146973D01*
X0061245Y0148010D01*
X0060094Y0146859D01*
X0058293Y0146113D01*
X0056343Y0146113D01*
X0054542Y0146859D01*
X0053164Y0148237D01*
X0052418Y0150038D01*
X0052418Y0151987D01*
X0053164Y0153788D01*
X0054542Y0155167D01*
X0056343Y0155913D01*
X0058293Y0155913D01*
X0060094Y0155167D01*
X0061472Y0153788D01*
X0062218Y0151987D01*
X0062218Y0150038D01*
X0061558Y0148444D01*
X0062283Y0149169D01*
X0063527Y0149684D01*
X0064873Y0149684D01*
X0066117Y0149169D01*
X0067069Y0148217D01*
X0067584Y0146973D01*
X0067584Y0145627D01*
X0067069Y0144383D01*
X0066117Y0143431D01*
X0064873Y0142916D01*
X0063527Y0142916D01*
X0062283Y0143431D01*
X0061646Y0144068D02*
X0014021Y0144068D01*
X0014860Y0145666D02*
X0060816Y0145666D01*
X0060936Y0147265D02*
X0060500Y0147265D01*
X0061731Y0148863D02*
X0061977Y0148863D01*
X0062218Y0150462D02*
X0064416Y0150462D01*
X0064527Y0150416D02*
X0065873Y0150416D01*
X0067117Y0150931D01*
X0068069Y0151883D01*
X0068584Y0153127D01*
X0068584Y0154473D01*
X0068069Y0155717D01*
X0067117Y0156669D01*
X0065873Y0157184D01*
X0064527Y0157184D01*
X0063283Y0156669D01*
X0062331Y0155717D01*
X0061816Y0154473D01*
X0061816Y0153127D01*
X0062331Y0151883D01*
X0063283Y0150931D01*
X0064527Y0150416D01*
X0065984Y0150462D02*
X0102119Y0150462D01*
X0102795Y0152060D02*
X0068142Y0152060D01*
X0068584Y0153659D02*
X0103470Y0153659D01*
X0104146Y0155257D02*
X0068260Y0155257D01*
X0066667Y0156856D02*
X0104822Y0156856D01*
X0105497Y0158454D02*
X0044380Y0158454D01*
X0045978Y0160053D02*
X0106173Y0160053D01*
X0106849Y0161651D02*
X0047577Y0161651D01*
X0049175Y0163250D02*
X0107524Y0163250D01*
X0108200Y0164848D02*
X0056646Y0164848D01*
X0057426Y0166447D02*
X0108628Y0166447D01*
X0107743Y0168045D02*
X0057181Y0168045D01*
X0055569Y0169644D02*
X0107780Y0169644D01*
X0108000Y0171242D02*
X0057168Y0171242D01*
X0058766Y0172841D02*
X0066577Y0172841D01*
X0066911Y0172507D02*
X0068005Y0172053D01*
X0069190Y0172053D01*
X0070285Y0172507D01*
X0071122Y0173344D01*
X0071576Y0174439D01*
X0071576Y0175624D01*
X0071122Y0176718D01*
X0070285Y0177556D01*
X0069190Y0178009D01*
X0068005Y0178009D01*
X0066911Y0177556D01*
X0066073Y0176718D01*
X0065620Y0175624D01*
X0065620Y0174439D01*
X0066073Y0173344D01*
X0066911Y0172507D01*
X0065620Y0174439D02*
X0060365Y0174439D01*
X0061963Y0176038D02*
X0065791Y0176038D01*
X0067105Y0177636D02*
X0063562Y0177636D01*
X0065160Y0179235D02*
X0069816Y0179235D01*
X0069816Y0179127D02*
X0070331Y0177883D01*
X0071283Y0176931D01*
X0072527Y0176416D01*
X0073873Y0176416D01*
X0075117Y0176931D01*
X0076069Y0177883D01*
X0076584Y0179127D01*
X0076584Y0180473D01*
X0076069Y0181717D01*
X0075117Y0182669D01*
X0073873Y0183184D01*
X0072527Y0183184D01*
X0071283Y0182669D01*
X0070331Y0181717D01*
X0069816Y0180473D01*
X0069816Y0179127D01*
X0070090Y0177636D02*
X0070578Y0177636D01*
X0071404Y0176038D02*
X0086176Y0176038D01*
X0086283Y0175931D02*
X0087527Y0175416D01*
X0088873Y0175416D01*
X0090117Y0175931D01*
X0091069Y0176883D01*
X0091584Y0178127D01*
X0091584Y0179473D01*
X0091069Y0180717D01*
X0090117Y0181669D01*
X0088873Y0182184D01*
X0087527Y0182184D01*
X0086283Y0181669D01*
X0085331Y0180717D01*
X0084816Y0179473D01*
X0084816Y0178127D01*
X0085331Y0176883D01*
X0086283Y0175931D01*
X0085019Y0177636D02*
X0075822Y0177636D01*
X0076584Y0179235D02*
X0084816Y0179235D01*
X0085447Y0180833D02*
X0076435Y0180833D01*
X0075354Y0182432D02*
X0098043Y0182432D01*
X0099641Y0180833D02*
X0090953Y0180833D01*
X0091584Y0179235D02*
X0101240Y0179235D01*
X0102838Y0177636D02*
X0091381Y0177636D01*
X0090224Y0176038D02*
X0104437Y0176038D01*
X0106035Y0174439D02*
X0071576Y0174439D01*
X0070619Y0172841D02*
X0107634Y0172841D01*
X0111889Y0177636D02*
X0113605Y0177636D01*
X0114281Y0179235D02*
X0110291Y0179235D01*
X0108692Y0180833D02*
X0114956Y0180833D01*
X0115632Y0182432D02*
X0107094Y0182432D01*
X0105495Y0184030D02*
X0116308Y0184030D01*
X0116983Y0185629D02*
X0103897Y0185629D01*
X0102298Y0187227D02*
X0117659Y0187227D01*
X0118335Y0188826D02*
X0100700Y0188826D01*
X0099101Y0190424D02*
X0103290Y0190424D01*
X0102831Y0190883D02*
X0103783Y0189931D01*
X0105027Y0189416D01*
X0106373Y0189416D01*
X0107617Y0189931D01*
X0108569Y0190883D01*
X0109084Y0192127D01*
X0109084Y0193473D01*
X0108569Y0194717D01*
X0107617Y0195669D01*
X0106373Y0196184D01*
X0105027Y0196184D01*
X0103783Y0195669D01*
X0102831Y0194717D01*
X0102316Y0193473D01*
X0102316Y0192127D01*
X0102831Y0190883D01*
X0102359Y0192023D02*
X0097503Y0192023D01*
X0095904Y0193621D02*
X0102377Y0193621D01*
X0103334Y0195220D02*
X0094306Y0195220D01*
X0091649Y0188826D02*
X0074751Y0188826D01*
X0073153Y0187227D02*
X0093247Y0187227D01*
X0094846Y0185629D02*
X0071554Y0185629D01*
X0069956Y0184030D02*
X0096444Y0184030D01*
X0108110Y0190424D02*
X0119010Y0190424D01*
X0119686Y0192023D02*
X0109041Y0192023D01*
X0109023Y0193621D02*
X0120316Y0193621D01*
X0120834Y0195220D02*
X0108066Y0195220D01*
X0117207Y0198417D02*
X0087193Y0198417D01*
X0079368Y0196818D02*
X0125032Y0196818D01*
X0126566Y0195220D02*
X0131450Y0195220D01*
X0135665Y0193621D02*
X0127084Y0193621D01*
X0126834Y0192023D02*
X0139880Y0192023D01*
X0143619Y0190424D02*
X0125959Y0190424D01*
X0125283Y0188826D02*
X0146665Y0188826D01*
X0149711Y0187227D02*
X0124607Y0187227D01*
X0123932Y0185629D02*
X0152756Y0185629D01*
X0155094Y0184030D02*
X0123256Y0184030D01*
X0122580Y0182432D02*
X0157410Y0182432D01*
X0159726Y0180833D02*
X0121905Y0180833D01*
X0121229Y0179235D02*
X0162041Y0179235D01*
X0163964Y0177636D02*
X0120553Y0177636D01*
X0119878Y0176038D02*
X0165768Y0176038D01*
X0167573Y0174439D02*
X0144847Y0174439D01*
X0144617Y0174669D02*
X0143373Y0175184D01*
X0142027Y0175184D01*
X0140783Y0174669D01*
X0139831Y0173717D01*
X0139316Y0172473D01*
X0139316Y0171127D01*
X0139831Y0169883D01*
X0140783Y0168931D01*
X0142027Y0168416D01*
X0143373Y0168416D01*
X0144617Y0168931D01*
X0145569Y0169883D01*
X0146084Y0171127D01*
X0146084Y0172473D01*
X0145569Y0173717D01*
X0144617Y0174669D01*
X0145932Y0172841D02*
X0169377Y0172841D01*
X0171181Y0171242D02*
X0146084Y0171242D01*
X0145330Y0169644D02*
X0172650Y0169644D01*
X0174066Y0168045D02*
X0118683Y0168045D01*
X0118683Y0166447D02*
X0175482Y0166447D01*
X0176899Y0164848D02*
X0117830Y0164848D01*
X0116232Y0163250D02*
X0178315Y0163250D01*
X0179628Y0161651D02*
X0114416Y0161651D01*
X0113121Y0160053D02*
X0180731Y0160053D01*
X0181835Y0158454D02*
X0112445Y0158454D01*
X0111770Y0156856D02*
X0182938Y0156856D01*
X0184042Y0155257D02*
X0111094Y0155257D01*
X0110418Y0153659D02*
X0185145Y0153659D01*
X0186184Y0152060D02*
X0109743Y0152060D01*
X0109067Y0150462D02*
X0187023Y0150462D01*
X0187862Y0148863D02*
X0117423Y0148863D01*
X0117569Y0148717D02*
X0116617Y0149669D01*
X0115373Y0150184D01*
X0114027Y0150184D01*
X0112783Y0149669D01*
X0111831Y0148717D01*
X0111316Y0147473D01*
X0111316Y0146127D01*
X0111831Y0144883D01*
X0112783Y0143931D01*
X0114027Y0143416D01*
X0115373Y0143416D01*
X0116617Y0143931D01*
X0117569Y0144883D01*
X0118084Y0146127D01*
X0118084Y0147473D01*
X0117569Y0148717D01*
X0118084Y0147265D02*
X0188701Y0147265D01*
X0189540Y0145666D02*
X0117893Y0145666D01*
X0116754Y0144068D02*
X0184209Y0144068D01*
X0180990Y0142469D02*
X0105655Y0142469D01*
X0106560Y0144068D02*
X0112646Y0144068D01*
X0111507Y0145666D02*
X0107040Y0145666D01*
X0107716Y0147265D02*
X0111316Y0147265D01*
X0111977Y0148863D02*
X0108391Y0148863D01*
X0101443Y0148863D02*
X0066423Y0148863D01*
X0067464Y0147265D02*
X0100768Y0147265D01*
X0099896Y0145666D02*
X0067584Y0145666D01*
X0066754Y0144068D02*
X0099840Y0144068D01*
X0100745Y0142469D02*
X0013182Y0142469D01*
X0012504Y0140870D02*
X0179391Y0140870D01*
X0178546Y0139272D02*
X0011898Y0139272D01*
X0011292Y0137673D02*
X0117037Y0137673D01*
X0116581Y0137217D02*
X0116066Y0135973D01*
X0116066Y0134627D01*
X0116581Y0133383D01*
X0117533Y0132431D01*
X0118777Y0131916D01*
X0120123Y0131916D01*
X0121367Y0132431D01*
X0122319Y0133383D01*
X0122834Y0134627D01*
X0122834Y0135973D01*
X0122319Y0137217D01*
X0121367Y0138169D01*
X0120123Y0138684D01*
X0118777Y0138684D01*
X0117533Y0138169D01*
X0116581Y0137217D01*
X0116108Y0136075D02*
X0010686Y0136075D01*
X0010079Y0134476D02*
X0116128Y0134476D01*
X0117086Y0132878D02*
X0009473Y0132878D01*
X0008867Y0131279D02*
X0131649Y0131279D01*
X0131283Y0131431D02*
X0132527Y0130916D01*
X0133873Y0130916D01*
X0135117Y0131431D01*
X0136069Y0132383D01*
X0136584Y0133627D01*
X0136584Y0134973D01*
X0136069Y0136217D01*
X0135117Y0137169D01*
X0133873Y0137684D01*
X0132527Y0137684D01*
X0131283Y0137169D01*
X0130331Y0136217D01*
X0129816Y0134973D01*
X0129816Y0133627D01*
X0130331Y0132383D01*
X0131283Y0131431D01*
X0130126Y0132878D02*
X0121814Y0132878D01*
X0122772Y0134476D02*
X0129816Y0134476D01*
X0130272Y0136075D02*
X0122792Y0136075D01*
X0121863Y0137673D02*
X0132501Y0137673D01*
X0133899Y0137673D02*
X0177884Y0137673D01*
X0177800Y0136075D02*
X0165211Y0136075D01*
X0165117Y0136169D02*
X0163873Y0136684D01*
X0162527Y0136684D01*
X0161283Y0136169D01*
X0160331Y0135217D01*
X0160200Y0134901D01*
X0160069Y0135217D01*
X0159117Y0136169D01*
X0157873Y0136684D01*
X0156527Y0136684D01*
X0155283Y0136169D01*
X0154331Y0135217D01*
X0153816Y0133973D01*
X0153816Y0132627D01*
X0154331Y0131383D01*
X0155283Y0130431D01*
X0156527Y0129916D01*
X0157873Y0129916D01*
X0159117Y0130431D01*
X0160069Y0131383D01*
X0160200Y0131699D01*
X0160331Y0131383D01*
X0161283Y0130431D01*
X0162527Y0129916D01*
X0163873Y0129916D01*
X0165117Y0130431D01*
X0166069Y0131383D01*
X0166584Y0132627D01*
X0166584Y0133973D01*
X0166069Y0135217D01*
X0165117Y0136169D01*
X0166376Y0134476D02*
X0177800Y0134476D01*
X0178318Y0132878D02*
X0166584Y0132878D01*
X0165965Y0131279D02*
X0178980Y0131279D01*
X0177881Y0129681D02*
X0180440Y0129681D01*
X0180125Y0128082D02*
X0182882Y0128082D01*
X0180584Y0126484D02*
X0196762Y0126484D01*
X0196368Y0128082D02*
X0189518Y0128082D01*
X0191960Y0129681D02*
X0195974Y0129681D01*
X0195533Y0131279D02*
X0193420Y0131279D01*
X0194082Y0132878D02*
X0194927Y0132878D01*
X0197156Y0124885D02*
X0180277Y0124885D01*
X0178769Y0123287D02*
X0197550Y0123287D01*
X0198612Y0118491D02*
X0122821Y0118491D01*
X0121525Y0116893D02*
X0198807Y0116893D01*
X0199001Y0115294D02*
X0005399Y0115294D01*
X0005205Y0113696D02*
X0199195Y0113696D01*
X0175631Y0123287D02*
X0173769Y0123287D01*
X0172881Y0129681D02*
X0176519Y0129681D01*
X0171519Y0129681D02*
X0008426Y0129681D01*
X0015699Y0147265D02*
X0028810Y0147265D01*
X0027818Y0148863D02*
X0016538Y0148863D01*
X0017377Y0150462D02*
X0027717Y0150462D01*
X0028535Y0152060D02*
X0018216Y0152060D01*
X0019255Y0153659D02*
X0030533Y0153659D01*
X0032132Y0155257D02*
X0020358Y0155257D01*
X0021462Y0156856D02*
X0033730Y0156856D01*
X0035329Y0158454D02*
X0022565Y0158454D01*
X0023669Y0160053D02*
X0036927Y0160053D01*
X0038526Y0161651D02*
X0024772Y0161651D01*
X0026085Y0163250D02*
X0040124Y0163250D01*
X0041723Y0164848D02*
X0027501Y0164848D01*
X0028918Y0166447D02*
X0043321Y0166447D01*
X0044920Y0168045D02*
X0030334Y0168045D01*
X0031750Y0169644D02*
X0046518Y0169644D01*
X0048117Y0171242D02*
X0033219Y0171242D01*
X0035023Y0172841D02*
X0049715Y0172841D01*
X0051314Y0174439D02*
X0036827Y0174439D01*
X0038632Y0176038D02*
X0052912Y0176038D01*
X0054511Y0177636D02*
X0040436Y0177636D01*
X0042359Y0179235D02*
X0056109Y0179235D01*
X0057708Y0180833D02*
X0044674Y0180833D01*
X0046990Y0182432D02*
X0059306Y0182432D01*
X0060905Y0184030D02*
X0049306Y0184030D01*
X0051644Y0185629D02*
X0062503Y0185629D01*
X0064102Y0187227D02*
X0054689Y0187227D01*
X0057735Y0188826D02*
X0065700Y0188826D01*
X0067299Y0190424D02*
X0060781Y0190424D01*
X0064520Y0192023D02*
X0068897Y0192023D01*
X0068735Y0193621D02*
X0070496Y0193621D01*
X0071046Y0182432D02*
X0068357Y0182432D01*
X0066759Y0180833D02*
X0069965Y0180833D01*
X0052250Y0164848D02*
X0050774Y0164848D01*
X0048293Y0155913D02*
X0046343Y0155913D01*
X0044542Y0155167D01*
X0043164Y0153788D01*
X0042418Y0151987D01*
X0042418Y0150038D01*
X0043164Y0148237D01*
X0044542Y0146859D01*
X0046343Y0146113D01*
X0048293Y0146113D01*
X0050094Y0146859D01*
X0051472Y0148237D01*
X0052218Y0150038D01*
X0052218Y0151987D01*
X0051472Y0153788D01*
X0050094Y0155167D01*
X0048293Y0155913D01*
X0049875Y0155257D02*
X0054761Y0155257D01*
X0053110Y0153659D02*
X0051526Y0153659D01*
X0052188Y0152060D02*
X0052448Y0152060D01*
X0052418Y0150462D02*
X0052218Y0150462D01*
X0051731Y0148863D02*
X0052905Y0148863D01*
X0054137Y0147265D02*
X0050500Y0147265D01*
X0044137Y0147265D02*
X0033590Y0147265D01*
X0034789Y0148863D02*
X0042905Y0148863D01*
X0042418Y0150462D02*
X0036387Y0150462D01*
X0037986Y0152060D02*
X0042448Y0152060D01*
X0043110Y0153659D02*
X0039584Y0153659D01*
X0041183Y0155257D02*
X0044761Y0155257D01*
X0042781Y0156856D02*
X0063733Y0156856D01*
X0062140Y0155257D02*
X0059875Y0155257D01*
X0061526Y0153659D02*
X0061816Y0153659D01*
X0062188Y0152060D02*
X0062258Y0152060D01*
X0021841Y0108900D02*
X0004623Y0108900D01*
X0004466Y0107302D02*
X0020159Y0107302D01*
X0019816Y0105703D02*
X0004418Y0105703D01*
X0004370Y0104105D02*
X0020239Y0104105D01*
X0012254Y0073733D02*
X0008472Y0073733D01*
X0008938Y0072134D02*
X0010903Y0072134D01*
X0010241Y0070536D02*
X0009544Y0070536D01*
X0041131Y0060945D02*
X0045769Y0060945D01*
X0044557Y0062543D02*
X0042050Y0062543D01*
X0042653Y0064142D02*
X0044316Y0064142D01*
X0044252Y0065740D02*
X0044854Y0065740D01*
X0045850Y0067339D02*
X0047816Y0067339D01*
X0047449Y0068937D02*
X0048551Y0068937D01*
X0041742Y0032172D02*
X0033429Y0032172D01*
X0035233Y0030573D02*
X0042227Y0030573D01*
X0043520Y0028975D02*
X0037037Y0028975D01*
X0100729Y0062543D02*
X0187934Y0062543D01*
X0188356Y0064142D02*
X0101883Y0064142D01*
X0102084Y0065740D02*
X0188779Y0065740D01*
X0189201Y0067339D02*
X0101447Y0067339D01*
X0103592Y0068937D02*
X0189623Y0068937D01*
X0190045Y0070536D02*
X0104084Y0070536D01*
X0103810Y0072134D02*
X0190468Y0072134D01*
X0190890Y0073733D02*
X0102463Y0073733D01*
X0108676Y0044960D02*
X0116474Y0044960D01*
X0116066Y0043361D02*
X0109084Y0043361D01*
X0108726Y0041763D02*
X0116424Y0041763D01*
X0118177Y0040164D02*
X0106973Y0040164D01*
X0104819Y0036967D02*
X0113081Y0036967D01*
X0112831Y0036717D02*
X0112316Y0035473D01*
X0112316Y0034127D01*
X0112831Y0032883D01*
X0113783Y0031931D01*
X0115027Y0031416D01*
X0116373Y0031416D01*
X0117617Y0031931D01*
X0118569Y0032883D01*
X0119084Y0034127D01*
X0119084Y0035473D01*
X0118569Y0036717D01*
X0117617Y0037669D01*
X0116373Y0038184D01*
X0115027Y0038184D01*
X0113783Y0037669D01*
X0112831Y0036717D01*
X0112316Y0035369D02*
X0105584Y0035369D01*
X0105437Y0033770D02*
X0112463Y0033770D01*
X0113542Y0032172D02*
X0104358Y0032172D01*
X0117858Y0032172D02*
X0128042Y0032172D01*
X0128283Y0031931D02*
X0129527Y0031416D01*
X0130873Y0031416D01*
X0132117Y0031931D01*
X0133069Y0032883D01*
X0133584Y0034127D01*
X0133584Y0035473D01*
X0133069Y0036717D01*
X0132117Y0037669D01*
X0130873Y0038184D01*
X0129527Y0038184D01*
X0128283Y0037669D01*
X0127331Y0036717D01*
X0126816Y0035473D01*
X0126816Y0034127D01*
X0127331Y0032883D01*
X0128283Y0031931D01*
X0126963Y0033770D02*
X0118937Y0033770D01*
X0119084Y0035369D02*
X0126816Y0035369D01*
X0127581Y0036967D02*
X0118319Y0036967D01*
X0120723Y0040164D02*
X0131550Y0040164D01*
X0130467Y0041763D02*
X0122476Y0041763D01*
X0122834Y0043361D02*
X0130316Y0043361D01*
X0131074Y0044960D02*
X0122426Y0044960D01*
X0132819Y0036967D02*
X0141831Y0036967D01*
X0141066Y0035369D02*
X0133584Y0035369D01*
X0133437Y0033770D02*
X0141213Y0033770D01*
X0142292Y0032172D02*
X0132358Y0032172D01*
X0134751Y0131279D02*
X0154435Y0131279D01*
X0153816Y0132878D02*
X0136274Y0132878D01*
X0136584Y0134476D02*
X0154024Y0134476D01*
X0155189Y0136075D02*
X0136128Y0136075D01*
X0159211Y0136075D02*
X0161189Y0136075D01*
X0160435Y0131279D02*
X0159965Y0131279D01*
X0188191Y0144068D02*
X0190379Y0144068D01*
X0140070Y0169644D02*
X0118683Y0169644D01*
X0118683Y0171242D02*
X0139316Y0171242D01*
X0139468Y0172841D02*
X0118683Y0172841D01*
X0119202Y0174439D02*
X0140553Y0174439D01*
M02*
