G75*
%MOIN*%
%OFA0B0*%
%FSLAX25Y25*%
%IPPOS*%
%LPD*%
%AMOC8*
5,1,8,0,0,1.08239X$1,22.5*
%
%ADD10C,0.14400*%
%ADD11C,0.01640*%
%ADD12C,0.03556*%
%ADD13R,0.06902X0.09855*%
%ADD14R,0.09186X0.11036*%
%ADD15R,0.04816X0.11036*%
%ADD16R,0.09855X0.06902*%
%ADD17R,0.02769X0.13792*%
%ADD18R,0.05918X0.13792*%
%ADD19C,0.08200*%
%ADD20C,0.04369*%
%ADD21C,0.05156*%
%ADD22C,0.04565*%
D10*
X0018200Y0067800D03*
X0186200Y0135800D03*
D11*
X0039810Y0037270D02*
X0040630Y0036450D01*
X0037912Y0036450D01*
X0035992Y0038370D01*
X0035992Y0041088D01*
X0037912Y0043008D01*
X0040630Y0043008D01*
X0042550Y0041088D01*
X0042550Y0038370D01*
X0040630Y0036450D01*
X0040120Y0037680D01*
X0038422Y0037680D01*
X0037222Y0038880D01*
X0037222Y0040578D01*
X0038422Y0041778D01*
X0040120Y0041778D01*
X0041320Y0040578D01*
X0041320Y0038880D01*
X0040120Y0037680D01*
X0039611Y0038910D01*
X0038931Y0038910D01*
X0038452Y0039389D01*
X0038452Y0040069D01*
X0038931Y0040548D01*
X0039611Y0040548D01*
X0040090Y0040069D01*
X0040090Y0039389D01*
X0039611Y0038910D01*
X0046881Y0030199D02*
X0047701Y0029379D01*
X0044983Y0029379D01*
X0043063Y0031299D01*
X0043063Y0034017D01*
X0044983Y0035937D01*
X0047701Y0035937D01*
X0049621Y0034017D01*
X0049621Y0031299D01*
X0047701Y0029379D01*
X0047191Y0030609D01*
X0045493Y0030609D01*
X0044293Y0031809D01*
X0044293Y0033507D01*
X0045493Y0034707D01*
X0047191Y0034707D01*
X0048391Y0033507D01*
X0048391Y0031809D01*
X0047191Y0030609D01*
X0046682Y0031839D01*
X0046002Y0031839D01*
X0045523Y0032318D01*
X0045523Y0032998D01*
X0046002Y0033477D01*
X0046682Y0033477D01*
X0047161Y0032998D01*
X0047161Y0032318D01*
X0046682Y0031839D01*
X0053952Y0037270D02*
X0054772Y0036450D01*
X0052054Y0036450D01*
X0050134Y0038370D01*
X0050134Y0041088D01*
X0052054Y0043008D01*
X0054772Y0043008D01*
X0056692Y0041088D01*
X0056692Y0038370D01*
X0054772Y0036450D01*
X0054262Y0037680D01*
X0052564Y0037680D01*
X0051364Y0038880D01*
X0051364Y0040578D01*
X0052564Y0041778D01*
X0054262Y0041778D01*
X0055462Y0040578D01*
X0055462Y0038880D01*
X0054262Y0037680D01*
X0053753Y0038910D01*
X0053073Y0038910D01*
X0052594Y0039389D01*
X0052594Y0040069D01*
X0053073Y0040548D01*
X0053753Y0040548D01*
X0054232Y0040069D01*
X0054232Y0039389D01*
X0053753Y0038910D01*
X0046881Y0044341D02*
X0047701Y0043521D01*
X0044983Y0043521D01*
X0043063Y0045441D01*
X0043063Y0048159D01*
X0044983Y0050079D01*
X0047701Y0050079D01*
X0049621Y0048159D01*
X0049621Y0045441D01*
X0047701Y0043521D01*
X0047191Y0044751D01*
X0045493Y0044751D01*
X0044293Y0045951D01*
X0044293Y0047649D01*
X0045493Y0048849D01*
X0047191Y0048849D01*
X0048391Y0047649D01*
X0048391Y0045951D01*
X0047191Y0044751D01*
X0046682Y0045981D01*
X0046002Y0045981D01*
X0045523Y0046460D01*
X0045523Y0047140D01*
X0046002Y0047619D01*
X0046682Y0047619D01*
X0047161Y0047140D01*
X0047161Y0046460D01*
X0046682Y0045981D01*
X0039810Y0051412D02*
X0040630Y0050592D01*
X0037912Y0050592D01*
X0035992Y0052512D01*
X0035992Y0055230D01*
X0037912Y0057150D01*
X0040630Y0057150D01*
X0042550Y0055230D01*
X0042550Y0052512D01*
X0040630Y0050592D01*
X0040120Y0051822D01*
X0038422Y0051822D01*
X0037222Y0053022D01*
X0037222Y0054720D01*
X0038422Y0055920D01*
X0040120Y0055920D01*
X0041320Y0054720D01*
X0041320Y0053022D01*
X0040120Y0051822D01*
X0039611Y0053052D01*
X0038931Y0053052D01*
X0038452Y0053531D01*
X0038452Y0054211D01*
X0038931Y0054690D01*
X0039611Y0054690D01*
X0040090Y0054211D01*
X0040090Y0053531D01*
X0039611Y0053052D01*
X0032739Y0044341D02*
X0033559Y0043521D01*
X0030841Y0043521D01*
X0028921Y0045441D01*
X0028921Y0048159D01*
X0030841Y0050079D01*
X0033559Y0050079D01*
X0035479Y0048159D01*
X0035479Y0045441D01*
X0033559Y0043521D01*
X0033049Y0044751D01*
X0031351Y0044751D01*
X0030151Y0045951D01*
X0030151Y0047649D01*
X0031351Y0048849D01*
X0033049Y0048849D01*
X0034249Y0047649D01*
X0034249Y0045951D01*
X0033049Y0044751D01*
X0032540Y0045981D01*
X0031860Y0045981D01*
X0031381Y0046460D01*
X0031381Y0047140D01*
X0031860Y0047619D01*
X0032540Y0047619D01*
X0033019Y0047140D01*
X0033019Y0046460D01*
X0032540Y0045981D01*
D12*
X0054448Y0166862D03*
X0068598Y0175031D03*
D13*
G36*
X0073518Y0116346D02*
X0080081Y0114213D01*
X0077036Y0104842D01*
X0070473Y0106975D01*
X0073518Y0116346D01*
G37*
G36*
X0084564Y0112757D02*
X0091127Y0110624D01*
X0088082Y0101253D01*
X0081519Y0103386D01*
X0084564Y0112757D01*
G37*
G36*
X0086399Y0088402D02*
X0090456Y0093985D01*
X0098427Y0088194D01*
X0094370Y0082611D01*
X0086399Y0088402D01*
G37*
G36*
X0079573Y0079006D02*
X0083630Y0084589D01*
X0091601Y0078798D01*
X0087544Y0073215D01*
X0079573Y0079006D01*
G37*
G36*
X0110030Y0082611D02*
X0105973Y0088194D01*
X0113944Y0093985D01*
X0118001Y0088402D01*
X0110030Y0082611D01*
G37*
G36*
X0116856Y0073215D02*
X0112799Y0078798D01*
X0120770Y0084589D01*
X0124827Y0079006D01*
X0116856Y0073215D01*
G37*
D14*
G36*
X0132800Y0105988D02*
X0124064Y0103149D01*
X0120654Y0113644D01*
X0129390Y0116483D01*
X0132800Y0105988D01*
G37*
D15*
G36*
X0122390Y0102606D02*
X0117811Y0101117D01*
X0114400Y0111612D01*
X0118979Y0113101D01*
X0122390Y0102606D01*
G37*
D16*
X0102200Y0118493D03*
X0102200Y0130107D03*
D17*
X0096688Y0101800D03*
X0107712Y0101800D03*
D18*
X0102200Y0101800D03*
D19*
X0057318Y0147313D02*
X0057318Y0154713D01*
X0047318Y0154713D02*
X0047318Y0147313D01*
D20*
X0064200Y0146300D03*
X0065200Y0153800D03*
X0088200Y0178800D03*
X0073200Y0179800D03*
X0105700Y0192800D03*
X0123700Y0193300D03*
X0142700Y0171800D03*
X0114700Y0146800D03*
X0103200Y0144800D03*
X0119450Y0135300D03*
X0116700Y0123800D03*
X0119700Y0119800D03*
X0110700Y0113800D03*
X0113200Y0098300D03*
X0093700Y0119800D03*
X0091700Y0123800D03*
X0070200Y0121800D03*
X0066200Y0110300D03*
X0060200Y0107300D03*
X0054700Y0105300D03*
X0054700Y0109800D03*
X0054700Y0114300D03*
X0054200Y0122300D03*
X0062700Y0099300D03*
X0059200Y0094300D03*
X0060700Y0083300D03*
X0077700Y0081300D03*
X0084700Y0095300D03*
X0100700Y0070800D03*
X0098700Y0065300D03*
X0091700Y0044800D03*
X0088200Y0034800D03*
X0077200Y0043800D03*
X0073700Y0034800D03*
X0062700Y0048800D03*
X0047700Y0063800D03*
X0051200Y0066800D03*
X0038700Y0063300D03*
X0021700Y0086300D03*
X0010200Y0095800D03*
X0023200Y0105800D03*
X0008200Y0080800D03*
X0102200Y0034800D03*
X0105700Y0043300D03*
X0115700Y0034800D03*
X0119450Y0043300D03*
X0130200Y0034800D03*
X0133700Y0042800D03*
X0144450Y0034800D03*
X0150700Y0045300D03*
X0138200Y0124300D03*
X0133200Y0134300D03*
X0157200Y0133300D03*
X0163200Y0133300D03*
X0172200Y0126300D03*
X0177200Y0126300D03*
D21*
X0077700Y0193300D03*
D22*
X0111200Y0173800D03*
X0111200Y0168800D03*
X0091200Y0097800D03*
X0031200Y0149800D03*
M02*
