G75*
%MOIN*%
%OFA0B0*%
%FSLAX25Y25*%
%IPPOS*%
%LPD*%
%AMOC8*
5,1,8,0,0,1.08239X$1,22.5*
%
%ADD10C,0.01480*%
%ADD11R,0.06102X0.09055*%
%ADD12R,0.08386X0.10236*%
%ADD13R,0.04016X0.10236*%
%ADD14R,0.09055X0.06102*%
%ADD15R,0.01969X0.12992*%
%ADD16R,0.05118X0.12992*%
%ADD17C,0.07400*%
%ADD18C,0.01600*%
%ADD19C,0.03569*%
%ADD20C,0.01000*%
%ADD21C,0.04356*%
%ADD22C,0.03765*%
%ADD23C,0.03200*%
%ADD24C,0.01200*%
%ADD25C,0.02000*%
D10*
X0039757Y0037510D02*
X0040497Y0036770D01*
X0038045Y0036770D01*
X0036312Y0038503D01*
X0036312Y0040955D01*
X0038045Y0042688D01*
X0040497Y0042688D01*
X0042230Y0040955D01*
X0042230Y0038503D01*
X0040497Y0036770D01*
X0040037Y0037880D01*
X0038505Y0037880D01*
X0037422Y0038963D01*
X0037422Y0040495D01*
X0038505Y0041578D01*
X0040037Y0041578D01*
X0041120Y0040495D01*
X0041120Y0038963D01*
X0040037Y0037880D01*
X0039577Y0038990D01*
X0038965Y0038990D01*
X0038532Y0039423D01*
X0038532Y0040035D01*
X0038965Y0040468D01*
X0039577Y0040468D01*
X0040010Y0040035D01*
X0040010Y0039423D01*
X0039577Y0038990D01*
X0046828Y0030439D02*
X0047568Y0029699D01*
X0045116Y0029699D01*
X0043383Y0031432D01*
X0043383Y0033884D01*
X0045116Y0035617D01*
X0047568Y0035617D01*
X0049301Y0033884D01*
X0049301Y0031432D01*
X0047568Y0029699D01*
X0047108Y0030809D01*
X0045576Y0030809D01*
X0044493Y0031892D01*
X0044493Y0033424D01*
X0045576Y0034507D01*
X0047108Y0034507D01*
X0048191Y0033424D01*
X0048191Y0031892D01*
X0047108Y0030809D01*
X0046648Y0031919D01*
X0046036Y0031919D01*
X0045603Y0032352D01*
X0045603Y0032964D01*
X0046036Y0033397D01*
X0046648Y0033397D01*
X0047081Y0032964D01*
X0047081Y0032352D01*
X0046648Y0031919D01*
X0053899Y0037510D02*
X0054639Y0036770D01*
X0052187Y0036770D01*
X0050454Y0038503D01*
X0050454Y0040955D01*
X0052187Y0042688D01*
X0054639Y0042688D01*
X0056372Y0040955D01*
X0056372Y0038503D01*
X0054639Y0036770D01*
X0054179Y0037880D01*
X0052647Y0037880D01*
X0051564Y0038963D01*
X0051564Y0040495D01*
X0052647Y0041578D01*
X0054179Y0041578D01*
X0055262Y0040495D01*
X0055262Y0038963D01*
X0054179Y0037880D01*
X0053719Y0038990D01*
X0053107Y0038990D01*
X0052674Y0039423D01*
X0052674Y0040035D01*
X0053107Y0040468D01*
X0053719Y0040468D01*
X0054152Y0040035D01*
X0054152Y0039423D01*
X0053719Y0038990D01*
X0046828Y0044581D02*
X0047568Y0043841D01*
X0045116Y0043841D01*
X0043383Y0045574D01*
X0043383Y0048026D01*
X0045116Y0049759D01*
X0047568Y0049759D01*
X0049301Y0048026D01*
X0049301Y0045574D01*
X0047568Y0043841D01*
X0047108Y0044951D01*
X0045576Y0044951D01*
X0044493Y0046034D01*
X0044493Y0047566D01*
X0045576Y0048649D01*
X0047108Y0048649D01*
X0048191Y0047566D01*
X0048191Y0046034D01*
X0047108Y0044951D01*
X0046648Y0046061D01*
X0046036Y0046061D01*
X0045603Y0046494D01*
X0045603Y0047106D01*
X0046036Y0047539D01*
X0046648Y0047539D01*
X0047081Y0047106D01*
X0047081Y0046494D01*
X0046648Y0046061D01*
X0039757Y0051652D02*
X0040497Y0050912D01*
X0038045Y0050912D01*
X0036312Y0052645D01*
X0036312Y0055097D01*
X0038045Y0056830D01*
X0040497Y0056830D01*
X0042230Y0055097D01*
X0042230Y0052645D01*
X0040497Y0050912D01*
X0040037Y0052022D01*
X0038505Y0052022D01*
X0037422Y0053105D01*
X0037422Y0054637D01*
X0038505Y0055720D01*
X0040037Y0055720D01*
X0041120Y0054637D01*
X0041120Y0053105D01*
X0040037Y0052022D01*
X0039577Y0053132D01*
X0038965Y0053132D01*
X0038532Y0053565D01*
X0038532Y0054177D01*
X0038965Y0054610D01*
X0039577Y0054610D01*
X0040010Y0054177D01*
X0040010Y0053565D01*
X0039577Y0053132D01*
X0032686Y0044581D02*
X0033426Y0043841D01*
X0030974Y0043841D01*
X0029241Y0045574D01*
X0029241Y0048026D01*
X0030974Y0049759D01*
X0033426Y0049759D01*
X0035159Y0048026D01*
X0035159Y0045574D01*
X0033426Y0043841D01*
X0032966Y0044951D01*
X0031434Y0044951D01*
X0030351Y0046034D01*
X0030351Y0047566D01*
X0031434Y0048649D01*
X0032966Y0048649D01*
X0034049Y0047566D01*
X0034049Y0046034D01*
X0032966Y0044951D01*
X0032506Y0046061D01*
X0031894Y0046061D01*
X0031461Y0046494D01*
X0031461Y0047106D01*
X0031894Y0047539D01*
X0032506Y0047539D01*
X0032939Y0047106D01*
X0032939Y0046494D01*
X0032506Y0046061D01*
D11*
G36*
X0080132Y0079094D02*
X0083718Y0084031D01*
X0091042Y0078710D01*
X0087456Y0073773D01*
X0080132Y0079094D01*
G37*
G36*
X0086958Y0088490D02*
X0090544Y0093427D01*
X0097868Y0088106D01*
X0094282Y0083169D01*
X0086958Y0088490D01*
G37*
G36*
X0084821Y0112253D02*
X0090623Y0110367D01*
X0087825Y0101757D01*
X0082023Y0103643D01*
X0084821Y0112253D01*
G37*
G36*
X0073775Y0115842D02*
X0079577Y0113956D01*
X0076779Y0105346D01*
X0070977Y0107232D01*
X0073775Y0115842D01*
G37*
G36*
X0110118Y0083169D02*
X0106532Y0088106D01*
X0113856Y0093427D01*
X0117442Y0088490D01*
X0110118Y0083169D01*
G37*
G36*
X0116944Y0073773D02*
X0113358Y0078710D01*
X0120682Y0084031D01*
X0124268Y0079094D01*
X0116944Y0073773D01*
G37*
D12*
G36*
X0132296Y0106245D02*
X0124321Y0103653D01*
X0121158Y0113387D01*
X0129133Y0115979D01*
X0132296Y0106245D01*
G37*
D13*
G36*
X0121886Y0102862D02*
X0118067Y0101621D01*
X0114904Y0111356D01*
X0118723Y0112597D01*
X0121886Y0102862D01*
G37*
D14*
X0102200Y0118493D03*
X0102200Y0130107D03*
D15*
X0096688Y0101800D03*
X0107712Y0101800D03*
D16*
X0102200Y0101800D03*
D17*
X0057318Y0147313D02*
X0057318Y0154713D01*
X0047318Y0154713D02*
X0047318Y0147313D01*
D18*
X0042700Y0027300D02*
X0044700Y0025300D01*
X0053200Y0025300D01*
X0061700Y0034800D01*
X0073700Y0034800D01*
X0088200Y0034800D01*
X0102200Y0034800D01*
X0115700Y0034800D01*
X0130200Y0034800D01*
X0144450Y0034800D01*
X0142064Y0037200D02*
X0132586Y0037200D01*
X0132117Y0037669D01*
X0130873Y0038184D01*
X0129527Y0038184D01*
X0128283Y0037669D01*
X0127814Y0037200D01*
X0118086Y0037200D01*
X0117617Y0037669D01*
X0116373Y0038184D01*
X0115027Y0038184D01*
X0113783Y0037669D01*
X0113314Y0037200D01*
X0104586Y0037200D01*
X0104117Y0037669D01*
X0102873Y0038184D01*
X0101527Y0038184D01*
X0100283Y0037669D01*
X0099814Y0037200D01*
X0090586Y0037200D01*
X0090117Y0037669D01*
X0088873Y0038184D01*
X0087527Y0038184D01*
X0086283Y0037669D01*
X0085814Y0037200D01*
X0076086Y0037200D01*
X0075617Y0037669D01*
X0074373Y0038184D01*
X0073027Y0038184D01*
X0071783Y0037669D01*
X0071314Y0037200D01*
X0062109Y0037200D01*
X0062044Y0037223D01*
X0061633Y0037200D01*
X0061223Y0037200D01*
X0061159Y0037174D01*
X0061090Y0037170D01*
X0060720Y0036992D01*
X0060341Y0036835D01*
X0060292Y0036786D01*
X0060230Y0036756D01*
X0059956Y0036450D01*
X0059665Y0036159D01*
X0059639Y0036096D01*
X0052127Y0027700D01*
X0048880Y0027700D01*
X0051642Y0030463D01*
X0051642Y0034853D01*
X0048537Y0037958D01*
X0044571Y0037958D01*
X0044571Y0041500D01*
X0048537Y0041500D01*
X0051642Y0044605D01*
X0051642Y0048995D01*
X0049966Y0050672D01*
X0065194Y0065900D01*
X0094706Y0065900D01*
X0095316Y0065290D01*
X0095316Y0064627D01*
X0095831Y0063383D01*
X0096783Y0062431D01*
X0098027Y0061916D01*
X0099373Y0061916D01*
X0100617Y0062431D01*
X0101569Y0063383D01*
X0102084Y0064627D01*
X0102084Y0065973D01*
X0101569Y0067217D01*
X0101370Y0067416D01*
X0101373Y0067416D01*
X0102617Y0067931D01*
X0103538Y0068852D01*
X0103300Y0068277D01*
X0103300Y0045686D01*
X0102831Y0045217D01*
X0102316Y0043973D01*
X0102316Y0042627D01*
X0102831Y0041383D01*
X0103783Y0040431D01*
X0105027Y0039916D01*
X0106373Y0039916D01*
X0107617Y0040431D01*
X0108569Y0041383D01*
X0109084Y0042627D01*
X0109084Y0043973D01*
X0108569Y0045217D01*
X0108100Y0045686D01*
X0108100Y0066806D01*
X0111842Y0070547D01*
X0114688Y0073044D01*
X0115221Y0073421D01*
X0116039Y0072296D01*
X0117050Y0072136D01*
X0117050Y0045686D01*
X0116581Y0045217D01*
X0116066Y0043973D01*
X0116066Y0042627D01*
X0116581Y0041383D01*
X0117533Y0040431D01*
X0118777Y0039916D01*
X0120123Y0039916D01*
X0121367Y0040431D01*
X0122319Y0041383D01*
X0122834Y0042627D01*
X0122834Y0043973D01*
X0122319Y0045217D01*
X0121850Y0045686D01*
X0121850Y0071380D01*
X0134421Y0081208D01*
X0134559Y0081265D01*
X0134794Y0081499D01*
X0135054Y0081703D01*
X0135128Y0081834D01*
X0135235Y0081941D01*
X0135361Y0082246D01*
X0135524Y0082534D01*
X0135542Y0082684D01*
X0135600Y0082823D01*
X0135600Y0083154D01*
X0135640Y0083482D01*
X0135600Y0083627D01*
X0135600Y0099174D01*
X0135646Y0099372D01*
X0135600Y0099647D01*
X0135600Y0099925D01*
X0135522Y0100113D01*
X0135489Y0100314D01*
X0135341Y0100550D01*
X0135235Y0100807D01*
X0135091Y0100951D01*
X0132745Y0104708D01*
X0133421Y0104927D01*
X0134022Y0106108D01*
X0130449Y0117104D01*
X0129268Y0117706D01*
X0120032Y0114705D01*
X0119637Y0113927D01*
X0118859Y0114323D01*
X0113914Y0112717D01*
X0114084Y0113127D01*
X0114084Y0114473D01*
X0113569Y0115717D01*
X0112617Y0116669D01*
X0111373Y0117184D01*
X0110027Y0117184D01*
X0109582Y0117000D01*
X0108328Y0117000D01*
X0108328Y0122207D01*
X0107390Y0123144D01*
X0097010Y0123144D01*
X0096076Y0122210D01*
X0095617Y0122669D01*
X0095000Y0122924D01*
X0095084Y0123127D01*
X0095084Y0124473D01*
X0094569Y0125717D01*
X0093617Y0126669D01*
X0092373Y0127184D01*
X0091027Y0127184D01*
X0089783Y0126669D01*
X0088831Y0125717D01*
X0088316Y0124473D01*
X0088316Y0123127D01*
X0088831Y0121883D01*
X0089783Y0120931D01*
X0090400Y0120676D01*
X0090316Y0120473D01*
X0090316Y0119127D01*
X0090831Y0117883D01*
X0091783Y0116931D01*
X0093027Y0116416D01*
X0094373Y0116416D01*
X0095617Y0116931D01*
X0096072Y0117386D01*
X0096072Y0114779D01*
X0097010Y0113842D01*
X0102326Y0113842D01*
X0105080Y0111087D01*
X0106256Y0110600D01*
X0107500Y0110600D01*
X0107500Y0109896D01*
X0106065Y0109896D01*
X0105128Y0108959D01*
X0105128Y0094641D01*
X0106065Y0093704D01*
X0109359Y0093704D01*
X0110296Y0094641D01*
X0110296Y0098600D01*
X0110337Y0098600D01*
X0111513Y0099087D01*
X0115812Y0103386D01*
X0116751Y0100496D01*
X0117932Y0099894D01*
X0123011Y0101545D01*
X0123407Y0102322D01*
X0124185Y0101926D01*
X0128041Y0103179D01*
X0130800Y0098760D01*
X0130800Y0084470D01*
X0125406Y0080253D01*
X0121588Y0085508D01*
X0120278Y0085716D01*
X0111880Y0079614D01*
X0111673Y0078305D01*
X0112400Y0077305D01*
X0112098Y0077092D01*
X0111976Y0077050D01*
X0111712Y0076818D01*
X0111424Y0076615D01*
X0111356Y0076506D01*
X0108915Y0074366D01*
X0108841Y0074335D01*
X0108558Y0074052D01*
X0108259Y0073790D01*
X0108223Y0073717D01*
X0103696Y0069191D01*
X0104084Y0070127D01*
X0104084Y0071473D01*
X0103569Y0072717D01*
X0102617Y0073669D01*
X0101373Y0074184D01*
X0100027Y0074184D01*
X0098783Y0073669D01*
X0098314Y0073200D01*
X0089018Y0073200D01*
X0092727Y0078305D01*
X0092520Y0079614D01*
X0089008Y0082166D01*
X0088885Y0082525D01*
X0088832Y0082585D01*
X0088802Y0082659D01*
X0088519Y0082942D01*
X0088255Y0083242D01*
X0088183Y0083278D01*
X0088127Y0083335D01*
X0087757Y0083488D01*
X0087399Y0083664D01*
X0087319Y0083669D01*
X0087245Y0083700D01*
X0086896Y0083700D01*
X0084122Y0085716D01*
X0082812Y0085508D01*
X0081499Y0083700D01*
X0080086Y0083700D01*
X0079617Y0084169D01*
X0078373Y0084684D01*
X0077027Y0084684D01*
X0075783Y0084169D01*
X0074831Y0083217D01*
X0074316Y0081973D01*
X0074316Y0080627D01*
X0074831Y0079383D01*
X0075783Y0078431D01*
X0077027Y0077916D01*
X0078373Y0077916D01*
X0078792Y0078089D01*
X0085522Y0073200D01*
X0062723Y0073200D01*
X0061841Y0072835D01*
X0061165Y0072159D01*
X0060865Y0071435D01*
X0044571Y0055141D01*
X0044571Y0056066D01*
X0041466Y0059171D01*
X0037076Y0059171D01*
X0033971Y0056066D01*
X0033971Y0052100D01*
X0030005Y0052100D01*
X0026900Y0048995D01*
X0026900Y0046087D01*
X0023042Y0049856D01*
X0019856Y0054457D01*
X0059084Y0090916D01*
X0059873Y0090916D01*
X0061117Y0091431D01*
X0062069Y0092383D01*
X0062584Y0093627D01*
X0062584Y0094973D01*
X0062194Y0095916D01*
X0063373Y0095916D01*
X0064617Y0096431D01*
X0065569Y0097383D01*
X0066084Y0098627D01*
X0066084Y0099973D01*
X0065569Y0101217D01*
X0064617Y0102169D01*
X0063373Y0102684D01*
X0062027Y0102684D01*
X0060783Y0102169D01*
X0059831Y0101217D01*
X0059316Y0099973D01*
X0059316Y0098627D01*
X0059706Y0097684D01*
X0058527Y0097684D01*
X0057283Y0097169D01*
X0056331Y0096217D01*
X0055816Y0094973D01*
X0055816Y0094431D01*
X0026600Y0067278D01*
X0026600Y0069471D01*
X0025321Y0072558D01*
X0022958Y0074921D01*
X0019871Y0076200D01*
X0016529Y0076200D01*
X0013442Y0074921D01*
X0011079Y0072558D01*
X0009877Y0069657D01*
X0008733Y0072674D01*
X0005904Y0084153D01*
X0004744Y0093700D01*
X0007514Y0093700D01*
X0008283Y0092931D01*
X0009527Y0092416D01*
X0010873Y0092416D01*
X0012117Y0092931D01*
X0013069Y0093883D01*
X0013584Y0095127D01*
X0013584Y0096473D01*
X0013069Y0097717D01*
X0012117Y0098669D01*
X0010873Y0099184D01*
X0009527Y0099184D01*
X0008283Y0098669D01*
X0007514Y0097900D01*
X0006625Y0097900D01*
X0006625Y0107708D01*
X0006869Y0110499D01*
X0051326Y0110499D01*
X0051316Y0110473D02*
X0051316Y0109127D01*
X0051831Y0107883D01*
X0052164Y0107550D01*
X0051831Y0107217D01*
X0051316Y0105973D01*
X0051316Y0104627D01*
X0051831Y0103383D01*
X0052783Y0102431D01*
X0054027Y0101916D01*
X0055373Y0101916D01*
X0056617Y0102431D01*
X0057569Y0103383D01*
X0058084Y0104627D01*
X0058084Y0104630D01*
X0058283Y0104431D01*
X0059527Y0103916D01*
X0060873Y0103916D01*
X0062117Y0104431D01*
X0063069Y0105383D01*
X0063584Y0106627D01*
X0063584Y0107973D01*
X0063474Y0108240D01*
X0064283Y0107431D01*
X0065527Y0106916D01*
X0066873Y0106916D01*
X0068117Y0107431D01*
X0068665Y0107979D01*
X0069546Y0108007D01*
X0069250Y0107096D01*
X0069851Y0105915D01*
X0076916Y0103619D01*
X0078097Y0104221D01*
X0081305Y0114093D01*
X0080703Y0115274D01*
X0073639Y0117570D01*
X0072458Y0116968D01*
X0071123Y0112861D01*
X0068510Y0112776D01*
X0068117Y0113169D01*
X0066873Y0113684D01*
X0065527Y0113684D01*
X0064283Y0113169D01*
X0063331Y0112217D01*
X0062816Y0110973D01*
X0062816Y0109627D01*
X0062926Y0109360D01*
X0062117Y0110169D01*
X0060873Y0110684D01*
X0059527Y0110684D01*
X0058283Y0110169D01*
X0058084Y0109970D01*
X0058084Y0110473D01*
X0057569Y0111717D01*
X0057236Y0112050D01*
X0057569Y0112383D01*
X0058084Y0113627D01*
X0058084Y0114973D01*
X0057569Y0116217D01*
X0056617Y0117169D01*
X0055373Y0117684D01*
X0054027Y0117684D01*
X0052783Y0117169D01*
X0051831Y0116217D01*
X0051316Y0114973D01*
X0051316Y0113627D01*
X0051831Y0112383D01*
X0052164Y0112050D01*
X0051831Y0111717D01*
X0051316Y0110473D01*
X0051410Y0108900D02*
X0006729Y0108900D01*
X0006625Y0107302D02*
X0051916Y0107302D01*
X0051316Y0105703D02*
X0006625Y0105703D01*
X0006625Y0104105D02*
X0051532Y0104105D01*
X0052708Y0102506D02*
X0006625Y0102506D01*
X0006625Y0100908D02*
X0059703Y0100908D01*
X0059316Y0099309D02*
X0006625Y0099309D01*
X0008321Y0092915D02*
X0004840Y0092915D01*
X0005034Y0091317D02*
X0052465Y0091317D01*
X0054185Y0092915D02*
X0012079Y0092915D01*
X0013330Y0094514D02*
X0055816Y0094514D01*
X0056288Y0096112D02*
X0013584Y0096112D01*
X0013072Y0097711D02*
X0059695Y0097711D01*
X0059200Y0094300D02*
X0016700Y0054800D01*
X0021200Y0048300D01*
X0042700Y0027300D01*
X0044481Y0022900D02*
X0052791Y0022900D01*
X0052856Y0022877D01*
X0053267Y0022900D01*
X0053677Y0022900D01*
X0053741Y0022926D01*
X0053810Y0022930D01*
X0054180Y0023108D01*
X0054559Y0023265D01*
X0054608Y0023314D01*
X0054670Y0023344D01*
X0054944Y0023650D01*
X0055235Y0023941D01*
X0055261Y0024004D01*
X0062773Y0032400D01*
X0071314Y0032400D01*
X0071783Y0031931D01*
X0073027Y0031416D01*
X0074373Y0031416D01*
X0075617Y0031931D01*
X0076086Y0032400D01*
X0085814Y0032400D01*
X0086283Y0031931D01*
X0087527Y0031416D01*
X0088873Y0031416D01*
X0090117Y0031931D01*
X0090586Y0032400D01*
X0099814Y0032400D01*
X0100283Y0031931D01*
X0101527Y0031416D01*
X0102873Y0031416D01*
X0104117Y0031931D01*
X0104586Y0032400D01*
X0113314Y0032400D01*
X0113783Y0031931D01*
X0115027Y0031416D01*
X0116373Y0031416D01*
X0117617Y0031931D01*
X0118086Y0032400D01*
X0127814Y0032400D01*
X0128283Y0031931D01*
X0129527Y0031416D01*
X0130873Y0031416D01*
X0132117Y0031931D01*
X0132586Y0032400D01*
X0142064Y0032400D01*
X0142533Y0031931D01*
X0143777Y0031416D01*
X0145123Y0031416D01*
X0146367Y0031931D01*
X0147319Y0032883D01*
X0147834Y0034127D01*
X0147834Y0035473D01*
X0147319Y0036717D01*
X0146367Y0037669D01*
X0145123Y0038184D01*
X0143777Y0038184D01*
X0142533Y0037669D01*
X0142064Y0037200D01*
X0147069Y0036967D02*
X0175318Y0036967D01*
X0176734Y0038566D02*
X0044571Y0038566D01*
X0044571Y0040164D02*
X0104427Y0040164D01*
X0102674Y0041763D02*
X0093211Y0041763D01*
X0093617Y0041931D02*
X0092373Y0041416D01*
X0091027Y0041416D01*
X0089783Y0041931D01*
X0088831Y0042883D01*
X0088316Y0044127D01*
X0088316Y0045473D01*
X0088831Y0046717D01*
X0089783Y0047669D01*
X0091027Y0048184D01*
X0092373Y0048184D01*
X0093617Y0047669D01*
X0094569Y0046717D01*
X0095084Y0045473D01*
X0095084Y0044127D01*
X0094569Y0042883D01*
X0093617Y0041931D01*
X0094767Y0043361D02*
X0102316Y0043361D01*
X0102724Y0044960D02*
X0095084Y0044960D01*
X0094635Y0046558D02*
X0103300Y0046558D01*
X0103300Y0048157D02*
X0092439Y0048157D01*
X0090961Y0048157D02*
X0066084Y0048157D01*
X0066084Y0048127D02*
X0065569Y0046883D01*
X0064617Y0045931D01*
X0063373Y0045416D01*
X0062027Y0045416D01*
X0060783Y0045931D01*
X0059831Y0046883D01*
X0059316Y0048127D01*
X0059316Y0049473D01*
X0059831Y0050717D01*
X0060783Y0051669D01*
X0062027Y0052184D01*
X0063373Y0052184D01*
X0064617Y0051669D01*
X0065569Y0050717D01*
X0066084Y0049473D01*
X0066084Y0048127D01*
X0065967Y0049755D02*
X0103300Y0049755D01*
X0103300Y0051354D02*
X0064932Y0051354D01*
X0060468Y0051354D02*
X0050648Y0051354D01*
X0050882Y0049755D02*
X0059433Y0049755D01*
X0059316Y0048157D02*
X0051642Y0048157D01*
X0051642Y0046558D02*
X0060156Y0046558D01*
X0065244Y0046558D02*
X0075172Y0046558D01*
X0075283Y0046669D02*
X0074331Y0045717D01*
X0073816Y0044473D01*
X0073816Y0043127D01*
X0074331Y0041883D01*
X0075283Y0040931D01*
X0076527Y0040416D01*
X0077873Y0040416D01*
X0079117Y0040931D01*
X0080069Y0041883D01*
X0080584Y0043127D01*
X0080584Y0044473D01*
X0080069Y0045717D01*
X0079117Y0046669D01*
X0077873Y0047184D01*
X0076527Y0047184D01*
X0075283Y0046669D01*
X0074017Y0044960D02*
X0051642Y0044960D01*
X0050399Y0043361D02*
X0073816Y0043361D01*
X0074451Y0041763D02*
X0048800Y0041763D01*
X0049528Y0036967D02*
X0060661Y0036967D01*
X0058988Y0035369D02*
X0051127Y0035369D01*
X0051642Y0033770D02*
X0057558Y0033770D01*
X0056128Y0032172D02*
X0051642Y0032172D01*
X0051642Y0030573D02*
X0054698Y0030573D01*
X0053267Y0028975D02*
X0050154Y0028975D01*
X0055418Y0024179D02*
X0161772Y0024179D01*
X0162577Y0024735D02*
X0152847Y0018019D01*
X0142379Y0012525D01*
X0131326Y0008333D01*
X0119847Y0005504D01*
X0108111Y0004079D01*
X0102200Y0003900D01*
X0102200Y0003900D01*
X0096289Y0004079D01*
X0084553Y0005504D01*
X0073074Y0008333D01*
X0062021Y0012525D01*
X0051553Y0018019D01*
X0044481Y0022900D01*
X0044944Y0022581D02*
X0159456Y0022581D01*
X0157140Y0020982D02*
X0047260Y0020982D01*
X0049576Y0019384D02*
X0154824Y0019384D01*
X0152847Y0018019D02*
X0152847Y0018019D01*
X0152402Y0017785D02*
X0051998Y0017785D01*
X0055044Y0016187D02*
X0149356Y0016187D01*
X0146310Y0014588D02*
X0058090Y0014588D01*
X0061135Y0012990D02*
X0143265Y0012990D01*
X0139389Y0011391D02*
X0065011Y0011391D01*
X0069225Y0009793D02*
X0135175Y0009793D01*
X0130763Y0008194D02*
X0073637Y0008194D01*
X0080123Y0006596D02*
X0124277Y0006596D01*
X0115675Y0004997D02*
X0088725Y0004997D01*
X0059708Y0028975D02*
X0167363Y0028975D01*
X0169167Y0030573D02*
X0061139Y0030573D01*
X0062569Y0032172D02*
X0071542Y0032172D01*
X0075858Y0032172D02*
X0086042Y0032172D01*
X0090358Y0032172D02*
X0100042Y0032172D01*
X0104358Y0032172D02*
X0113542Y0032172D01*
X0117858Y0032172D02*
X0128042Y0032172D01*
X0132358Y0032172D02*
X0142292Y0032172D01*
X0146608Y0032172D02*
X0170971Y0032172D01*
X0171426Y0032574D02*
X0162577Y0024735D01*
X0162577Y0024735D01*
X0163754Y0025778D02*
X0056848Y0025778D01*
X0058278Y0027376D02*
X0165558Y0027376D01*
X0171426Y0032574D02*
X0179265Y0041423D01*
X0185278Y0050135D01*
X0184700Y0050300D01*
X0198700Y0103300D01*
X0200066Y0102910D01*
X0199921Y0107711D01*
X0198496Y0119447D01*
X0195667Y0130926D01*
X0194523Y0133943D01*
X0193321Y0131042D01*
X0190958Y0128679D01*
X0187871Y0127400D01*
X0184529Y0127400D01*
X0181442Y0128679D01*
X0179079Y0131042D01*
X0177800Y0134129D01*
X0177800Y0137471D01*
X0179079Y0140558D01*
X0181442Y0142921D01*
X0184529Y0144200D01*
X0187871Y0144200D01*
X0190958Y0142921D01*
X0191006Y0142874D01*
X0185981Y0152447D01*
X0179265Y0162177D01*
X0171426Y0171026D01*
X0162577Y0178865D01*
X0152847Y0185581D01*
X0142379Y0191075D01*
X0131326Y0195267D01*
X0119847Y0198096D01*
X0108111Y0199521D01*
X0102200Y0199700D01*
X0102200Y0199700D01*
X0096289Y0199521D01*
X0084553Y0198096D01*
X0079186Y0196774D01*
X0079840Y0196503D01*
X0080903Y0195440D01*
X0081478Y0194051D01*
X0081478Y0192549D01*
X0080903Y0191160D01*
X0079840Y0190097D01*
X0078517Y0189549D01*
X0086364Y0181703D01*
X0087527Y0182184D01*
X0088873Y0182184D01*
X0090117Y0181669D01*
X0091069Y0180717D01*
X0091584Y0179473D01*
X0091584Y0178127D01*
X0091069Y0176883D01*
X0090117Y0175931D01*
X0088873Y0175416D01*
X0087527Y0175416D01*
X0086283Y0175931D01*
X0085614Y0176600D01*
X0085244Y0176600D01*
X0083956Y0177889D01*
X0069660Y0192184D01*
X0069335Y0192097D01*
X0054154Y0185018D01*
X0052221Y0183665D01*
X0040948Y0175426D01*
X0029054Y0163531D01*
X0023890Y0156855D01*
X0019878Y0151126D01*
X0011706Y0133930D01*
X0008300Y0121219D01*
X0008300Y0111930D01*
X0007070Y0110700D01*
X0006869Y0110499D01*
X0008300Y0112097D02*
X0052117Y0112097D01*
X0051316Y0113696D02*
X0008300Y0113696D01*
X0008300Y0115294D02*
X0051449Y0115294D01*
X0052507Y0116893D02*
X0008300Y0116893D01*
X0008300Y0118491D02*
X0069344Y0118491D01*
X0069527Y0118416D02*
X0070873Y0118416D01*
X0072117Y0118931D01*
X0073069Y0119883D01*
X0073584Y0121127D01*
X0073584Y0122473D01*
X0073069Y0123717D01*
X0072600Y0124186D01*
X0072600Y0132900D01*
X0096072Y0132900D01*
X0096072Y0126393D01*
X0097010Y0125456D01*
X0107390Y0125456D01*
X0108328Y0126393D01*
X0108328Y0126900D01*
X0115341Y0126900D01*
X0114783Y0126669D01*
X0113831Y0125717D01*
X0113316Y0124473D01*
X0113316Y0123127D01*
X0113831Y0121883D01*
X0114783Y0120931D01*
X0116027Y0120416D01*
X0116316Y0120416D01*
X0116316Y0119127D01*
X0116831Y0117883D01*
X0117783Y0116931D01*
X0119027Y0116416D01*
X0120373Y0116416D01*
X0121617Y0116931D01*
X0122569Y0117883D01*
X0123084Y0119127D01*
X0123084Y0120473D01*
X0122569Y0121717D01*
X0121617Y0122669D01*
X0120373Y0123184D01*
X0120084Y0123184D01*
X0120084Y0124473D01*
X0119569Y0125717D01*
X0118617Y0126669D01*
X0118059Y0126900D01*
X0121706Y0126900D01*
X0139800Y0108806D01*
X0139800Y0082837D01*
X0132375Y0075849D01*
X0132341Y0075835D01*
X0132029Y0075523D01*
X0131707Y0075220D01*
X0131692Y0075186D01*
X0131665Y0075159D01*
X0131497Y0074752D01*
X0131316Y0074350D01*
X0131314Y0074312D01*
X0131300Y0074277D01*
X0131300Y0073836D01*
X0131287Y0073396D01*
X0131300Y0073360D01*
X0131300Y0045186D01*
X0130831Y0044717D01*
X0130316Y0043473D01*
X0130316Y0042127D01*
X0130831Y0040883D01*
X0131783Y0039931D01*
X0133027Y0039416D01*
X0134373Y0039416D01*
X0135617Y0039931D01*
X0136569Y0040883D01*
X0137084Y0042127D01*
X0137084Y0043473D01*
X0136569Y0044717D01*
X0136100Y0045186D01*
X0136100Y0072763D01*
X0143525Y0079751D01*
X0143559Y0079765D01*
X0143871Y0080077D01*
X0144192Y0080380D01*
X0144208Y0080414D01*
X0144235Y0080441D01*
X0144403Y0080848D01*
X0144584Y0081250D01*
X0144586Y0081288D01*
X0144600Y0081323D01*
X0144600Y0081764D01*
X0144613Y0082204D01*
X0144600Y0082240D01*
X0144600Y0110277D01*
X0144235Y0111159D01*
X0124735Y0130659D01*
X0124059Y0131335D01*
X0123177Y0131700D01*
X0108328Y0131700D01*
X0108328Y0132900D01*
X0117064Y0132900D01*
X0117533Y0132431D01*
X0118777Y0131916D01*
X0120123Y0131916D01*
X0121367Y0132431D01*
X0122319Y0133383D01*
X0122834Y0134627D01*
X0122834Y0135973D01*
X0122319Y0137217D01*
X0121367Y0138169D01*
X0120123Y0138684D01*
X0118777Y0138684D01*
X0117533Y0138169D01*
X0117064Y0137700D01*
X0072600Y0137700D01*
X0076500Y0141600D01*
X0102082Y0141600D01*
X0102527Y0141416D01*
X0103873Y0141416D01*
X0105117Y0141931D01*
X0106069Y0142883D01*
X0106584Y0144127D01*
X0106584Y0145473D01*
X0106069Y0146717D01*
X0105117Y0147669D01*
X0103873Y0148184D01*
X0102527Y0148184D01*
X0102082Y0148000D01*
X0075400Y0148000D01*
X0075400Y0177214D01*
X0076069Y0177883D01*
X0076584Y0179127D01*
X0076584Y0180473D01*
X0076069Y0181717D01*
X0075117Y0182669D01*
X0073873Y0183184D01*
X0072527Y0183184D01*
X0071283Y0182669D01*
X0070331Y0181717D01*
X0069816Y0180473D01*
X0069816Y0179127D01*
X0070331Y0177883D01*
X0071000Y0177214D01*
X0071000Y0176840D01*
X0070285Y0177556D01*
X0069190Y0178009D01*
X0068005Y0178009D01*
X0066911Y0177556D01*
X0066073Y0176718D01*
X0065620Y0175624D01*
X0065620Y0174439D01*
X0066073Y0173344D01*
X0066911Y0172507D01*
X0068005Y0172053D01*
X0069190Y0172053D01*
X0070285Y0172507D01*
X0071000Y0173222D01*
X0071000Y0145151D01*
X0064287Y0138438D01*
X0063800Y0137262D01*
X0063800Y0136425D01*
X0052728Y0125353D01*
X0052283Y0125169D01*
X0051331Y0124217D01*
X0050816Y0122973D01*
X0050816Y0121627D01*
X0051331Y0120383D01*
X0052283Y0119431D01*
X0053527Y0118916D01*
X0054873Y0118916D01*
X0056117Y0119431D01*
X0057069Y0120383D01*
X0057253Y0120828D01*
X0067800Y0131375D01*
X0067800Y0124186D01*
X0067331Y0123717D01*
X0066816Y0122473D01*
X0066816Y0121127D01*
X0067331Y0119883D01*
X0068283Y0118931D01*
X0069527Y0118416D01*
X0071056Y0118491D02*
X0090579Y0118491D01*
X0090316Y0120090D02*
X0073155Y0120090D01*
X0073584Y0121688D02*
X0089026Y0121688D01*
X0088316Y0123287D02*
X0073247Y0123287D01*
X0072600Y0124885D02*
X0088486Y0124885D01*
X0089598Y0126484D02*
X0072600Y0126484D01*
X0072600Y0128082D02*
X0096072Y0128082D01*
X0096072Y0126484D02*
X0093802Y0126484D01*
X0094914Y0124885D02*
X0113486Y0124885D01*
X0113316Y0123287D02*
X0095084Y0123287D01*
X0095525Y0116893D02*
X0096072Y0116893D01*
X0096072Y0115294D02*
X0080642Y0115294D01*
X0081175Y0113696D02*
X0084125Y0113696D01*
X0084684Y0113981D02*
X0083503Y0113379D01*
X0080295Y0103507D01*
X0080897Y0102326D01*
X0083123Y0101602D01*
X0083123Y0098310D01*
X0082783Y0098169D01*
X0081831Y0097217D01*
X0081316Y0095973D01*
X0081316Y0094627D01*
X0081831Y0093383D01*
X0082783Y0092431D01*
X0083228Y0092247D01*
X0085823Y0089652D01*
X0085273Y0088895D01*
X0085480Y0087586D01*
X0093878Y0081484D01*
X0095188Y0081692D01*
X0097662Y0085098D01*
X0106738Y0085098D01*
X0109212Y0081692D01*
X0110522Y0081484D01*
X0118920Y0087586D01*
X0119127Y0088895D01*
X0114761Y0094904D01*
X0113452Y0095112D01*
X0108478Y0091498D01*
X0095922Y0091498D01*
X0091987Y0094357D01*
X0093173Y0094848D01*
X0094104Y0095779D01*
X0094104Y0094641D01*
X0095041Y0093704D01*
X0098335Y0093704D01*
X0099272Y0094641D01*
X0099272Y0108959D01*
X0098335Y0109896D01*
X0095041Y0109896D01*
X0094104Y0108959D01*
X0094104Y0102886D01*
X0091900Y0101280D01*
X0091893Y0101283D01*
X0090507Y0101283D01*
X0089523Y0100875D01*
X0089523Y0101803D01*
X0092350Y0110504D01*
X0091749Y0111685D01*
X0084684Y0113981D01*
X0085561Y0113696D02*
X0102472Y0113696D01*
X0104070Y0112097D02*
X0090481Y0112097D01*
X0092348Y0110499D02*
X0107500Y0110499D01*
X0105128Y0108900D02*
X0099272Y0108900D01*
X0099272Y0107302D02*
X0105128Y0107302D01*
X0105128Y0105703D02*
X0099272Y0105703D01*
X0099272Y0104105D02*
X0105128Y0104105D01*
X0105128Y0102506D02*
X0099272Y0102506D01*
X0099272Y0100908D02*
X0105128Y0100908D01*
X0105128Y0099309D02*
X0099272Y0099309D01*
X0099272Y0097711D02*
X0105128Y0097711D01*
X0105128Y0096112D02*
X0099272Y0096112D01*
X0099145Y0094514D02*
X0105255Y0094514D01*
X0110169Y0094514D02*
X0112629Y0094514D01*
X0115045Y0094514D02*
X0130800Y0094514D01*
X0130800Y0096112D02*
X0110296Y0096112D01*
X0110296Y0097711D02*
X0130800Y0097711D01*
X0130457Y0099309D02*
X0111735Y0099309D01*
X0113333Y0100908D02*
X0116617Y0100908D01*
X0116097Y0102506D02*
X0114932Y0102506D01*
X0121050Y0100908D02*
X0129459Y0100908D01*
X0128461Y0102506D02*
X0125970Y0102506D01*
X0133122Y0104105D02*
X0139800Y0104105D01*
X0139800Y0105703D02*
X0133816Y0105703D01*
X0133634Y0107302D02*
X0139800Y0107302D01*
X0139706Y0108900D02*
X0133115Y0108900D01*
X0132596Y0110499D02*
X0138107Y0110499D01*
X0136509Y0112097D02*
X0132076Y0112097D01*
X0131557Y0113696D02*
X0134910Y0113696D01*
X0133312Y0115294D02*
X0131037Y0115294D01*
X0130518Y0116893D02*
X0131713Y0116893D01*
X0130115Y0118491D02*
X0122821Y0118491D01*
X0123084Y0120090D02*
X0128516Y0120090D01*
X0126918Y0121688D02*
X0122581Y0121688D01*
X0120084Y0123287D02*
X0125319Y0123287D01*
X0123721Y0124885D02*
X0119914Y0124885D01*
X0118802Y0126484D02*
X0122122Y0126484D01*
X0122700Y0129300D02*
X0106924Y0129300D01*
X0102200Y0130107D01*
X0096072Y0129681D02*
X0072600Y0129681D01*
X0072600Y0131279D02*
X0096072Y0131279D01*
X0096072Y0132878D02*
X0072600Y0132878D01*
X0070200Y0135300D02*
X0119450Y0135300D01*
X0121863Y0137673D02*
X0177884Y0137673D01*
X0177800Y0136075D02*
X0122792Y0136075D01*
X0122772Y0134476D02*
X0177800Y0134476D01*
X0178318Y0132878D02*
X0121814Y0132878D01*
X0124115Y0131279D02*
X0178980Y0131279D01*
X0177881Y0129681D02*
X0180440Y0129681D01*
X0179117Y0129169D02*
X0180069Y0128217D01*
X0180584Y0126973D01*
X0180584Y0125627D01*
X0180069Y0124383D01*
X0179117Y0123431D01*
X0177873Y0122916D01*
X0176527Y0122916D01*
X0175283Y0123431D01*
X0174700Y0124014D01*
X0174117Y0123431D01*
X0172873Y0122916D01*
X0171527Y0122916D01*
X0170283Y0123431D01*
X0169331Y0124383D01*
X0168816Y0125627D01*
X0168816Y0126973D01*
X0169331Y0128217D01*
X0170283Y0129169D01*
X0171527Y0129684D01*
X0172873Y0129684D01*
X0174117Y0129169D01*
X0174700Y0128586D01*
X0175283Y0129169D01*
X0176527Y0129684D01*
X0177873Y0129684D01*
X0179117Y0129169D01*
X0180125Y0128082D02*
X0182882Y0128082D01*
X0180584Y0126484D02*
X0196762Y0126484D01*
X0196368Y0128082D02*
X0189518Y0128082D01*
X0191960Y0129681D02*
X0195974Y0129681D01*
X0195533Y0131279D02*
X0193420Y0131279D01*
X0194082Y0132878D02*
X0194927Y0132878D01*
X0197156Y0124885D02*
X0180277Y0124885D01*
X0178769Y0123287D02*
X0197550Y0123287D01*
X0197944Y0121688D02*
X0133706Y0121688D01*
X0135304Y0120090D02*
X0198338Y0120090D01*
X0198612Y0118491D02*
X0136903Y0118491D01*
X0138501Y0116893D02*
X0198807Y0116893D01*
X0199001Y0115294D02*
X0140100Y0115294D01*
X0141698Y0113696D02*
X0199195Y0113696D01*
X0199389Y0112097D02*
X0143297Y0112097D01*
X0144508Y0110499D02*
X0199583Y0110499D01*
X0199777Y0108900D02*
X0144600Y0108900D01*
X0144600Y0107302D02*
X0199934Y0107302D01*
X0199982Y0105703D02*
X0144600Y0105703D01*
X0144600Y0104105D02*
X0200030Y0104105D01*
X0198490Y0102506D02*
X0144600Y0102506D01*
X0144600Y0100908D02*
X0198068Y0100908D01*
X0197646Y0099309D02*
X0144600Y0099309D01*
X0144600Y0097711D02*
X0197224Y0097711D01*
X0196801Y0096112D02*
X0144600Y0096112D01*
X0144600Y0094514D02*
X0196379Y0094514D01*
X0195957Y0092915D02*
X0144600Y0092915D01*
X0144600Y0091317D02*
X0195535Y0091317D01*
X0195112Y0089718D02*
X0144600Y0089718D01*
X0144600Y0088120D02*
X0194690Y0088120D01*
X0194268Y0086521D02*
X0144600Y0086521D01*
X0144600Y0084923D02*
X0193846Y0084923D01*
X0193423Y0083324D02*
X0144600Y0083324D01*
X0144600Y0081726D02*
X0193001Y0081726D01*
X0192579Y0080127D02*
X0143924Y0080127D01*
X0142226Y0078529D02*
X0192157Y0078529D01*
X0191734Y0076930D02*
X0140527Y0076930D01*
X0138829Y0075332D02*
X0191312Y0075332D01*
X0190890Y0073733D02*
X0137131Y0073733D01*
X0136100Y0072134D02*
X0190468Y0072134D01*
X0190045Y0070536D02*
X0136100Y0070536D01*
X0136100Y0068937D02*
X0189623Y0068937D01*
X0189201Y0067339D02*
X0136100Y0067339D01*
X0136100Y0065740D02*
X0188779Y0065740D01*
X0188356Y0064142D02*
X0136100Y0064142D01*
X0136100Y0062543D02*
X0187934Y0062543D01*
X0187512Y0060945D02*
X0136100Y0060945D01*
X0136100Y0059346D02*
X0187090Y0059346D01*
X0186667Y0057748D02*
X0136100Y0057748D01*
X0136100Y0056149D02*
X0186245Y0056149D01*
X0185823Y0054551D02*
X0136100Y0054551D01*
X0136100Y0052952D02*
X0185401Y0052952D01*
X0184978Y0051354D02*
X0136100Y0051354D01*
X0136100Y0049755D02*
X0185017Y0049755D01*
X0183913Y0048157D02*
X0152629Y0048157D01*
X0152617Y0048169D02*
X0151373Y0048684D01*
X0150027Y0048684D01*
X0148783Y0048169D01*
X0147831Y0047217D01*
X0147316Y0045973D01*
X0147316Y0044627D01*
X0147831Y0043383D01*
X0148783Y0042431D01*
X0150027Y0041916D01*
X0151373Y0041916D01*
X0152617Y0042431D01*
X0153569Y0043383D01*
X0154084Y0044627D01*
X0154084Y0045973D01*
X0153569Y0047217D01*
X0152617Y0048169D01*
X0153842Y0046558D02*
X0182810Y0046558D01*
X0181706Y0044960D02*
X0154084Y0044960D01*
X0153547Y0043361D02*
X0180603Y0043361D01*
X0179500Y0041763D02*
X0136933Y0041763D01*
X0137084Y0043361D02*
X0147853Y0043361D01*
X0147316Y0044960D02*
X0136326Y0044960D01*
X0136100Y0046558D02*
X0147558Y0046558D01*
X0148771Y0048157D02*
X0136100Y0048157D01*
X0131300Y0048157D02*
X0121850Y0048157D01*
X0121850Y0049755D02*
X0131300Y0049755D01*
X0131300Y0051354D02*
X0121850Y0051354D01*
X0121850Y0052952D02*
X0131300Y0052952D01*
X0131300Y0054551D02*
X0121850Y0054551D01*
X0121850Y0056149D02*
X0131300Y0056149D01*
X0131300Y0057748D02*
X0121850Y0057748D01*
X0121850Y0059346D02*
X0131300Y0059346D01*
X0131300Y0060945D02*
X0121850Y0060945D01*
X0121850Y0062543D02*
X0131300Y0062543D01*
X0131300Y0064142D02*
X0121850Y0064142D01*
X0121850Y0065740D02*
X0131300Y0065740D01*
X0131300Y0067339D02*
X0121850Y0067339D01*
X0121850Y0068937D02*
X0131300Y0068937D01*
X0131300Y0070536D02*
X0121850Y0070536D01*
X0122815Y0072134D02*
X0131300Y0072134D01*
X0131297Y0073733D02*
X0124860Y0073733D01*
X0126904Y0075332D02*
X0131825Y0075332D01*
X0133524Y0076930D02*
X0128949Y0076930D01*
X0130994Y0078529D02*
X0135222Y0078529D01*
X0136921Y0080127D02*
X0133038Y0080127D01*
X0135067Y0081726D02*
X0138619Y0081726D01*
X0139800Y0083324D02*
X0135621Y0083324D01*
X0135600Y0084923D02*
X0139800Y0084923D01*
X0139800Y0086521D02*
X0135600Y0086521D01*
X0135600Y0088120D02*
X0139800Y0088120D01*
X0139800Y0089718D02*
X0135600Y0089718D01*
X0135600Y0091317D02*
X0139800Y0091317D01*
X0139800Y0092915D02*
X0135600Y0092915D01*
X0135600Y0094514D02*
X0139800Y0094514D01*
X0139800Y0096112D02*
X0135600Y0096112D01*
X0135600Y0097711D02*
X0139800Y0097711D01*
X0139800Y0099309D02*
X0135631Y0099309D01*
X0135134Y0100908D02*
X0139800Y0100908D01*
X0139800Y0102506D02*
X0134120Y0102506D01*
X0133200Y0099448D02*
X0126727Y0109816D01*
X0121847Y0115294D02*
X0113744Y0115294D01*
X0114084Y0113696D02*
X0116928Y0113696D01*
X0117875Y0116893D02*
X0112077Y0116893D01*
X0108328Y0118491D02*
X0116579Y0118491D01*
X0116316Y0120090D02*
X0108328Y0120090D01*
X0108328Y0121688D02*
X0114026Y0121688D01*
X0114598Y0126484D02*
X0108328Y0126484D01*
X0108328Y0132878D02*
X0117086Y0132878D01*
X0122700Y0129300D02*
X0142200Y0109800D01*
X0142200Y0081800D01*
X0133700Y0073800D01*
X0133700Y0042800D01*
X0130467Y0041763D02*
X0122476Y0041763D01*
X0122834Y0043361D02*
X0130316Y0043361D01*
X0131074Y0044960D02*
X0122426Y0044960D01*
X0121850Y0046558D02*
X0131300Y0046558D01*
X0131550Y0040164D02*
X0120723Y0040164D01*
X0118177Y0040164D02*
X0106973Y0040164D01*
X0108726Y0041763D02*
X0116424Y0041763D01*
X0116066Y0043361D02*
X0109084Y0043361D01*
X0108676Y0044960D02*
X0116474Y0044960D01*
X0117050Y0046558D02*
X0108100Y0046558D01*
X0108100Y0048157D02*
X0117050Y0048157D01*
X0117050Y0049755D02*
X0108100Y0049755D01*
X0108100Y0051354D02*
X0117050Y0051354D01*
X0117050Y0052952D02*
X0108100Y0052952D01*
X0108100Y0054551D02*
X0117050Y0054551D01*
X0117050Y0056149D02*
X0108100Y0056149D01*
X0108100Y0057748D02*
X0117050Y0057748D01*
X0117050Y0059346D02*
X0108100Y0059346D01*
X0108100Y0060945D02*
X0117050Y0060945D01*
X0117050Y0062543D02*
X0108100Y0062543D01*
X0108100Y0064142D02*
X0117050Y0064142D01*
X0117050Y0065740D02*
X0108100Y0065740D01*
X0108633Y0067339D02*
X0117050Y0067339D01*
X0117050Y0068937D02*
X0110232Y0068937D01*
X0111830Y0070536D02*
X0117050Y0070536D01*
X0117050Y0072134D02*
X0113651Y0072134D01*
X0113200Y0074931D02*
X0118813Y0078902D01*
X0116987Y0083324D02*
X0113054Y0083324D01*
X0114787Y0081726D02*
X0110854Y0081726D01*
X0109188Y0081726D02*
X0095212Y0081726D01*
X0093546Y0081726D02*
X0089613Y0081726D01*
X0088137Y0083324D02*
X0091346Y0083324D01*
X0089146Y0084923D02*
X0085213Y0084923D01*
X0086946Y0086521D02*
X0061767Y0086521D01*
X0061373Y0086684D02*
X0062617Y0086169D01*
X0063569Y0085217D01*
X0064084Y0083973D01*
X0064084Y0082627D01*
X0063569Y0081383D01*
X0062617Y0080431D01*
X0061373Y0079916D01*
X0060027Y0079916D01*
X0058783Y0080431D01*
X0057831Y0081383D01*
X0057316Y0082627D01*
X0057316Y0083973D01*
X0057831Y0085217D01*
X0058783Y0086169D01*
X0060027Y0086684D01*
X0061373Y0086684D01*
X0059633Y0086521D02*
X0054356Y0086521D01*
X0056076Y0088120D02*
X0085396Y0088120D01*
X0085756Y0089718D02*
X0057795Y0089718D01*
X0060841Y0091317D02*
X0084158Y0091317D01*
X0082299Y0092915D02*
X0062289Y0092915D01*
X0062584Y0094514D02*
X0081363Y0094514D01*
X0081373Y0096112D02*
X0063847Y0096112D01*
X0065705Y0097711D02*
X0082325Y0097711D01*
X0083123Y0099309D02*
X0066084Y0099309D01*
X0065697Y0100908D02*
X0083123Y0100908D01*
X0080805Y0102506D02*
X0063803Y0102506D01*
X0061597Y0102506D02*
X0056692Y0102506D01*
X0057868Y0104105D02*
X0059071Y0104105D01*
X0061329Y0104105D02*
X0075421Y0104105D01*
X0077869Y0104105D02*
X0080490Y0104105D01*
X0081009Y0105703D02*
X0078578Y0105703D01*
X0079098Y0107302D02*
X0081529Y0107302D01*
X0082048Y0108900D02*
X0079617Y0108900D01*
X0080137Y0110499D02*
X0082567Y0110499D01*
X0083087Y0112097D02*
X0080656Y0112097D01*
X0075277Y0110594D02*
X0066200Y0110300D01*
X0062816Y0110499D02*
X0061321Y0110499D01*
X0059079Y0110499D02*
X0058074Y0110499D01*
X0057283Y0112097D02*
X0063281Y0112097D01*
X0058084Y0113696D02*
X0071394Y0113696D01*
X0071914Y0115294D02*
X0057951Y0115294D01*
X0056893Y0116893D02*
X0072433Y0116893D01*
X0075722Y0116893D02*
X0091875Y0116893D01*
X0091829Y0108900D02*
X0094104Y0108900D01*
X0094104Y0107302D02*
X0091310Y0107302D01*
X0090790Y0105703D02*
X0094104Y0105703D01*
X0094104Y0104105D02*
X0090271Y0104105D01*
X0089751Y0102506D02*
X0093582Y0102506D01*
X0096688Y0101800D02*
X0091200Y0097800D01*
X0089602Y0100908D02*
X0089523Y0100908D01*
X0092367Y0094514D02*
X0094231Y0094514D01*
X0093971Y0092915D02*
X0110429Y0092915D01*
X0116206Y0092915D02*
X0130800Y0092915D01*
X0130800Y0091317D02*
X0117368Y0091317D01*
X0118529Y0089718D02*
X0130800Y0089718D01*
X0130800Y0088120D02*
X0119004Y0088120D01*
X0117454Y0086521D02*
X0130800Y0086521D01*
X0130800Y0084923D02*
X0122013Y0084923D01*
X0123175Y0083324D02*
X0129334Y0083324D01*
X0127290Y0081726D02*
X0124336Y0081726D01*
X0119187Y0084923D02*
X0115254Y0084923D01*
X0112586Y0080127D02*
X0091814Y0080127D01*
X0092692Y0078529D02*
X0111708Y0078529D01*
X0111839Y0076930D02*
X0091728Y0076930D01*
X0090567Y0075332D02*
X0110017Y0075332D01*
X0108231Y0073733D02*
X0102463Y0073733D01*
X0103810Y0072134D02*
X0106640Y0072134D01*
X0105042Y0070536D02*
X0104084Y0070536D01*
X0105700Y0067800D02*
X0110200Y0072300D01*
X0113200Y0074931D01*
X0119450Y0072550D02*
X0133200Y0083300D01*
X0133200Y0099448D01*
X0126767Y0116893D02*
X0121525Y0116893D01*
X0130509Y0124885D02*
X0169123Y0124885D01*
X0168816Y0126484D02*
X0128910Y0126484D01*
X0127312Y0128082D02*
X0169275Y0128082D01*
X0171519Y0129681D02*
X0125713Y0129681D01*
X0132107Y0123287D02*
X0170631Y0123287D01*
X0173769Y0123287D02*
X0175631Y0123287D01*
X0176519Y0129681D02*
X0172881Y0129681D01*
X0178546Y0139272D02*
X0074172Y0139272D01*
X0075770Y0140870D02*
X0179391Y0140870D01*
X0180990Y0142469D02*
X0105655Y0142469D01*
X0106560Y0144068D02*
X0184209Y0144068D01*
X0188191Y0144068D02*
X0190379Y0144068D01*
X0189540Y0145666D02*
X0106504Y0145666D01*
X0105522Y0147265D02*
X0188701Y0147265D01*
X0187862Y0148863D02*
X0075400Y0148863D01*
X0075400Y0150462D02*
X0187023Y0150462D01*
X0186184Y0152060D02*
X0075400Y0152060D01*
X0075400Y0153659D02*
X0185145Y0153659D01*
X0184042Y0155257D02*
X0075400Y0155257D01*
X0075400Y0156856D02*
X0182938Y0156856D01*
X0181835Y0158454D02*
X0075400Y0158454D01*
X0075400Y0160053D02*
X0180731Y0160053D01*
X0179628Y0161651D02*
X0075400Y0161651D01*
X0075400Y0163250D02*
X0178315Y0163250D01*
X0176899Y0164848D02*
X0075400Y0164848D01*
X0075400Y0166447D02*
X0108628Y0166447D01*
X0108248Y0166827D02*
X0109227Y0165848D01*
X0110507Y0165317D01*
X0111893Y0165317D01*
X0113173Y0165848D01*
X0114152Y0166827D01*
X0114683Y0168107D01*
X0114683Y0169493D01*
X0114152Y0170773D01*
X0113625Y0171300D01*
X0114152Y0171827D01*
X0114683Y0173107D01*
X0114683Y0174493D01*
X0114152Y0175773D01*
X0113173Y0176752D01*
X0111893Y0177283D01*
X0110507Y0177283D01*
X0109227Y0176752D01*
X0108248Y0175773D01*
X0107717Y0174493D01*
X0107717Y0173107D01*
X0108248Y0171827D01*
X0108775Y0171300D01*
X0108248Y0170773D01*
X0107717Y0169493D01*
X0107717Y0168107D01*
X0108248Y0166827D01*
X0107743Y0168045D02*
X0075400Y0168045D01*
X0075400Y0169644D02*
X0107780Y0169644D01*
X0108717Y0171242D02*
X0075400Y0171242D01*
X0075400Y0172841D02*
X0107828Y0172841D01*
X0107717Y0174439D02*
X0075400Y0174439D01*
X0075400Y0176038D02*
X0086176Y0176038D01*
X0084208Y0177636D02*
X0075822Y0177636D01*
X0076584Y0179235D02*
X0082610Y0179235D01*
X0081011Y0180833D02*
X0076435Y0180833D01*
X0075354Y0182432D02*
X0079412Y0182432D01*
X0077814Y0184030D02*
X0052743Y0184030D01*
X0050534Y0182432D02*
X0071046Y0182432D01*
X0069965Y0180833D02*
X0048347Y0180833D01*
X0046160Y0179235D02*
X0069816Y0179235D01*
X0070090Y0177636D02*
X0070578Y0177636D01*
X0067105Y0177636D02*
X0043973Y0177636D01*
X0041786Y0176038D02*
X0065791Y0176038D01*
X0065620Y0174439D02*
X0039962Y0174439D01*
X0038363Y0172841D02*
X0066577Y0172841D01*
X0070619Y0172841D02*
X0071000Y0172841D01*
X0071000Y0171242D02*
X0036765Y0171242D01*
X0035166Y0169644D02*
X0053382Y0169644D01*
X0053856Y0169840D02*
X0052761Y0169387D01*
X0051923Y0168549D01*
X0051470Y0167454D01*
X0051470Y0166270D01*
X0051923Y0165175D01*
X0052761Y0164337D01*
X0053856Y0163884D01*
X0055040Y0163884D01*
X0056135Y0164337D01*
X0056973Y0165175D01*
X0057426Y0166270D01*
X0057426Y0167454D01*
X0056973Y0168549D01*
X0056135Y0169387D01*
X0055040Y0169840D01*
X0053856Y0169840D01*
X0055514Y0169644D02*
X0071000Y0169644D01*
X0071000Y0168045D02*
X0057181Y0168045D01*
X0057426Y0166447D02*
X0071000Y0166447D01*
X0071000Y0164848D02*
X0056646Y0164848D01*
X0052250Y0164848D02*
X0030371Y0164848D01*
X0028836Y0163250D02*
X0071000Y0163250D01*
X0071000Y0161651D02*
X0027599Y0161651D01*
X0026363Y0160053D02*
X0071000Y0160053D01*
X0071000Y0158454D02*
X0061072Y0158454D01*
X0061811Y0157715D02*
X0060320Y0159206D01*
X0058372Y0160013D01*
X0056264Y0160013D01*
X0054316Y0159206D01*
X0052825Y0157715D01*
X0052018Y0155767D01*
X0052018Y0146258D01*
X0052825Y0144310D01*
X0054316Y0142819D01*
X0056264Y0142013D01*
X0058372Y0142013D01*
X0060320Y0142819D01*
X0061811Y0144310D01*
X0062618Y0146258D01*
X0062618Y0155767D01*
X0061811Y0157715D01*
X0062167Y0156856D02*
X0071000Y0156856D01*
X0071000Y0155257D02*
X0062618Y0155257D01*
X0062618Y0153659D02*
X0071000Y0153659D01*
X0071000Y0152060D02*
X0062618Y0152060D01*
X0062618Y0150462D02*
X0071000Y0150462D01*
X0071000Y0148863D02*
X0062618Y0148863D01*
X0062618Y0147265D02*
X0071000Y0147265D01*
X0071000Y0145666D02*
X0062373Y0145666D01*
X0061568Y0144068D02*
X0069917Y0144068D01*
X0068318Y0142469D02*
X0059474Y0142469D01*
X0055162Y0142469D02*
X0015764Y0142469D01*
X0015004Y0140870D02*
X0066720Y0140870D01*
X0065121Y0139272D02*
X0014245Y0139272D01*
X0013485Y0137673D02*
X0063970Y0137673D01*
X0063449Y0136075D02*
X0012725Y0136075D01*
X0011966Y0134476D02*
X0061851Y0134476D01*
X0060252Y0132878D02*
X0011424Y0132878D01*
X0010996Y0131279D02*
X0058654Y0131279D01*
X0057055Y0129681D02*
X0010567Y0129681D01*
X0010139Y0128082D02*
X0055457Y0128082D01*
X0053858Y0126484D02*
X0009711Y0126484D01*
X0009283Y0124885D02*
X0051999Y0124885D01*
X0050946Y0123287D02*
X0008854Y0123287D01*
X0008426Y0121688D02*
X0050816Y0121688D01*
X0051624Y0120090D02*
X0008300Y0120090D01*
X0016524Y0144068D02*
X0053068Y0144068D01*
X0052263Y0145666D02*
X0017283Y0145666D01*
X0018043Y0147265D02*
X0028810Y0147265D01*
X0029227Y0146848D02*
X0030507Y0146317D01*
X0031893Y0146317D01*
X0033173Y0146848D01*
X0034152Y0147827D01*
X0034683Y0149107D01*
X0034683Y0150493D01*
X0034152Y0151773D01*
X0033173Y0152752D01*
X0031893Y0153283D01*
X0030507Y0153283D01*
X0029227Y0152752D01*
X0028248Y0151773D01*
X0027717Y0150493D01*
X0027717Y0149107D01*
X0028248Y0147827D01*
X0029227Y0146848D01*
X0027818Y0148863D02*
X0018803Y0148863D01*
X0019562Y0150462D02*
X0027717Y0150462D01*
X0028535Y0152060D02*
X0020532Y0152060D01*
X0021651Y0153659D02*
X0052018Y0153659D01*
X0052018Y0155257D02*
X0022771Y0155257D01*
X0023890Y0156856D02*
X0052469Y0156856D01*
X0053564Y0158454D02*
X0025127Y0158454D01*
X0033865Y0152060D02*
X0052018Y0152060D01*
X0052018Y0150462D02*
X0034683Y0150462D01*
X0034582Y0148863D02*
X0052018Y0148863D01*
X0052018Y0147265D02*
X0033590Y0147265D01*
X0031969Y0166447D02*
X0051470Y0166447D01*
X0051715Y0168045D02*
X0033568Y0168045D01*
X0055464Y0185629D02*
X0076215Y0185629D01*
X0074617Y0187227D02*
X0058892Y0187227D01*
X0062320Y0188826D02*
X0073018Y0188826D01*
X0071420Y0190424D02*
X0065748Y0190424D01*
X0069176Y0192023D02*
X0069821Y0192023D01*
X0079241Y0188826D02*
X0146665Y0188826D01*
X0149711Y0187227D02*
X0080839Y0187227D01*
X0082438Y0185629D02*
X0152756Y0185629D01*
X0155094Y0184030D02*
X0084037Y0184030D01*
X0085635Y0182432D02*
X0157410Y0182432D01*
X0159726Y0180833D02*
X0090953Y0180833D01*
X0091584Y0179235D02*
X0162041Y0179235D01*
X0163964Y0177636D02*
X0091381Y0177636D01*
X0090224Y0176038D02*
X0108512Y0176038D01*
X0113887Y0176038D02*
X0165768Y0176038D01*
X0167573Y0174439D02*
X0144847Y0174439D01*
X0144617Y0174669D02*
X0143373Y0175184D01*
X0142027Y0175184D01*
X0140783Y0174669D01*
X0139831Y0173717D01*
X0139316Y0172473D01*
X0139316Y0171127D01*
X0139831Y0169883D01*
X0140783Y0168931D01*
X0142027Y0168416D01*
X0143373Y0168416D01*
X0144617Y0168931D01*
X0145569Y0169883D01*
X0146084Y0171127D01*
X0146084Y0172473D01*
X0145569Y0173717D01*
X0144617Y0174669D01*
X0145932Y0172841D02*
X0169377Y0172841D01*
X0171181Y0171242D02*
X0146084Y0171242D01*
X0145330Y0169644D02*
X0172650Y0169644D01*
X0174066Y0168045D02*
X0114657Y0168045D01*
X0114620Y0169644D02*
X0140070Y0169644D01*
X0139316Y0171242D02*
X0113683Y0171242D01*
X0114572Y0172841D02*
X0139468Y0172841D01*
X0140553Y0174439D02*
X0114683Y0174439D01*
X0113772Y0166447D02*
X0175482Y0166447D01*
X0143619Y0190424D02*
X0125601Y0190424D01*
X0125617Y0190431D02*
X0126569Y0191383D01*
X0127084Y0192627D01*
X0127084Y0193973D01*
X0126569Y0195217D01*
X0125617Y0196169D01*
X0124373Y0196684D01*
X0123027Y0196684D01*
X0121783Y0196169D01*
X0120831Y0195217D01*
X0120316Y0193973D01*
X0120316Y0192627D01*
X0120831Y0191383D01*
X0121783Y0190431D01*
X0123027Y0189916D01*
X0124373Y0189916D01*
X0125617Y0190431D01*
X0126834Y0192023D02*
X0139880Y0192023D01*
X0135665Y0193621D02*
X0127084Y0193621D01*
X0126566Y0195220D02*
X0131450Y0195220D01*
X0125032Y0196818D02*
X0079368Y0196818D01*
X0080994Y0195220D02*
X0103334Y0195220D01*
X0103783Y0195669D02*
X0102831Y0194717D01*
X0102316Y0193473D01*
X0102316Y0192127D01*
X0102831Y0190883D01*
X0103783Y0189931D01*
X0105027Y0189416D01*
X0106373Y0189416D01*
X0107617Y0189931D01*
X0108569Y0190883D01*
X0109084Y0192127D01*
X0109084Y0193473D01*
X0108569Y0194717D01*
X0107617Y0195669D01*
X0106373Y0196184D01*
X0105027Y0196184D01*
X0103783Y0195669D01*
X0102377Y0193621D02*
X0081478Y0193621D01*
X0081260Y0192023D02*
X0102359Y0192023D01*
X0103290Y0190424D02*
X0080167Y0190424D01*
X0087193Y0198417D02*
X0117207Y0198417D01*
X0120834Y0195220D02*
X0108066Y0195220D01*
X0109023Y0193621D02*
X0120316Y0193621D01*
X0120566Y0192023D02*
X0109041Y0192023D01*
X0108110Y0190424D02*
X0121799Y0190424D01*
X0070200Y0135300D02*
X0070200Y0121800D01*
X0066816Y0121688D02*
X0058114Y0121688D01*
X0056776Y0120090D02*
X0067245Y0120090D01*
X0067153Y0123287D02*
X0059712Y0123287D01*
X0061311Y0124885D02*
X0067800Y0124885D01*
X0067800Y0126484D02*
X0062909Y0126484D01*
X0064508Y0128082D02*
X0067800Y0128082D01*
X0067800Y0129681D02*
X0066106Y0129681D01*
X0067705Y0131279D02*
X0067800Y0131279D01*
X0067805Y0107302D02*
X0069317Y0107302D01*
X0070502Y0105703D02*
X0063202Y0105703D01*
X0063584Y0107302D02*
X0064595Y0107302D01*
X0050745Y0089718D02*
X0005228Y0089718D01*
X0005422Y0088120D02*
X0049025Y0088120D01*
X0047305Y0086521D02*
X0005616Y0086521D01*
X0005810Y0084923D02*
X0045585Y0084923D01*
X0043865Y0083324D02*
X0006108Y0083324D01*
X0006502Y0081726D02*
X0042145Y0081726D01*
X0040425Y0080127D02*
X0006896Y0080127D01*
X0007290Y0078529D02*
X0038705Y0078529D01*
X0036985Y0076930D02*
X0007684Y0076930D01*
X0008078Y0075332D02*
X0014432Y0075332D01*
X0012254Y0073733D02*
X0008472Y0073733D01*
X0008938Y0072134D02*
X0010903Y0072134D01*
X0010241Y0070536D02*
X0009544Y0070536D01*
X0021968Y0075332D02*
X0035266Y0075332D01*
X0033546Y0073733D02*
X0024146Y0073733D01*
X0025497Y0072134D02*
X0031826Y0072134D01*
X0030106Y0070536D02*
X0026159Y0070536D01*
X0026600Y0068937D02*
X0028386Y0068937D01*
X0026666Y0067339D02*
X0026600Y0067339D01*
X0030277Y0064142D02*
X0035386Y0064142D01*
X0035316Y0063973D02*
X0035316Y0062627D01*
X0035831Y0061383D01*
X0036783Y0060431D01*
X0038027Y0059916D01*
X0039373Y0059916D01*
X0040617Y0060431D01*
X0041569Y0061383D01*
X0042084Y0062627D01*
X0042084Y0063973D01*
X0041569Y0065217D01*
X0040617Y0066169D01*
X0039373Y0066684D01*
X0038027Y0066684D01*
X0036783Y0066169D01*
X0035831Y0065217D01*
X0035316Y0063973D01*
X0035350Y0062543D02*
X0028557Y0062543D01*
X0026837Y0060945D02*
X0036269Y0060945D01*
X0035653Y0057748D02*
X0023397Y0057748D01*
X0021677Y0056149D02*
X0034054Y0056149D01*
X0033971Y0054551D02*
X0019957Y0054551D01*
X0020898Y0052952D02*
X0033971Y0052952D01*
X0029259Y0051354D02*
X0022005Y0051354D01*
X0023145Y0049755D02*
X0027660Y0049755D01*
X0026900Y0048157D02*
X0024781Y0048157D01*
X0026418Y0046558D02*
X0026900Y0046558D01*
X0032200Y0046800D02*
X0039200Y0046800D01*
X0046342Y0046800D02*
X0046342Y0050442D01*
X0064200Y0068300D01*
X0095700Y0068300D01*
X0098700Y0065300D01*
X0101883Y0064142D02*
X0103300Y0064142D01*
X0103300Y0065740D02*
X0102084Y0065740D01*
X0101447Y0067339D02*
X0103300Y0067339D01*
X0105700Y0067800D02*
X0105700Y0043300D01*
X0103300Y0052952D02*
X0052246Y0052952D01*
X0053845Y0054551D02*
X0103300Y0054551D01*
X0103300Y0056149D02*
X0055443Y0056149D01*
X0057042Y0057748D02*
X0103300Y0057748D01*
X0103300Y0059346D02*
X0058641Y0059346D01*
X0060239Y0060945D02*
X0103300Y0060945D01*
X0103300Y0062543D02*
X0100729Y0062543D01*
X0096671Y0062543D02*
X0061838Y0062543D01*
X0063436Y0064142D02*
X0095517Y0064142D01*
X0094865Y0065740D02*
X0065035Y0065740D01*
X0063200Y0070800D02*
X0100700Y0070800D01*
X0098937Y0073733D02*
X0089405Y0073733D01*
X0084788Y0073733D02*
X0040596Y0073733D01*
X0038876Y0072134D02*
X0061155Y0072134D01*
X0059966Y0070536D02*
X0037156Y0070536D01*
X0035437Y0068937D02*
X0058368Y0068937D01*
X0056769Y0067339D02*
X0033717Y0067339D01*
X0031997Y0065740D02*
X0036354Y0065740D01*
X0041046Y0065740D02*
X0055171Y0065740D01*
X0053572Y0064142D02*
X0042014Y0064142D01*
X0042050Y0062543D02*
X0051974Y0062543D01*
X0050375Y0060945D02*
X0041131Y0060945D01*
X0042890Y0057748D02*
X0047178Y0057748D01*
X0048777Y0059346D02*
X0025117Y0059346D01*
X0042316Y0075332D02*
X0082588Y0075332D01*
X0080388Y0076930D02*
X0044036Y0076930D01*
X0045756Y0078529D02*
X0075685Y0078529D01*
X0074523Y0080127D02*
X0061883Y0080127D01*
X0059517Y0080127D02*
X0047476Y0080127D01*
X0049196Y0081726D02*
X0057689Y0081726D01*
X0057316Y0083324D02*
X0050916Y0083324D01*
X0052636Y0084923D02*
X0057709Y0084923D01*
X0063691Y0084923D02*
X0082387Y0084923D01*
X0086767Y0081300D02*
X0077700Y0081300D01*
X0074316Y0081726D02*
X0063711Y0081726D01*
X0064084Y0083324D02*
X0074938Y0083324D01*
X0085587Y0078902D02*
X0086767Y0081300D01*
X0096374Y0083324D02*
X0108026Y0083324D01*
X0106865Y0084923D02*
X0097535Y0084923D01*
X0119450Y0072550D02*
X0119450Y0043300D01*
X0135850Y0040164D02*
X0178150Y0040164D01*
X0173901Y0035369D02*
X0147834Y0035369D01*
X0147687Y0033770D02*
X0172485Y0033770D01*
X0090189Y0041763D02*
X0079949Y0041763D01*
X0080584Y0043361D02*
X0088633Y0043361D01*
X0088316Y0044960D02*
X0080383Y0044960D01*
X0079228Y0046558D02*
X0088765Y0046558D01*
X0045580Y0056149D02*
X0044488Y0056149D01*
D19*
X0047700Y0063800D03*
X0051200Y0066800D03*
X0038700Y0063300D03*
X0060700Y0083300D03*
X0059200Y0094300D03*
X0062700Y0099300D03*
X0060200Y0107300D03*
X0054700Y0105300D03*
X0054700Y0109800D03*
X0054700Y0114300D03*
X0054200Y0122300D03*
X0066200Y0110300D03*
X0070200Y0121800D03*
X0091700Y0123800D03*
X0093700Y0119800D03*
X0110700Y0113800D03*
X0119700Y0119800D03*
X0116700Y0123800D03*
X0119450Y0135300D03*
X0114700Y0146800D03*
X0103200Y0144800D03*
X0133200Y0134300D03*
X0138200Y0124300D03*
X0157200Y0133300D03*
X0163200Y0133300D03*
X0172200Y0126300D03*
X0177200Y0126300D03*
X0142700Y0171800D03*
X0123700Y0193300D03*
X0105700Y0192800D03*
X0088200Y0178800D03*
X0073200Y0179800D03*
X0065200Y0153800D03*
X0064200Y0146300D03*
X0023200Y0105800D03*
X0010200Y0095800D03*
X0021700Y0086300D03*
X0008200Y0080800D03*
X0062700Y0048800D03*
X0077200Y0043800D03*
X0073700Y0034800D03*
X0088200Y0034800D03*
X0091700Y0044800D03*
X0102200Y0034800D03*
X0105700Y0043300D03*
X0115700Y0034800D03*
X0119450Y0043300D03*
X0130200Y0034800D03*
X0133700Y0042800D03*
X0144450Y0034800D03*
X0150700Y0045300D03*
X0100700Y0070800D03*
X0098700Y0065300D03*
X0077700Y0081300D03*
X0084700Y0095300D03*
X0113200Y0098300D03*
D20*
X0109700Y0101800D02*
X0107712Y0101800D01*
X0063200Y0070800D02*
X0039200Y0046800D01*
X0010200Y0095800D02*
X0004525Y0095800D01*
X0004525Y0107800D01*
X0004844Y0111444D01*
X0006200Y0112800D01*
X0006200Y0121495D01*
X0009727Y0134659D01*
X0018057Y0152186D01*
X0022198Y0158101D01*
X0027474Y0164922D01*
X0039578Y0177026D01*
X0050999Y0185373D01*
X0053100Y0186844D01*
X0068614Y0194078D01*
X0070399Y0194556D01*
D21*
X0077700Y0193300D03*
D22*
X0111200Y0173800D03*
X0111200Y0168800D03*
X0091200Y0097800D03*
X0031200Y0149800D03*
D23*
X0054200Y0122300D02*
X0067000Y0135100D01*
X0067000Y0136625D01*
X0075175Y0144800D01*
X0103200Y0144800D01*
X0102200Y0118493D02*
X0106893Y0113800D01*
X0110700Y0113800D01*
X0110700Y0110300D01*
X0114450Y0106550D01*
X0109700Y0101800D01*
X0114450Y0106550D02*
X0114905Y0107005D01*
X0118395Y0107109D01*
X0111987Y0088298D02*
X0092413Y0088298D01*
X0091702Y0088298D02*
X0084700Y0095300D01*
X0086323Y0096923D01*
X0086323Y0107005D01*
D24*
X0075175Y0144800D02*
X0074200Y0144800D01*
X0074140Y0144802D01*
X0074079Y0144807D01*
X0074020Y0144816D01*
X0073961Y0144829D01*
X0073902Y0144845D01*
X0073845Y0144865D01*
X0073790Y0144888D01*
X0073735Y0144915D01*
X0073683Y0144944D01*
X0073632Y0144977D01*
X0073583Y0145013D01*
X0073537Y0145051D01*
X0073493Y0145093D01*
X0073451Y0145137D01*
X0073413Y0145183D01*
X0073377Y0145232D01*
X0073344Y0145283D01*
X0073315Y0145335D01*
X0073288Y0145390D01*
X0073265Y0145445D01*
X0073245Y0145502D01*
X0073229Y0145561D01*
X0073216Y0145620D01*
X0073207Y0145679D01*
X0073202Y0145740D01*
X0073200Y0145800D01*
X0073200Y0179800D01*
X0086156Y0178800D02*
X0088200Y0178800D01*
X0086156Y0178800D02*
X0070399Y0194556D01*
D25*
X0091702Y0088298D02*
X0092413Y0088298D01*
M02*
