%
M48
M72
T01C0.01969
T02C0.02165
T03C0.02756
T04C0.04000
T05C0.04400
T06C0.13600
%
T01
X62700Y48800
X77200Y43800
X73700Y34800
X88200Y34800
X91700Y44800
X102200Y34800
X105700Y43300
X115700Y34800
X119450Y43300
X130200Y34800
X133700Y42800
X144450Y34800
X150700Y45300
X100700Y70800
X98700Y65300
X77700Y81300
X84700Y95300
X66200Y110300
X60200Y107300
X54700Y105300
X54700Y109800
X54700Y114300
X54200Y122300
X70200Y121800
X91700Y123800
X93700Y119800
X110700Y113800
X119700Y119800
X116700Y123800
X119450Y135300
X114700Y146800
X103200Y144800
X133200Y134300
X138200Y124300
X157200Y133300
X163200Y133300
X172200Y126300
X177200Y126300
X142700Y171800
X123700Y193300
X105700Y192800
X88200Y178800
X73200Y179800
X65200Y153800
X64200Y146300
X23200Y105800
X10200Y95800
X21700Y86300
X8200Y80800
X38700Y63300
X47700Y63800
X51200Y66800
X60700Y83300
X59200Y94300
X62700Y99300
X113200Y98300
T02
X91200Y97800
X31200Y149800
X111200Y168800
X111200Y173800
T03
X77700Y193300
X68598Y175031
X54448Y166862
T04
X39271Y39729
X32200Y46800
X39271Y53871
X46342Y46800
X53413Y39729
X46342Y32658
T05
X47318Y151013
X57318Y151013
T06
X18200Y67800
X186200Y135800
M30
