G75*
%MOIN*%
%OFA0B0*%
%FSLAX25Y25*%
%IPPOS*%
%LPD*%
%AMOC8*
5,1,8,0,0,1.08239X$1,22.5*
%
%ADD10C,0.00300*%
%ADD11C,0.00400*%
%ADD12C,0.00800*%
%ADD13C,0.01000*%
%ADD14C,0.00000*%
%ADD15C,0.00200*%
%ADD16C,0.00500*%
%ADD17C,0.00600*%
%ADD18R,0.00787X0.00787*%
%ADD19R,0.04331X0.02362*%
%ADD20C,0.00787*%
%ADD21C,0.00100*%
%ADD22C,0.01181*%
D10*
X0043028Y0057804D02*
X0045081Y0059857D01*
X0043028Y0059857D01*
X0044397Y0058488D01*
X0041287Y0060230D02*
X0042997Y0061940D01*
X0042655Y0062282D02*
X0043339Y0061598D01*
X0041287Y0060230D02*
X0040603Y0060230D01*
X0040261Y0060572D01*
X0040261Y0061256D01*
X0074950Y0107950D02*
X0075917Y0107950D01*
X0075434Y0107950D02*
X0075434Y0110852D01*
X0075917Y0110852D02*
X0074950Y0110852D01*
X0076914Y0110369D02*
X0076914Y0108434D01*
X0077398Y0107950D01*
X0078366Y0107950D01*
X0078849Y0108434D01*
X0079861Y0108434D02*
X0080345Y0107950D01*
X0081312Y0107950D01*
X0081796Y0108434D01*
X0081796Y0109401D01*
X0081312Y0109885D01*
X0080828Y0109885D01*
X0079861Y0109401D01*
X0079861Y0110852D01*
X0081796Y0110852D01*
X0078849Y0110369D02*
X0078366Y0110852D01*
X0077398Y0110852D01*
X0076914Y0110369D01*
X0121350Y0109950D02*
X0123285Y0109950D01*
X0124297Y0109950D02*
X0126231Y0109950D01*
X0127243Y0109950D02*
X0128694Y0109950D01*
X0129178Y0110434D01*
X0129178Y0112369D01*
X0128694Y0112852D01*
X0127243Y0112852D01*
X0127243Y0109950D01*
X0125264Y0111401D02*
X0124297Y0111401D01*
X0124297Y0112852D02*
X0124297Y0109950D01*
X0121350Y0109950D02*
X0121350Y0112852D01*
X0124297Y0112852D02*
X0126231Y0112852D01*
X0093622Y0163560D02*
X0092387Y0163560D01*
X0091770Y0164177D01*
X0091770Y0166029D01*
X0094856Y0166029D01*
X0095473Y0165412D01*
X0095473Y0164795D01*
X0094239Y0164177D02*
X0094239Y0166029D01*
X0094239Y0167243D02*
X0091770Y0167243D01*
X0091770Y0169095D01*
X0092387Y0169712D01*
X0094239Y0169712D01*
X0093622Y0170927D02*
X0092387Y0170927D01*
X0091770Y0171544D01*
X0091770Y0173395D01*
X0090536Y0173395D02*
X0094239Y0173395D01*
X0094239Y0171544D01*
X0093622Y0170927D01*
X0094239Y0164177D02*
X0093622Y0163560D01*
X0060361Y0186984D02*
X0058685Y0186016D01*
X0059523Y0186500D02*
X0058072Y0189014D01*
X0057718Y0187692D01*
X0056842Y0187186D02*
X0056665Y0186526D01*
X0055408Y0185800D01*
X0054774Y0184875D02*
X0054113Y0185052D01*
X0053275Y0184569D01*
X0052614Y0184746D01*
X0052372Y0185165D01*
X0052549Y0185825D01*
X0053387Y0186309D01*
X0054048Y0186132D01*
X0054682Y0187057D02*
X0055939Y0187782D01*
X0056600Y0187605D01*
X0056842Y0187186D01*
X0056665Y0186526D02*
X0057325Y0186349D01*
X0057567Y0185930D01*
X0057390Y0185269D01*
X0056133Y0184543D01*
X0054682Y0187057D01*
X0054774Y0184875D02*
X0055016Y0184456D01*
X0054838Y0183796D01*
X0054001Y0183312D01*
X0053340Y0183489D01*
X0052464Y0182983D02*
X0052287Y0182322D01*
X0051449Y0181839D01*
X0050788Y0182016D01*
X0049579Y0184110D01*
X0051254Y0185078D02*
X0052464Y0182983D01*
X0186852Y0126300D02*
X0187761Y0126631D01*
X0187307Y0126466D02*
X0188134Y0124193D01*
X0187845Y0123573D01*
X0187390Y0123407D01*
X0186770Y0123696D01*
X0189539Y0124704D02*
X0190159Y0124415D01*
X0191068Y0124746D01*
X0191357Y0125366D01*
X0191192Y0125821D01*
X0190572Y0126110D01*
X0190117Y0125944D01*
X0190572Y0126110D02*
X0190861Y0126730D01*
X0190696Y0127184D01*
X0190076Y0127473D01*
X0189166Y0127143D01*
X0188877Y0126522D01*
D11*
X0171537Y0152717D02*
X0169524Y0155034D01*
X0173854Y0154731D01*
X0174433Y0155234D01*
X0174508Y0156317D01*
X0173502Y0157475D01*
X0172419Y0157551D01*
X0171991Y0159212D02*
X0170985Y0160371D01*
X0171488Y0159791D02*
X0168592Y0157274D01*
X0167510Y0157350D01*
X0167007Y0157929D01*
X0167082Y0159012D01*
X0158239Y0098481D02*
X0157299Y0097939D01*
X0156902Y0096456D01*
X0157444Y0095516D01*
X0156306Y0094233D02*
X0155909Y0092750D01*
X0155366Y0093690D02*
X0158331Y0092896D01*
X0159271Y0093438D01*
X0159668Y0094921D02*
X0155221Y0096112D01*
X0158239Y0098481D02*
X0160462Y0097885D01*
X0164305Y0091986D02*
X0163908Y0090503D01*
X0164450Y0089563D01*
X0165535Y0087684D02*
X0164741Y0084719D01*
X0163113Y0087538D01*
X0167560Y0086347D01*
X0168156Y0088570D02*
X0165986Y0092330D01*
X0165245Y0092528D01*
X0164305Y0091986D01*
X0168950Y0091535D02*
X0168156Y0088570D01*
X0164344Y0083237D02*
X0163549Y0080272D01*
X0160929Y0079386D02*
X0165376Y0078194D01*
X0160134Y0076421D01*
X0164581Y0075229D01*
X0164184Y0073747D02*
X0162305Y0072662D01*
X0162503Y0073403D02*
X0161907Y0071179D01*
X0163390Y0070782D02*
X0158943Y0071974D01*
X0159539Y0074197D01*
X0160478Y0074740D01*
X0161961Y0074343D01*
X0162503Y0073403D01*
X0154703Y0076391D02*
X0155100Y0077874D01*
X0154703Y0076391D02*
X0153763Y0075849D01*
X0152281Y0076246D01*
X0151738Y0077186D01*
X0152135Y0078668D01*
X0153075Y0079211D01*
X0153816Y0079012D01*
X0153022Y0076047D01*
X0154107Y0074168D02*
X0151142Y0074962D01*
X0150348Y0071997D02*
X0152572Y0071402D01*
X0153511Y0071944D01*
X0154107Y0074168D01*
X0152916Y0069721D02*
X0152518Y0068238D01*
X0152717Y0068980D02*
X0148270Y0070171D01*
X0148071Y0069430D01*
X0148415Y0067749D02*
X0149157Y0067550D01*
X0149699Y0066611D01*
X0149103Y0064387D01*
X0146880Y0064983D02*
X0147476Y0067206D01*
X0148415Y0067749D01*
X0149699Y0066611D02*
X0150639Y0067153D01*
X0151380Y0066955D01*
X0151923Y0066015D01*
X0151327Y0063791D01*
X0146880Y0064983D01*
X0152731Y0080892D02*
X0153128Y0082374D01*
X0152189Y0081831D02*
X0155153Y0081037D01*
X0156093Y0081580D01*
X0155749Y0083260D02*
X0156689Y0083803D01*
X0157086Y0085285D01*
X0156544Y0086225D01*
X0155061Y0086622D01*
X0154121Y0086080D01*
X0153724Y0084597D01*
X0154267Y0083658D01*
X0155749Y0083260D01*
X0156941Y0087708D02*
X0157880Y0088250D01*
X0158278Y0089732D01*
X0157735Y0090672D01*
X0156253Y0091069D01*
X0155313Y0090527D01*
X0154916Y0089044D01*
X0155458Y0088105D01*
X0156941Y0087708D01*
X0197955Y0065534D02*
X0200920Y0064740D01*
X0201860Y0065282D01*
X0201516Y0066963D02*
X0200033Y0067360D01*
X0199491Y0068300D01*
X0199888Y0069782D01*
X0200828Y0070325D01*
X0201569Y0070126D01*
X0200775Y0067162D01*
X0201516Y0066963D02*
X0202456Y0067506D01*
X0202853Y0068988D01*
X0203448Y0071212D02*
X0200484Y0072006D01*
X0201080Y0074229D01*
X0202019Y0074772D01*
X0204243Y0074176D01*
X0204640Y0075659D02*
X0201675Y0076453D01*
X0202271Y0078676D01*
X0203211Y0079219D01*
X0205434Y0078623D01*
X0205090Y0080304D02*
X0204548Y0081244D01*
X0205144Y0083468D01*
X0204403Y0083666D02*
X0203463Y0083124D01*
X0203066Y0081641D01*
X0205090Y0080304D02*
X0206030Y0080847D01*
X0206626Y0083070D01*
X0204403Y0083666D01*
X0198895Y0066077D02*
X0198498Y0064594D01*
X0198842Y0062913D02*
X0197902Y0062371D01*
X0197306Y0060147D01*
X0200271Y0059353D01*
X0199874Y0057870D02*
X0197650Y0058466D01*
X0196710Y0057924D01*
X0196313Y0056441D01*
X0197796Y0056044D02*
X0198391Y0058268D01*
X0199874Y0057870D02*
X0199278Y0055647D01*
X0198338Y0055104D01*
X0197796Y0056044D01*
X0198842Y0062913D02*
X0201065Y0062317D01*
X0084406Y0185866D02*
X0079802Y0185866D01*
X0079802Y0188168D01*
X0080569Y0188935D01*
X0081336Y0188935D01*
X0082104Y0188168D01*
X0082104Y0185866D01*
X0084406Y0185866D02*
X0084406Y0188168D01*
X0083638Y0188935D01*
X0082871Y0188935D01*
X0082104Y0188168D01*
X0083638Y0190470D02*
X0082871Y0191237D01*
X0082871Y0193539D01*
X0082104Y0193539D02*
X0084406Y0193539D01*
X0084406Y0191237D01*
X0083638Y0190470D01*
X0081336Y0191237D02*
X0081336Y0192772D01*
X0082104Y0193539D01*
X0081336Y0195074D02*
X0081336Y0196609D01*
X0080569Y0195841D02*
X0083638Y0195841D01*
X0084406Y0196609D01*
X0083638Y0198911D02*
X0084406Y0199678D01*
X0083638Y0198911D02*
X0080569Y0198911D01*
X0081336Y0199678D02*
X0081336Y0198143D01*
X0045865Y0127146D02*
X0045865Y0120454D01*
X0041535Y0120454D02*
X0041535Y0127146D01*
X0039365Y0127202D02*
X0039365Y0120509D01*
X0035035Y0120509D02*
X0035035Y0127202D01*
D12*
X0033968Y0037961D02*
X0037503Y0034426D01*
X0041039Y0034426D01*
X0051645Y0045032D01*
X0055181Y0045032D01*
X0058716Y0041497D01*
X0058716Y0037961D01*
X0048110Y0027355D01*
X0044574Y0027355D01*
X0041039Y0030890D01*
X0041039Y0034426D01*
X0033968Y0037961D02*
X0033968Y0041497D01*
X0044574Y0052103D01*
X0048110Y0052103D01*
X0051645Y0048568D01*
X0051645Y0045032D01*
X0044574Y0052103D02*
X0044574Y0055639D01*
X0041039Y0059174D01*
X0037503Y0059174D01*
X0026897Y0048568D01*
X0026897Y0045032D01*
X0030432Y0041497D01*
X0033968Y0041497D01*
X0029500Y0040564D02*
X0025964Y0044100D01*
X0070948Y0027769D02*
X0070948Y0023831D01*
X0079609Y0023831D02*
X0079609Y0027769D01*
X0085448Y0027769D02*
X0085448Y0023831D01*
X0094109Y0023831D02*
X0094109Y0027769D01*
X0099448Y0027769D02*
X0099448Y0023831D01*
X0108109Y0023831D02*
X0108109Y0027769D01*
X0112948Y0027769D02*
X0112948Y0023831D01*
X0121609Y0023831D02*
X0121609Y0027769D01*
X0127448Y0027769D02*
X0127448Y0023831D01*
X0136109Y0023831D02*
X0136109Y0027769D01*
X0141948Y0027769D02*
X0141948Y0023831D01*
X0150609Y0023831D02*
X0150609Y0027769D01*
X0180654Y0111285D02*
X0177961Y0118684D01*
X0180735Y0119694D01*
X0186285Y0121714D02*
X0196459Y0125417D01*
X0199152Y0118018D01*
X0196377Y0117008D01*
X0190828Y0114988D02*
X0180654Y0111285D01*
X0117735Y0167782D02*
X0117735Y0181562D01*
X0114586Y0177625D02*
X0114586Y0167782D01*
X0117735Y0167782D01*
X0125493Y0173477D02*
X0126166Y0175326D01*
X0128320Y0181246D02*
X0128994Y0183096D01*
X0139765Y0179594D02*
X0141531Y0180418D01*
X0137080Y0171354D02*
X0136406Y0169504D01*
X0114586Y0177625D02*
X0109861Y0177625D01*
X0108169Y0163515D02*
X0108169Y0157376D01*
X0105100Y0160446D02*
X0111239Y0160446D01*
X0089389Y0167782D02*
X0089389Y0177625D01*
X0094113Y0177625D01*
X0086239Y0181562D02*
X0086239Y0167782D01*
X0089389Y0167782D01*
X0094113Y0197310D02*
X0109861Y0197310D01*
X0034135Y0144101D02*
X0030754Y0144101D01*
X0029254Y0139557D02*
X0029254Y0137444D01*
X0030754Y0132901D02*
X0034135Y0132901D01*
X0015113Y0103887D02*
X0016294Y0102706D01*
X0025546Y0103493D02*
X0028106Y0103493D01*
X0028106Y0090107D02*
X0025546Y0090107D01*
X0018854Y0090107D02*
X0016294Y0090107D01*
D13*
X0002200Y0101800D02*
X0002229Y0099384D01*
X0002317Y0096969D01*
X0002463Y0094557D01*
X0002667Y0092149D01*
X0002929Y0089746D01*
X0003249Y0087351D01*
X0003627Y0084964D01*
X0004063Y0082587D01*
X0004556Y0080222D01*
X0005106Y0077868D01*
X0005712Y0075529D01*
X0006375Y0073205D01*
X0007094Y0070898D01*
X0007869Y0068609D01*
X0008698Y0066340D01*
X0009583Y0064091D01*
X0010521Y0061864D01*
X0011513Y0059660D01*
X0012557Y0057481D01*
X0013654Y0055328D01*
X0014803Y0053202D01*
X0016003Y0051104D01*
X0017253Y0049036D01*
X0018553Y0046999D01*
X0019902Y0044994D01*
X0021298Y0043021D01*
X0022742Y0041084D01*
X0024233Y0039181D01*
X0025768Y0037316D01*
X0027349Y0035488D01*
X0028973Y0033698D01*
X0030640Y0031949D01*
X0032349Y0030240D01*
X0034098Y0028573D01*
X0035888Y0026949D01*
X0037716Y0025368D01*
X0039581Y0023833D01*
X0041484Y0022342D01*
X0043421Y0020898D01*
X0045394Y0019502D01*
X0047399Y0018153D01*
X0049436Y0016853D01*
X0051504Y0015603D01*
X0053602Y0014403D01*
X0055728Y0013254D01*
X0057881Y0012157D01*
X0060060Y0011113D01*
X0062264Y0010121D01*
X0064491Y0009183D01*
X0066740Y0008298D01*
X0069009Y0007469D01*
X0071298Y0006694D01*
X0073605Y0005975D01*
X0075929Y0005312D01*
X0078268Y0004706D01*
X0080622Y0004156D01*
X0082987Y0003663D01*
X0085364Y0003227D01*
X0087751Y0002849D01*
X0090146Y0002529D01*
X0092549Y0002267D01*
X0094957Y0002063D01*
X0097369Y0001917D01*
X0099784Y0001829D01*
X0102200Y0001800D01*
X0104616Y0001829D01*
X0107031Y0001917D01*
X0109443Y0002063D01*
X0111851Y0002267D01*
X0114254Y0002529D01*
X0116649Y0002849D01*
X0119036Y0003227D01*
X0121413Y0003663D01*
X0123778Y0004156D01*
X0126132Y0004706D01*
X0128471Y0005312D01*
X0130795Y0005975D01*
X0133102Y0006694D01*
X0135391Y0007469D01*
X0137660Y0008298D01*
X0139909Y0009183D01*
X0142136Y0010121D01*
X0144340Y0011113D01*
X0146519Y0012157D01*
X0148672Y0013254D01*
X0150798Y0014403D01*
X0152896Y0015603D01*
X0154964Y0016853D01*
X0157001Y0018153D01*
X0159006Y0019502D01*
X0160979Y0020898D01*
X0162916Y0022342D01*
X0164819Y0023833D01*
X0166684Y0025368D01*
X0168512Y0026949D01*
X0170302Y0028573D01*
X0172051Y0030240D01*
X0173760Y0031949D01*
X0175427Y0033698D01*
X0177051Y0035488D01*
X0178632Y0037316D01*
X0180167Y0039181D01*
X0181658Y0041084D01*
X0183102Y0043021D01*
X0184498Y0044994D01*
X0185847Y0046999D01*
X0187147Y0049036D01*
X0188397Y0051104D01*
X0189597Y0053202D01*
X0190746Y0055328D01*
X0191843Y0057481D01*
X0192887Y0059660D01*
X0193879Y0061864D01*
X0194817Y0064091D01*
X0195702Y0066340D01*
X0196531Y0068609D01*
X0197306Y0070898D01*
X0198025Y0073205D01*
X0198688Y0075529D01*
X0199294Y0077868D01*
X0199844Y0080222D01*
X0200337Y0082587D01*
X0200773Y0084964D01*
X0201151Y0087351D01*
X0201471Y0089746D01*
X0201733Y0092149D01*
X0201937Y0094557D01*
X0202083Y0096969D01*
X0202171Y0099384D01*
X0202200Y0101800D01*
X0202171Y0104216D01*
X0202083Y0106631D01*
X0201937Y0109043D01*
X0201733Y0111451D01*
X0201471Y0113854D01*
X0201151Y0116249D01*
X0200773Y0118636D01*
X0200337Y0121013D01*
X0199844Y0123378D01*
X0199294Y0125732D01*
X0198688Y0128071D01*
X0198025Y0130395D01*
X0197306Y0132702D01*
X0196531Y0134991D01*
X0195702Y0137260D01*
X0194817Y0139509D01*
X0193879Y0141736D01*
X0192887Y0143940D01*
X0191843Y0146119D01*
X0190746Y0148272D01*
X0189597Y0150398D01*
X0188397Y0152496D01*
X0187147Y0154564D01*
X0185847Y0156601D01*
X0184498Y0158606D01*
X0183102Y0160579D01*
X0181658Y0162516D01*
X0180167Y0164419D01*
X0178632Y0166284D01*
X0177051Y0168112D01*
X0175427Y0169902D01*
X0173760Y0171651D01*
X0172051Y0173360D01*
X0170302Y0175027D01*
X0168512Y0176651D01*
X0166684Y0178232D01*
X0164819Y0179767D01*
X0162916Y0181258D01*
X0160979Y0182702D01*
X0159006Y0184098D01*
X0157001Y0185447D01*
X0154964Y0186747D01*
X0152896Y0187997D01*
X0150798Y0189197D01*
X0148672Y0190346D01*
X0146519Y0191443D01*
X0144340Y0192487D01*
X0142136Y0193479D01*
X0139909Y0194417D01*
X0137660Y0195302D01*
X0135391Y0196131D01*
X0133102Y0196906D01*
X0130795Y0197625D01*
X0128471Y0198288D01*
X0126132Y0198894D01*
X0123778Y0199444D01*
X0121413Y0199937D01*
X0119036Y0200373D01*
X0116649Y0200751D01*
X0114254Y0201071D01*
X0111851Y0201333D01*
X0109443Y0201537D01*
X0107031Y0201683D01*
X0104616Y0201771D01*
X0102200Y0201800D01*
X0099784Y0201771D01*
X0097369Y0201683D01*
X0094957Y0201537D01*
X0092549Y0201333D01*
X0090146Y0201071D01*
X0087751Y0200751D01*
X0085364Y0200373D01*
X0082987Y0199937D01*
X0080622Y0199444D01*
X0078268Y0198894D01*
X0075929Y0198288D01*
X0073605Y0197625D01*
X0071298Y0196906D01*
X0069009Y0196131D01*
X0066740Y0195302D01*
X0064491Y0194417D01*
X0062264Y0193479D01*
X0060060Y0192487D01*
X0057881Y0191443D01*
X0055728Y0190346D01*
X0053602Y0189197D01*
X0051504Y0187997D01*
X0049436Y0186747D01*
X0047399Y0185447D01*
X0045394Y0184098D01*
X0043421Y0182702D01*
X0041484Y0181258D01*
X0039581Y0179767D01*
X0037716Y0178232D01*
X0035888Y0176651D01*
X0034098Y0175027D01*
X0032349Y0173360D01*
X0030640Y0171651D01*
X0028973Y0169902D01*
X0027349Y0168112D01*
X0025768Y0166284D01*
X0024233Y0164419D01*
X0022742Y0162516D01*
X0021298Y0160579D01*
X0019902Y0158606D01*
X0018553Y0156601D01*
X0017253Y0154564D01*
X0016003Y0152496D01*
X0014803Y0150398D01*
X0013654Y0148272D01*
X0012557Y0146119D01*
X0011513Y0143940D01*
X0010521Y0141736D01*
X0009583Y0139509D01*
X0008698Y0137260D01*
X0007869Y0134991D01*
X0007094Y0132702D01*
X0006375Y0130395D01*
X0005712Y0128071D01*
X0005106Y0125732D01*
X0004556Y0123378D01*
X0004063Y0121013D01*
X0003627Y0118636D01*
X0003249Y0116249D01*
X0002929Y0113854D01*
X0002667Y0111451D01*
X0002463Y0109043D01*
X0002317Y0106631D01*
X0002229Y0104216D01*
X0002200Y0101800D01*
D14*
X0011400Y0067800D02*
X0011402Y0067967D01*
X0011408Y0068134D01*
X0011418Y0068300D01*
X0011433Y0068467D01*
X0011451Y0068632D01*
X0011474Y0068798D01*
X0011500Y0068963D01*
X0011531Y0069127D01*
X0011565Y0069290D01*
X0011604Y0069452D01*
X0011646Y0069614D01*
X0011693Y0069774D01*
X0011743Y0069933D01*
X0011798Y0070091D01*
X0011856Y0070247D01*
X0011918Y0070402D01*
X0011983Y0070556D01*
X0012053Y0070707D01*
X0012126Y0070857D01*
X0012203Y0071005D01*
X0012283Y0071152D01*
X0012367Y0071296D01*
X0012455Y0071438D01*
X0012546Y0071578D01*
X0012640Y0071715D01*
X0012738Y0071851D01*
X0012839Y0071984D01*
X0012944Y0072114D01*
X0013051Y0072242D01*
X0013162Y0072367D01*
X0013275Y0072489D01*
X0013392Y0072608D01*
X0013511Y0072725D01*
X0013633Y0072838D01*
X0013758Y0072949D01*
X0013886Y0073056D01*
X0014016Y0073161D01*
X0014149Y0073262D01*
X0014285Y0073360D01*
X0014422Y0073454D01*
X0014562Y0073545D01*
X0014704Y0073633D01*
X0014848Y0073717D01*
X0014995Y0073797D01*
X0015143Y0073874D01*
X0015293Y0073947D01*
X0015444Y0074017D01*
X0015598Y0074082D01*
X0015753Y0074144D01*
X0015909Y0074202D01*
X0016067Y0074257D01*
X0016226Y0074307D01*
X0016386Y0074354D01*
X0016548Y0074396D01*
X0016710Y0074435D01*
X0016873Y0074469D01*
X0017037Y0074500D01*
X0017202Y0074526D01*
X0017368Y0074549D01*
X0017533Y0074567D01*
X0017700Y0074582D01*
X0017866Y0074592D01*
X0018033Y0074598D01*
X0018200Y0074600D01*
X0018367Y0074598D01*
X0018534Y0074592D01*
X0018700Y0074582D01*
X0018867Y0074567D01*
X0019032Y0074549D01*
X0019198Y0074526D01*
X0019363Y0074500D01*
X0019527Y0074469D01*
X0019690Y0074435D01*
X0019852Y0074396D01*
X0020014Y0074354D01*
X0020174Y0074307D01*
X0020333Y0074257D01*
X0020491Y0074202D01*
X0020647Y0074144D01*
X0020802Y0074082D01*
X0020956Y0074017D01*
X0021107Y0073947D01*
X0021257Y0073874D01*
X0021405Y0073797D01*
X0021552Y0073717D01*
X0021696Y0073633D01*
X0021838Y0073545D01*
X0021978Y0073454D01*
X0022115Y0073360D01*
X0022251Y0073262D01*
X0022384Y0073161D01*
X0022514Y0073056D01*
X0022642Y0072949D01*
X0022767Y0072838D01*
X0022889Y0072725D01*
X0023008Y0072608D01*
X0023125Y0072489D01*
X0023238Y0072367D01*
X0023349Y0072242D01*
X0023456Y0072114D01*
X0023561Y0071984D01*
X0023662Y0071851D01*
X0023760Y0071715D01*
X0023854Y0071578D01*
X0023945Y0071438D01*
X0024033Y0071296D01*
X0024117Y0071152D01*
X0024197Y0071005D01*
X0024274Y0070857D01*
X0024347Y0070707D01*
X0024417Y0070556D01*
X0024482Y0070402D01*
X0024544Y0070247D01*
X0024602Y0070091D01*
X0024657Y0069933D01*
X0024707Y0069774D01*
X0024754Y0069614D01*
X0024796Y0069452D01*
X0024835Y0069290D01*
X0024869Y0069127D01*
X0024900Y0068963D01*
X0024926Y0068798D01*
X0024949Y0068632D01*
X0024967Y0068467D01*
X0024982Y0068300D01*
X0024992Y0068134D01*
X0024998Y0067967D01*
X0025000Y0067800D01*
X0024998Y0067633D01*
X0024992Y0067466D01*
X0024982Y0067300D01*
X0024967Y0067133D01*
X0024949Y0066968D01*
X0024926Y0066802D01*
X0024900Y0066637D01*
X0024869Y0066473D01*
X0024835Y0066310D01*
X0024796Y0066148D01*
X0024754Y0065986D01*
X0024707Y0065826D01*
X0024657Y0065667D01*
X0024602Y0065509D01*
X0024544Y0065353D01*
X0024482Y0065198D01*
X0024417Y0065044D01*
X0024347Y0064893D01*
X0024274Y0064743D01*
X0024197Y0064595D01*
X0024117Y0064448D01*
X0024033Y0064304D01*
X0023945Y0064162D01*
X0023854Y0064022D01*
X0023760Y0063885D01*
X0023662Y0063749D01*
X0023561Y0063616D01*
X0023456Y0063486D01*
X0023349Y0063358D01*
X0023238Y0063233D01*
X0023125Y0063111D01*
X0023008Y0062992D01*
X0022889Y0062875D01*
X0022767Y0062762D01*
X0022642Y0062651D01*
X0022514Y0062544D01*
X0022384Y0062439D01*
X0022251Y0062338D01*
X0022115Y0062240D01*
X0021978Y0062146D01*
X0021838Y0062055D01*
X0021696Y0061967D01*
X0021552Y0061883D01*
X0021405Y0061803D01*
X0021257Y0061726D01*
X0021107Y0061653D01*
X0020956Y0061583D01*
X0020802Y0061518D01*
X0020647Y0061456D01*
X0020491Y0061398D01*
X0020333Y0061343D01*
X0020174Y0061293D01*
X0020014Y0061246D01*
X0019852Y0061204D01*
X0019690Y0061165D01*
X0019527Y0061131D01*
X0019363Y0061100D01*
X0019198Y0061074D01*
X0019032Y0061051D01*
X0018867Y0061033D01*
X0018700Y0061018D01*
X0018534Y0061008D01*
X0018367Y0061002D01*
X0018200Y0061000D01*
X0018033Y0061002D01*
X0017866Y0061008D01*
X0017700Y0061018D01*
X0017533Y0061033D01*
X0017368Y0061051D01*
X0017202Y0061074D01*
X0017037Y0061100D01*
X0016873Y0061131D01*
X0016710Y0061165D01*
X0016548Y0061204D01*
X0016386Y0061246D01*
X0016226Y0061293D01*
X0016067Y0061343D01*
X0015909Y0061398D01*
X0015753Y0061456D01*
X0015598Y0061518D01*
X0015444Y0061583D01*
X0015293Y0061653D01*
X0015143Y0061726D01*
X0014995Y0061803D01*
X0014848Y0061883D01*
X0014704Y0061967D01*
X0014562Y0062055D01*
X0014422Y0062146D01*
X0014285Y0062240D01*
X0014149Y0062338D01*
X0014016Y0062439D01*
X0013886Y0062544D01*
X0013758Y0062651D01*
X0013633Y0062762D01*
X0013511Y0062875D01*
X0013392Y0062992D01*
X0013275Y0063111D01*
X0013162Y0063233D01*
X0013051Y0063358D01*
X0012944Y0063486D01*
X0012839Y0063616D01*
X0012738Y0063749D01*
X0012640Y0063885D01*
X0012546Y0064022D01*
X0012455Y0064162D01*
X0012367Y0064304D01*
X0012283Y0064448D01*
X0012203Y0064595D01*
X0012126Y0064743D01*
X0012053Y0064893D01*
X0011983Y0065044D01*
X0011918Y0065198D01*
X0011856Y0065353D01*
X0011798Y0065509D01*
X0011743Y0065667D01*
X0011693Y0065826D01*
X0011646Y0065986D01*
X0011604Y0066148D01*
X0011565Y0066310D01*
X0011531Y0066473D01*
X0011500Y0066637D01*
X0011474Y0066802D01*
X0011451Y0066968D01*
X0011433Y0067133D01*
X0011418Y0067300D01*
X0011408Y0067466D01*
X0011402Y0067633D01*
X0011400Y0067800D01*
X0053070Y0166862D02*
X0053072Y0166936D01*
X0053078Y0167010D01*
X0053088Y0167083D01*
X0053102Y0167156D01*
X0053119Y0167228D01*
X0053141Y0167298D01*
X0053166Y0167368D01*
X0053195Y0167436D01*
X0053228Y0167502D01*
X0053264Y0167567D01*
X0053304Y0167629D01*
X0053346Y0167690D01*
X0053392Y0167748D01*
X0053441Y0167803D01*
X0053493Y0167856D01*
X0053548Y0167906D01*
X0053605Y0167952D01*
X0053665Y0167996D01*
X0053727Y0168036D01*
X0053791Y0168073D01*
X0053857Y0168107D01*
X0053925Y0168137D01*
X0053994Y0168163D01*
X0054065Y0168186D01*
X0054136Y0168204D01*
X0054209Y0168219D01*
X0054282Y0168230D01*
X0054356Y0168237D01*
X0054430Y0168240D01*
X0054503Y0168239D01*
X0054577Y0168234D01*
X0054651Y0168225D01*
X0054724Y0168212D01*
X0054796Y0168195D01*
X0054867Y0168175D01*
X0054937Y0168150D01*
X0055005Y0168122D01*
X0055072Y0168091D01*
X0055137Y0168055D01*
X0055200Y0168017D01*
X0055261Y0167975D01*
X0055320Y0167929D01*
X0055376Y0167881D01*
X0055429Y0167830D01*
X0055479Y0167776D01*
X0055527Y0167719D01*
X0055571Y0167660D01*
X0055613Y0167598D01*
X0055651Y0167535D01*
X0055685Y0167469D01*
X0055716Y0167402D01*
X0055743Y0167333D01*
X0055766Y0167263D01*
X0055786Y0167192D01*
X0055802Y0167119D01*
X0055814Y0167046D01*
X0055822Y0166973D01*
X0055826Y0166899D01*
X0055826Y0166825D01*
X0055822Y0166751D01*
X0055814Y0166678D01*
X0055802Y0166605D01*
X0055786Y0166532D01*
X0055766Y0166461D01*
X0055743Y0166391D01*
X0055716Y0166322D01*
X0055685Y0166255D01*
X0055651Y0166189D01*
X0055613Y0166126D01*
X0055571Y0166064D01*
X0055527Y0166005D01*
X0055479Y0165948D01*
X0055429Y0165894D01*
X0055376Y0165843D01*
X0055320Y0165795D01*
X0055261Y0165749D01*
X0055200Y0165707D01*
X0055137Y0165669D01*
X0055072Y0165633D01*
X0055005Y0165602D01*
X0054937Y0165574D01*
X0054867Y0165549D01*
X0054796Y0165529D01*
X0054724Y0165512D01*
X0054651Y0165499D01*
X0054577Y0165490D01*
X0054503Y0165485D01*
X0054430Y0165484D01*
X0054356Y0165487D01*
X0054282Y0165494D01*
X0054209Y0165505D01*
X0054136Y0165520D01*
X0054065Y0165538D01*
X0053994Y0165561D01*
X0053925Y0165587D01*
X0053857Y0165617D01*
X0053791Y0165651D01*
X0053727Y0165688D01*
X0053665Y0165728D01*
X0053605Y0165772D01*
X0053548Y0165818D01*
X0053493Y0165868D01*
X0053441Y0165921D01*
X0053392Y0165976D01*
X0053346Y0166034D01*
X0053304Y0166095D01*
X0053264Y0166157D01*
X0053228Y0166222D01*
X0053195Y0166288D01*
X0053166Y0166356D01*
X0053141Y0166426D01*
X0053119Y0166496D01*
X0053102Y0166568D01*
X0053088Y0166641D01*
X0053078Y0166714D01*
X0053072Y0166788D01*
X0053070Y0166862D01*
X0067220Y0175031D02*
X0067222Y0175105D01*
X0067228Y0175179D01*
X0067238Y0175252D01*
X0067252Y0175325D01*
X0067269Y0175397D01*
X0067291Y0175467D01*
X0067316Y0175537D01*
X0067345Y0175605D01*
X0067378Y0175671D01*
X0067414Y0175736D01*
X0067454Y0175798D01*
X0067496Y0175859D01*
X0067542Y0175917D01*
X0067591Y0175972D01*
X0067643Y0176025D01*
X0067698Y0176075D01*
X0067755Y0176121D01*
X0067815Y0176165D01*
X0067877Y0176205D01*
X0067941Y0176242D01*
X0068007Y0176276D01*
X0068075Y0176306D01*
X0068144Y0176332D01*
X0068215Y0176355D01*
X0068286Y0176373D01*
X0068359Y0176388D01*
X0068432Y0176399D01*
X0068506Y0176406D01*
X0068580Y0176409D01*
X0068653Y0176408D01*
X0068727Y0176403D01*
X0068801Y0176394D01*
X0068874Y0176381D01*
X0068946Y0176364D01*
X0069017Y0176344D01*
X0069087Y0176319D01*
X0069155Y0176291D01*
X0069222Y0176260D01*
X0069287Y0176224D01*
X0069350Y0176186D01*
X0069411Y0176144D01*
X0069470Y0176098D01*
X0069526Y0176050D01*
X0069579Y0175999D01*
X0069629Y0175945D01*
X0069677Y0175888D01*
X0069721Y0175829D01*
X0069763Y0175767D01*
X0069801Y0175704D01*
X0069835Y0175638D01*
X0069866Y0175571D01*
X0069893Y0175502D01*
X0069916Y0175432D01*
X0069936Y0175361D01*
X0069952Y0175288D01*
X0069964Y0175215D01*
X0069972Y0175142D01*
X0069976Y0175068D01*
X0069976Y0174994D01*
X0069972Y0174920D01*
X0069964Y0174847D01*
X0069952Y0174774D01*
X0069936Y0174701D01*
X0069916Y0174630D01*
X0069893Y0174560D01*
X0069866Y0174491D01*
X0069835Y0174424D01*
X0069801Y0174358D01*
X0069763Y0174295D01*
X0069721Y0174233D01*
X0069677Y0174174D01*
X0069629Y0174117D01*
X0069579Y0174063D01*
X0069526Y0174012D01*
X0069470Y0173964D01*
X0069411Y0173918D01*
X0069350Y0173876D01*
X0069287Y0173838D01*
X0069222Y0173802D01*
X0069155Y0173771D01*
X0069087Y0173743D01*
X0069017Y0173718D01*
X0068946Y0173698D01*
X0068874Y0173681D01*
X0068801Y0173668D01*
X0068727Y0173659D01*
X0068653Y0173654D01*
X0068580Y0173653D01*
X0068506Y0173656D01*
X0068432Y0173663D01*
X0068359Y0173674D01*
X0068286Y0173689D01*
X0068215Y0173707D01*
X0068144Y0173730D01*
X0068075Y0173756D01*
X0068007Y0173786D01*
X0067941Y0173820D01*
X0067877Y0173857D01*
X0067815Y0173897D01*
X0067755Y0173941D01*
X0067698Y0173987D01*
X0067643Y0174037D01*
X0067591Y0174090D01*
X0067542Y0174145D01*
X0067496Y0174203D01*
X0067454Y0174264D01*
X0067414Y0174326D01*
X0067378Y0174391D01*
X0067345Y0174457D01*
X0067316Y0174525D01*
X0067291Y0174595D01*
X0067269Y0174665D01*
X0067252Y0174737D01*
X0067238Y0174810D01*
X0067228Y0174883D01*
X0067222Y0174957D01*
X0067220Y0175031D01*
X0179400Y0135800D02*
X0179402Y0135967D01*
X0179408Y0136134D01*
X0179418Y0136300D01*
X0179433Y0136467D01*
X0179451Y0136632D01*
X0179474Y0136798D01*
X0179500Y0136963D01*
X0179531Y0137127D01*
X0179565Y0137290D01*
X0179604Y0137452D01*
X0179646Y0137614D01*
X0179693Y0137774D01*
X0179743Y0137933D01*
X0179798Y0138091D01*
X0179856Y0138247D01*
X0179918Y0138402D01*
X0179983Y0138556D01*
X0180053Y0138707D01*
X0180126Y0138857D01*
X0180203Y0139005D01*
X0180283Y0139152D01*
X0180367Y0139296D01*
X0180455Y0139438D01*
X0180546Y0139578D01*
X0180640Y0139715D01*
X0180738Y0139851D01*
X0180839Y0139984D01*
X0180944Y0140114D01*
X0181051Y0140242D01*
X0181162Y0140367D01*
X0181275Y0140489D01*
X0181392Y0140608D01*
X0181511Y0140725D01*
X0181633Y0140838D01*
X0181758Y0140949D01*
X0181886Y0141056D01*
X0182016Y0141161D01*
X0182149Y0141262D01*
X0182285Y0141360D01*
X0182422Y0141454D01*
X0182562Y0141545D01*
X0182704Y0141633D01*
X0182848Y0141717D01*
X0182995Y0141797D01*
X0183143Y0141874D01*
X0183293Y0141947D01*
X0183444Y0142017D01*
X0183598Y0142082D01*
X0183753Y0142144D01*
X0183909Y0142202D01*
X0184067Y0142257D01*
X0184226Y0142307D01*
X0184386Y0142354D01*
X0184548Y0142396D01*
X0184710Y0142435D01*
X0184873Y0142469D01*
X0185037Y0142500D01*
X0185202Y0142526D01*
X0185368Y0142549D01*
X0185533Y0142567D01*
X0185700Y0142582D01*
X0185866Y0142592D01*
X0186033Y0142598D01*
X0186200Y0142600D01*
X0186367Y0142598D01*
X0186534Y0142592D01*
X0186700Y0142582D01*
X0186867Y0142567D01*
X0187032Y0142549D01*
X0187198Y0142526D01*
X0187363Y0142500D01*
X0187527Y0142469D01*
X0187690Y0142435D01*
X0187852Y0142396D01*
X0188014Y0142354D01*
X0188174Y0142307D01*
X0188333Y0142257D01*
X0188491Y0142202D01*
X0188647Y0142144D01*
X0188802Y0142082D01*
X0188956Y0142017D01*
X0189107Y0141947D01*
X0189257Y0141874D01*
X0189405Y0141797D01*
X0189552Y0141717D01*
X0189696Y0141633D01*
X0189838Y0141545D01*
X0189978Y0141454D01*
X0190115Y0141360D01*
X0190251Y0141262D01*
X0190384Y0141161D01*
X0190514Y0141056D01*
X0190642Y0140949D01*
X0190767Y0140838D01*
X0190889Y0140725D01*
X0191008Y0140608D01*
X0191125Y0140489D01*
X0191238Y0140367D01*
X0191349Y0140242D01*
X0191456Y0140114D01*
X0191561Y0139984D01*
X0191662Y0139851D01*
X0191760Y0139715D01*
X0191854Y0139578D01*
X0191945Y0139438D01*
X0192033Y0139296D01*
X0192117Y0139152D01*
X0192197Y0139005D01*
X0192274Y0138857D01*
X0192347Y0138707D01*
X0192417Y0138556D01*
X0192482Y0138402D01*
X0192544Y0138247D01*
X0192602Y0138091D01*
X0192657Y0137933D01*
X0192707Y0137774D01*
X0192754Y0137614D01*
X0192796Y0137452D01*
X0192835Y0137290D01*
X0192869Y0137127D01*
X0192900Y0136963D01*
X0192926Y0136798D01*
X0192949Y0136632D01*
X0192967Y0136467D01*
X0192982Y0136300D01*
X0192992Y0136134D01*
X0192998Y0135967D01*
X0193000Y0135800D01*
X0192998Y0135633D01*
X0192992Y0135466D01*
X0192982Y0135300D01*
X0192967Y0135133D01*
X0192949Y0134968D01*
X0192926Y0134802D01*
X0192900Y0134637D01*
X0192869Y0134473D01*
X0192835Y0134310D01*
X0192796Y0134148D01*
X0192754Y0133986D01*
X0192707Y0133826D01*
X0192657Y0133667D01*
X0192602Y0133509D01*
X0192544Y0133353D01*
X0192482Y0133198D01*
X0192417Y0133044D01*
X0192347Y0132893D01*
X0192274Y0132743D01*
X0192197Y0132595D01*
X0192117Y0132448D01*
X0192033Y0132304D01*
X0191945Y0132162D01*
X0191854Y0132022D01*
X0191760Y0131885D01*
X0191662Y0131749D01*
X0191561Y0131616D01*
X0191456Y0131486D01*
X0191349Y0131358D01*
X0191238Y0131233D01*
X0191125Y0131111D01*
X0191008Y0130992D01*
X0190889Y0130875D01*
X0190767Y0130762D01*
X0190642Y0130651D01*
X0190514Y0130544D01*
X0190384Y0130439D01*
X0190251Y0130338D01*
X0190115Y0130240D01*
X0189978Y0130146D01*
X0189838Y0130055D01*
X0189696Y0129967D01*
X0189552Y0129883D01*
X0189405Y0129803D01*
X0189257Y0129726D01*
X0189107Y0129653D01*
X0188956Y0129583D01*
X0188802Y0129518D01*
X0188647Y0129456D01*
X0188491Y0129398D01*
X0188333Y0129343D01*
X0188174Y0129293D01*
X0188014Y0129246D01*
X0187852Y0129204D01*
X0187690Y0129165D01*
X0187527Y0129131D01*
X0187363Y0129100D01*
X0187198Y0129074D01*
X0187032Y0129051D01*
X0186867Y0129033D01*
X0186700Y0129018D01*
X0186534Y0129008D01*
X0186367Y0129002D01*
X0186200Y0129000D01*
X0186033Y0129002D01*
X0185866Y0129008D01*
X0185700Y0129018D01*
X0185533Y0129033D01*
X0185368Y0129051D01*
X0185202Y0129074D01*
X0185037Y0129100D01*
X0184873Y0129131D01*
X0184710Y0129165D01*
X0184548Y0129204D01*
X0184386Y0129246D01*
X0184226Y0129293D01*
X0184067Y0129343D01*
X0183909Y0129398D01*
X0183753Y0129456D01*
X0183598Y0129518D01*
X0183444Y0129583D01*
X0183293Y0129653D01*
X0183143Y0129726D01*
X0182995Y0129803D01*
X0182848Y0129883D01*
X0182704Y0129967D01*
X0182562Y0130055D01*
X0182422Y0130146D01*
X0182285Y0130240D01*
X0182149Y0130338D01*
X0182016Y0130439D01*
X0181886Y0130544D01*
X0181758Y0130651D01*
X0181633Y0130762D01*
X0181511Y0130875D01*
X0181392Y0130992D01*
X0181275Y0131111D01*
X0181162Y0131233D01*
X0181051Y0131358D01*
X0180944Y0131486D01*
X0180839Y0131616D01*
X0180738Y0131749D01*
X0180640Y0131885D01*
X0180546Y0132022D01*
X0180455Y0132162D01*
X0180367Y0132304D01*
X0180283Y0132448D01*
X0180203Y0132595D01*
X0180126Y0132743D01*
X0180053Y0132893D01*
X0179983Y0133044D01*
X0179918Y0133198D01*
X0179856Y0133353D01*
X0179798Y0133509D01*
X0179743Y0133667D01*
X0179693Y0133826D01*
X0179646Y0133986D01*
X0179604Y0134148D01*
X0179565Y0134310D01*
X0179531Y0134473D01*
X0179500Y0134637D01*
X0179474Y0134802D01*
X0179451Y0134968D01*
X0179433Y0135133D01*
X0179418Y0135300D01*
X0179408Y0135466D01*
X0179402Y0135633D01*
X0179400Y0135800D01*
D15*
X0154136Y0143156D02*
X0153877Y0142897D01*
X0153358Y0142897D01*
X0153358Y0142378D01*
X0153098Y0142118D01*
X0152579Y0142118D01*
X0152060Y0142637D01*
X0152060Y0143156D01*
X0151536Y0143681D02*
X0151017Y0143681D01*
X0150498Y0144200D01*
X0150498Y0144719D01*
X0151536Y0145757D01*
X0152055Y0145757D01*
X0152574Y0145238D01*
X0152574Y0144719D01*
X0153098Y0144194D02*
X0153617Y0144194D01*
X0154136Y0143675D01*
X0154136Y0143156D01*
X0153358Y0142897D02*
X0153098Y0143156D01*
X0141685Y0130477D02*
X0141331Y0130572D01*
X0140951Y0129154D01*
X0141113Y0128343D02*
X0140664Y0128083D01*
X0140474Y0127374D01*
X0140733Y0126925D01*
X0142151Y0126545D01*
X0142601Y0126804D01*
X0142790Y0127513D01*
X0142531Y0127963D01*
X0142723Y0128679D02*
X0143077Y0128584D01*
X0142723Y0128679D02*
X0141685Y0130477D01*
X0130276Y0141503D02*
X0130016Y0141244D01*
X0127940Y0141244D01*
X0127681Y0140984D01*
X0127156Y0141509D02*
X0127156Y0142547D01*
X0127416Y0142287D02*
X0126637Y0143066D01*
X0126118Y0142547D02*
X0127675Y0144104D01*
X0128454Y0143325D01*
X0128454Y0142806D01*
X0127935Y0142287D01*
X0127416Y0142287D01*
X0129238Y0142541D02*
X0130276Y0141503D01*
X0125649Y0151185D02*
X0126402Y0153254D01*
X0124991Y0152596D01*
X0126370Y0152094D01*
X0124042Y0152160D02*
X0123572Y0151941D01*
X0122882Y0152192D01*
X0122663Y0152662D01*
X0123165Y0154042D01*
X0123635Y0154261D01*
X0124325Y0154010D01*
X0124544Y0153540D01*
X0131468Y0154052D02*
X0131687Y0153582D01*
X0132377Y0153331D01*
X0132847Y0153550D01*
X0133545Y0153297D02*
X0133764Y0152826D01*
X0134454Y0152575D01*
X0134924Y0152795D01*
X0135426Y0154174D01*
X0135207Y0154644D01*
X0134517Y0154895D01*
X0134047Y0154676D01*
X0133921Y0154331D01*
X0134140Y0153861D01*
X0135175Y0153484D01*
X0133349Y0154930D02*
X0133130Y0155400D01*
X0132440Y0155651D01*
X0131970Y0155432D01*
X0131468Y0154052D01*
X0121008Y0171352D02*
X0120538Y0171133D01*
X0119848Y0171384D01*
X0119629Y0171854D01*
X0119754Y0172199D01*
X0120225Y0172418D01*
X0120915Y0172167D01*
X0121134Y0171697D01*
X0121008Y0171352D01*
X0120915Y0172167D02*
X0121385Y0172387D01*
X0121510Y0172731D01*
X0121291Y0173202D01*
X0120601Y0173453D01*
X0120131Y0173234D01*
X0120006Y0172889D01*
X0120225Y0172418D01*
X0118932Y0172108D02*
X0118461Y0171889D01*
X0117772Y0172140D01*
X0117552Y0172610D01*
X0118054Y0173989D01*
X0118525Y0174209D01*
X0119214Y0173958D01*
X0119434Y0173487D01*
X0135128Y0186002D02*
X0137197Y0185249D01*
X0137699Y0186629D01*
X0137953Y0187326D02*
X0138455Y0188705D01*
X0138204Y0188015D02*
X0136135Y0188769D01*
X0136574Y0187828D01*
X0152474Y0181385D02*
X0154543Y0180632D01*
X0154292Y0179942D02*
X0154794Y0181322D01*
X0154703Y0182145D02*
X0153826Y0184026D01*
X0155205Y0183524D01*
X0155425Y0183054D01*
X0155174Y0182364D01*
X0154703Y0182145D01*
X0153324Y0182647D01*
X0153105Y0183117D01*
X0153356Y0183807D01*
X0153826Y0184026D01*
X0152474Y0181385D02*
X0152913Y0180444D01*
X0152314Y0179873D02*
X0151844Y0179653D01*
X0151593Y0178964D01*
X0151812Y0178493D01*
X0153192Y0177991D01*
X0153662Y0178211D01*
X0153913Y0178900D01*
X0153694Y0179371D01*
X0110000Y0154291D02*
X0110000Y0153557D01*
X0109633Y0153190D01*
X0108899Y0153190D02*
X0108532Y0153924D01*
X0108532Y0154291D01*
X0108899Y0154658D01*
X0109633Y0154658D01*
X0110000Y0154291D01*
X0108899Y0153190D02*
X0107798Y0153190D01*
X0107798Y0154658D01*
X0107798Y0151714D02*
X0110000Y0151714D01*
X0110000Y0150980D02*
X0110000Y0152448D01*
X0108532Y0150980D02*
X0107798Y0151714D01*
X0108165Y0150238D02*
X0108899Y0150238D01*
X0109266Y0149871D01*
X0109266Y0148770D01*
X0110000Y0148770D02*
X0107798Y0148770D01*
X0107798Y0149871D01*
X0108165Y0150238D01*
X0109266Y0149504D02*
X0110000Y0150238D01*
X0092750Y0143291D02*
X0092750Y0142557D01*
X0092383Y0142190D01*
X0090915Y0143658D01*
X0092383Y0143658D01*
X0092750Y0143291D01*
X0092383Y0142190D02*
X0090915Y0142190D01*
X0090548Y0142557D01*
X0090548Y0143291D01*
X0090915Y0143658D01*
X0092750Y0141448D02*
X0092750Y0139980D01*
X0092750Y0140714D02*
X0090548Y0140714D01*
X0091282Y0139980D01*
X0090915Y0139238D02*
X0091649Y0139238D01*
X0092016Y0138871D01*
X0092016Y0137770D01*
X0092750Y0137770D02*
X0090548Y0137770D01*
X0090548Y0138871D01*
X0090915Y0139238D01*
X0092016Y0138504D02*
X0092750Y0139238D01*
X0090915Y0135658D02*
X0092383Y0134190D01*
X0092750Y0134190D01*
X0092750Y0133448D02*
X0092750Y0131980D01*
X0092750Y0132714D02*
X0090548Y0132714D01*
X0091282Y0131980D01*
X0090915Y0131238D02*
X0090548Y0130871D01*
X0090548Y0130137D01*
X0090915Y0129770D01*
X0092383Y0129770D01*
X0092750Y0130137D01*
X0092750Y0130871D01*
X0092383Y0131238D01*
X0090548Y0134190D02*
X0090548Y0135658D01*
X0090915Y0135658D01*
X0090571Y0153400D02*
X0090571Y0155602D01*
X0089470Y0154501D01*
X0090938Y0154501D01*
X0088728Y0153400D02*
X0087260Y0153400D01*
X0087994Y0153400D02*
X0087994Y0155602D01*
X0087260Y0154868D01*
X0086518Y0155235D02*
X0086518Y0154501D01*
X0086151Y0154134D01*
X0085050Y0154134D01*
X0085784Y0154134D02*
X0086518Y0153400D01*
X0085050Y0153400D02*
X0085050Y0155602D01*
X0086151Y0155602D01*
X0086518Y0155235D01*
X0073399Y0158900D02*
X0073399Y0159634D01*
X0073399Y0159267D02*
X0071197Y0159267D01*
X0071197Y0158900D02*
X0071197Y0159634D01*
X0071564Y0160373D02*
X0073032Y0160373D01*
X0073399Y0160740D01*
X0073399Y0161474D01*
X0073032Y0161841D01*
X0073399Y0162583D02*
X0071931Y0164051D01*
X0071564Y0164051D01*
X0071197Y0163684D01*
X0071197Y0162950D01*
X0071564Y0162583D01*
X0071564Y0161841D02*
X0071197Y0161474D01*
X0071197Y0160740D01*
X0071564Y0160373D01*
X0073399Y0162583D02*
X0073399Y0164051D01*
X0072435Y0157403D02*
X0072802Y0157036D01*
X0072802Y0156669D01*
X0072435Y0156302D01*
X0071701Y0156302D01*
X0071334Y0156669D01*
X0071334Y0157036D01*
X0071701Y0157403D01*
X0072435Y0157403D01*
X0072435Y0156302D02*
X0072802Y0155935D01*
X0072802Y0155568D01*
X0072435Y0155201D01*
X0071701Y0155201D01*
X0071334Y0155568D01*
X0071334Y0155935D01*
X0071701Y0156302D01*
X0070592Y0156302D02*
X0070592Y0157036D01*
X0070225Y0157403D01*
X0069124Y0157403D01*
X0069124Y0155201D01*
X0069124Y0155935D02*
X0070225Y0155935D01*
X0070592Y0156302D01*
X0069858Y0155935D02*
X0070592Y0155201D01*
X0051302Y0141403D02*
X0051302Y0141036D01*
X0049834Y0139568D01*
X0049834Y0139201D01*
X0049092Y0139568D02*
X0049092Y0141036D01*
X0048725Y0141403D01*
X0047624Y0141403D01*
X0047624Y0139201D01*
X0048725Y0139201D01*
X0049092Y0139568D01*
X0049834Y0141403D02*
X0051302Y0141403D01*
X0046882Y0141403D02*
X0045414Y0141403D01*
X0045414Y0139201D01*
X0046882Y0139201D01*
X0046148Y0140302D02*
X0045414Y0140302D01*
X0044672Y0139201D02*
X0043205Y0139201D01*
X0043205Y0141403D01*
X0035195Y0145101D02*
X0033727Y0145101D01*
X0034461Y0145101D02*
X0034461Y0147303D01*
X0033727Y0146569D01*
X0032985Y0146936D02*
X0032618Y0147303D01*
X0031884Y0147303D01*
X0031517Y0146936D01*
X0031517Y0145468D01*
X0031884Y0145101D01*
X0032618Y0145101D01*
X0032985Y0145468D01*
X0030778Y0145101D02*
X0030044Y0145101D01*
X0030411Y0145101D02*
X0030411Y0147303D01*
X0030044Y0147303D02*
X0030778Y0147303D01*
X0020222Y0146968D02*
X0019855Y0146601D01*
X0019121Y0146601D01*
X0018754Y0146968D01*
X0018754Y0147702D02*
X0019488Y0148069D01*
X0019855Y0148069D01*
X0020222Y0147702D01*
X0020222Y0146968D01*
X0018754Y0147702D02*
X0018754Y0148803D01*
X0020222Y0148803D01*
X0018012Y0148436D02*
X0017645Y0148803D01*
X0016911Y0148803D01*
X0016544Y0148436D01*
X0016544Y0146968D01*
X0016911Y0146601D01*
X0017645Y0146601D01*
X0018012Y0146968D01*
X0035859Y0133055D02*
X0035859Y0130853D01*
X0036960Y0130853D01*
X0037327Y0131220D01*
X0037327Y0132688D01*
X0036960Y0133055D01*
X0035859Y0133055D01*
X0038069Y0132688D02*
X0038436Y0133055D01*
X0039170Y0133055D01*
X0039537Y0132688D01*
X0039537Y0132321D01*
X0038069Y0130853D01*
X0039537Y0130853D01*
X0041804Y0131353D02*
X0041804Y0133555D01*
X0042905Y0133555D01*
X0043272Y0133188D01*
X0043272Y0131720D01*
X0042905Y0131353D01*
X0041804Y0131353D01*
X0044014Y0131353D02*
X0045482Y0131353D01*
X0044748Y0131353D02*
X0044748Y0133555D01*
X0044014Y0132821D01*
X0026100Y0123788D02*
X0026100Y0122320D01*
X0026100Y0123054D02*
X0023898Y0123054D01*
X0024632Y0122320D01*
X0026100Y0121578D02*
X0026100Y0120110D01*
X0026100Y0120844D02*
X0023898Y0120844D01*
X0024632Y0120110D01*
X0024265Y0119368D02*
X0023898Y0119001D01*
X0023898Y0118267D01*
X0024265Y0117900D01*
X0025733Y0117900D01*
X0026100Y0118267D01*
X0026100Y0119001D01*
X0025733Y0119368D01*
X0020759Y0119256D02*
X0019291Y0119256D01*
X0020759Y0120724D01*
X0020759Y0121091D01*
X0020392Y0121458D01*
X0019658Y0121458D01*
X0019291Y0121091D01*
X0017815Y0121458D02*
X0017815Y0119256D01*
X0017081Y0119256D02*
X0018549Y0119256D01*
X0017081Y0120724D02*
X0017815Y0121458D01*
X0016339Y0121091D02*
X0016339Y0120357D01*
X0015972Y0119990D01*
X0014871Y0119990D01*
X0015605Y0119990D02*
X0016339Y0119256D01*
X0014871Y0119256D02*
X0014871Y0121458D01*
X0015972Y0121458D01*
X0016339Y0121091D01*
X0004100Y0110788D02*
X0004100Y0109320D01*
X0002632Y0110788D01*
X0002265Y0110788D01*
X0001898Y0110421D01*
X0001898Y0109687D01*
X0002265Y0109320D01*
X0001898Y0107844D02*
X0004100Y0107844D01*
X0004100Y0107110D02*
X0004100Y0108578D01*
X0002632Y0107110D02*
X0001898Y0107844D01*
X0002265Y0106368D02*
X0001898Y0106001D01*
X0001898Y0105267D01*
X0002265Y0104900D01*
X0003733Y0104900D01*
X0004100Y0105267D01*
X0004100Y0106001D01*
X0003733Y0106368D01*
X0019667Y0086102D02*
X0019300Y0085735D01*
X0019300Y0084267D01*
X0019667Y0083900D01*
X0020401Y0083900D01*
X0020768Y0084267D01*
X0021510Y0083900D02*
X0022978Y0085368D01*
X0022978Y0085735D01*
X0022611Y0086102D01*
X0021877Y0086102D01*
X0021510Y0085735D01*
X0020768Y0085735D02*
X0020401Y0086102D01*
X0019667Y0086102D01*
X0021510Y0083900D02*
X0022978Y0083900D01*
X0029898Y0086767D02*
X0030265Y0086400D01*
X0031733Y0086400D01*
X0032100Y0086767D01*
X0032100Y0087501D01*
X0031733Y0087868D01*
X0032100Y0088610D02*
X0032100Y0090078D01*
X0032100Y0089344D02*
X0029898Y0089344D01*
X0030632Y0088610D01*
X0030265Y0087868D02*
X0029898Y0087501D01*
X0029898Y0086767D01*
X0029898Y0090820D02*
X0030999Y0090820D01*
X0030632Y0091554D01*
X0030632Y0091921D01*
X0030999Y0092288D01*
X0031733Y0092288D01*
X0032100Y0091921D01*
X0032100Y0091187D01*
X0031733Y0090820D01*
X0029898Y0090820D02*
X0029898Y0092288D01*
X0044298Y0079924D02*
X0046500Y0079924D01*
X0046500Y0079190D02*
X0046500Y0080658D01*
X0045032Y0079190D02*
X0044298Y0079924D01*
X0044298Y0077714D02*
X0046500Y0077714D01*
X0046500Y0076980D02*
X0046500Y0078448D01*
X0045032Y0076980D02*
X0044298Y0077714D01*
X0044665Y0076238D02*
X0045399Y0076238D01*
X0045766Y0075871D01*
X0045766Y0074770D01*
X0046500Y0074770D02*
X0044298Y0074770D01*
X0044298Y0075871D01*
X0044665Y0076238D01*
X0045766Y0075504D02*
X0046500Y0076238D01*
X0046133Y0072158D02*
X0045766Y0072158D01*
X0045399Y0071791D01*
X0045399Y0070690D01*
X0046133Y0070690D01*
X0046500Y0071057D01*
X0046500Y0071791D01*
X0046133Y0072158D01*
X0044665Y0071424D02*
X0045399Y0070690D01*
X0044665Y0071424D02*
X0044298Y0072158D01*
X0046500Y0069948D02*
X0046500Y0068480D01*
X0046500Y0069214D02*
X0044298Y0069214D01*
X0045032Y0068480D01*
X0044665Y0067738D02*
X0044298Y0067371D01*
X0044298Y0066637D01*
X0044665Y0066270D01*
X0046133Y0066270D01*
X0046500Y0066637D01*
X0046500Y0067371D01*
X0046133Y0067738D01*
X0059380Y0070867D02*
X0059747Y0070500D01*
X0060481Y0070500D01*
X0060848Y0070867D01*
X0061590Y0070500D02*
X0063058Y0070500D01*
X0062324Y0070500D02*
X0062324Y0072702D01*
X0061590Y0071968D01*
X0060848Y0072335D02*
X0060481Y0072702D01*
X0059747Y0072702D01*
X0059380Y0072335D01*
X0059380Y0070867D01*
X0051133Y0091770D02*
X0049665Y0091770D01*
X0049298Y0092137D01*
X0049298Y0092871D01*
X0049665Y0093238D01*
X0050032Y0093980D02*
X0049298Y0094714D01*
X0051500Y0094714D01*
X0051500Y0093980D02*
X0051500Y0095448D01*
X0050399Y0096190D02*
X0049298Y0097291D01*
X0051500Y0097291D01*
X0050399Y0097658D02*
X0050399Y0096190D01*
X0051133Y0093238D02*
X0051500Y0092871D01*
X0051500Y0092137D01*
X0051133Y0091770D01*
X0051800Y0102900D02*
X0051800Y0105102D01*
X0052901Y0105102D01*
X0053268Y0104735D01*
X0053268Y0104001D01*
X0052901Y0103634D01*
X0051800Y0103634D01*
X0052534Y0103634D02*
X0053268Y0102900D01*
X0054010Y0102900D02*
X0055478Y0102900D01*
X0054744Y0102900D02*
X0054744Y0105102D01*
X0054010Y0104368D01*
X0056220Y0104735D02*
X0056587Y0105102D01*
X0057321Y0105102D01*
X0057688Y0104735D01*
X0057688Y0104368D01*
X0057321Y0104001D01*
X0057688Y0103634D01*
X0057688Y0103267D01*
X0057321Y0102900D01*
X0056587Y0102900D01*
X0056220Y0103267D01*
X0056954Y0104001D02*
X0057321Y0104001D01*
X0043188Y0113767D02*
X0042821Y0113400D01*
X0042087Y0113400D01*
X0041720Y0113767D01*
X0040978Y0113400D02*
X0039510Y0113400D01*
X0040244Y0113400D02*
X0040244Y0115602D01*
X0039510Y0114868D01*
X0038768Y0115235D02*
X0038401Y0115602D01*
X0037667Y0115602D01*
X0037300Y0115235D01*
X0037300Y0113767D01*
X0037667Y0113400D01*
X0038401Y0113400D01*
X0038768Y0113767D01*
X0041720Y0115235D02*
X0042087Y0115602D01*
X0042821Y0115602D01*
X0043188Y0115235D01*
X0043188Y0114868D01*
X0042821Y0114501D01*
X0043188Y0114134D01*
X0043188Y0113767D01*
X0042821Y0114501D02*
X0042454Y0114501D01*
X0039327Y0160703D02*
X0038593Y0160703D01*
X0038226Y0161070D01*
X0038226Y0161804D01*
X0039327Y0161804D01*
X0039694Y0161437D01*
X0039694Y0161070D01*
X0039327Y0160703D01*
X0038226Y0161804D02*
X0038960Y0162538D01*
X0039694Y0162905D01*
X0037484Y0162538D02*
X0037117Y0162905D01*
X0036384Y0162905D01*
X0036017Y0162538D01*
X0036017Y0161070D01*
X0036384Y0160703D01*
X0037117Y0160703D01*
X0037484Y0161070D01*
X0023396Y0060132D02*
X0022877Y0060132D01*
X0022358Y0059613D01*
X0022358Y0059094D01*
X0022618Y0058835D01*
X0023137Y0058835D01*
X0023915Y0059613D01*
X0024434Y0059094D02*
X0023396Y0060132D01*
X0024434Y0059094D02*
X0024434Y0058575D01*
X0023915Y0058056D01*
X0023396Y0058056D01*
X0023131Y0057272D02*
X0022093Y0057272D01*
X0022353Y0057532D02*
X0021574Y0056753D01*
X0022093Y0056234D02*
X0020536Y0057791D01*
X0021315Y0058570D01*
X0021834Y0058570D01*
X0022353Y0058051D01*
X0022353Y0057532D01*
X0063798Y0039924D02*
X0066000Y0039924D01*
X0066000Y0039190D02*
X0066000Y0040658D01*
X0064532Y0039190D02*
X0063798Y0039924D01*
X0064165Y0038448D02*
X0063798Y0038081D01*
X0063798Y0036980D01*
X0066000Y0036980D01*
X0065266Y0036980D02*
X0065266Y0038081D01*
X0064899Y0038448D01*
X0064165Y0038448D01*
X0065266Y0037714D02*
X0066000Y0038448D01*
X0068083Y0028405D02*
X0068450Y0027671D01*
X0069184Y0026937D01*
X0069184Y0028038D01*
X0069551Y0028405D01*
X0069918Y0028405D01*
X0070285Y0028038D01*
X0070285Y0027304D01*
X0069918Y0026937D01*
X0069184Y0026937D01*
X0068450Y0026195D02*
X0068083Y0025829D01*
X0068083Y0025095D01*
X0068450Y0024728D01*
X0069918Y0024728D01*
X0070285Y0025095D01*
X0070285Y0025829D01*
X0069918Y0026195D01*
X0070285Y0023988D02*
X0070285Y0023254D01*
X0070285Y0023621D02*
X0068083Y0023621D01*
X0068083Y0023254D02*
X0068083Y0023988D01*
X0077798Y0036480D02*
X0077798Y0037581D01*
X0078165Y0037948D01*
X0078899Y0037948D01*
X0079266Y0037581D01*
X0079266Y0036480D01*
X0080000Y0036480D02*
X0077798Y0036480D01*
X0079266Y0037214D02*
X0080000Y0037948D01*
X0080000Y0038690D02*
X0078532Y0040158D01*
X0078165Y0040158D01*
X0077798Y0039791D01*
X0077798Y0039057D01*
X0078165Y0038690D01*
X0080000Y0038690D02*
X0080000Y0040158D01*
X0082583Y0028905D02*
X0082950Y0028905D01*
X0084418Y0027437D01*
X0084785Y0027437D01*
X0084418Y0026695D02*
X0084785Y0026329D01*
X0084785Y0025595D01*
X0084418Y0025228D01*
X0082950Y0025228D01*
X0082583Y0025595D01*
X0082583Y0026329D01*
X0082950Y0026695D01*
X0082583Y0027437D02*
X0082583Y0028905D01*
X0082583Y0024488D02*
X0082583Y0023754D01*
X0082583Y0024121D02*
X0084785Y0024121D01*
X0084785Y0023754D02*
X0084785Y0024488D01*
X0096583Y0023988D02*
X0096583Y0023254D01*
X0096583Y0023621D02*
X0098785Y0023621D01*
X0098785Y0023254D02*
X0098785Y0023988D01*
X0098418Y0024728D02*
X0096950Y0024728D01*
X0096583Y0025095D01*
X0096583Y0025829D01*
X0096950Y0026195D01*
X0096950Y0026937D02*
X0097317Y0026937D01*
X0097684Y0027304D01*
X0097684Y0028038D01*
X0098051Y0028405D01*
X0098418Y0028405D01*
X0098785Y0028038D01*
X0098785Y0027304D01*
X0098418Y0026937D01*
X0098051Y0026937D01*
X0097684Y0027304D01*
X0097684Y0028038D02*
X0097317Y0028405D01*
X0096950Y0028405D01*
X0096583Y0028038D01*
X0096583Y0027304D01*
X0096950Y0026937D01*
X0098418Y0026195D02*
X0098785Y0025829D01*
X0098785Y0025095D01*
X0098418Y0024728D01*
X0110083Y0025095D02*
X0110450Y0024728D01*
X0111918Y0024728D01*
X0112285Y0025095D01*
X0112285Y0025829D01*
X0111918Y0026195D01*
X0111918Y0026937D02*
X0112285Y0027304D01*
X0112285Y0028038D01*
X0111918Y0028405D01*
X0110450Y0028405D01*
X0110083Y0028038D01*
X0110083Y0027304D01*
X0110450Y0026937D01*
X0110817Y0026937D01*
X0111184Y0027304D01*
X0111184Y0028405D01*
X0110450Y0026195D02*
X0110083Y0025829D01*
X0110083Y0025095D01*
X0110083Y0023988D02*
X0110083Y0023254D01*
X0110083Y0023621D02*
X0112285Y0023621D01*
X0112285Y0023254D02*
X0112285Y0023988D01*
X0124583Y0023488D02*
X0124583Y0022754D01*
X0124583Y0023121D02*
X0126785Y0023121D01*
X0126785Y0022754D02*
X0126785Y0023488D01*
X0126418Y0024228D02*
X0126785Y0024595D01*
X0126785Y0025329D01*
X0126418Y0025695D01*
X0126785Y0026437D02*
X0126785Y0027905D01*
X0126785Y0027171D02*
X0124583Y0027171D01*
X0125317Y0026437D01*
X0124950Y0025695D02*
X0124583Y0025329D01*
X0124583Y0024595D01*
X0124950Y0024228D01*
X0126418Y0024228D01*
X0126418Y0028647D02*
X0124950Y0030115D01*
X0126418Y0030115D01*
X0126785Y0029748D01*
X0126785Y0029014D01*
X0126418Y0028647D01*
X0124950Y0028647D01*
X0124583Y0029014D01*
X0124583Y0029748D01*
X0124950Y0030115D01*
X0122500Y0036480D02*
X0120298Y0036480D01*
X0120298Y0037581D01*
X0120665Y0037948D01*
X0121399Y0037948D01*
X0121766Y0037581D01*
X0121766Y0036480D01*
X0121766Y0037214D02*
X0122500Y0037948D01*
X0122133Y0038690D02*
X0122500Y0039057D01*
X0122500Y0039791D01*
X0122133Y0040158D01*
X0121399Y0040158D01*
X0121032Y0039791D01*
X0121032Y0039424D01*
X0121399Y0038690D01*
X0120298Y0038690D01*
X0120298Y0040158D01*
X0108500Y0039791D02*
X0106298Y0039791D01*
X0107399Y0038690D01*
X0107399Y0040158D01*
X0107399Y0037948D02*
X0106665Y0037948D01*
X0106298Y0037581D01*
X0106298Y0036480D01*
X0108500Y0036480D01*
X0107766Y0036480D02*
X0107766Y0037581D01*
X0107399Y0037948D01*
X0107766Y0037214D02*
X0108500Y0037948D01*
X0094500Y0037948D02*
X0093766Y0037214D01*
X0093766Y0037581D02*
X0093766Y0036480D01*
X0094500Y0036480D02*
X0092298Y0036480D01*
X0092298Y0037581D01*
X0092665Y0037948D01*
X0093399Y0037948D01*
X0093766Y0037581D01*
X0094133Y0038690D02*
X0094500Y0039057D01*
X0094500Y0039791D01*
X0094133Y0040158D01*
X0093766Y0040158D01*
X0093399Y0039791D01*
X0093399Y0039424D01*
X0093399Y0039791D02*
X0093032Y0040158D01*
X0092665Y0040158D01*
X0092298Y0039791D01*
X0092298Y0039057D01*
X0092665Y0038690D01*
X0133798Y0037581D02*
X0133798Y0036480D01*
X0136000Y0036480D01*
X0135266Y0036480D02*
X0135266Y0037581D01*
X0134899Y0037948D01*
X0134165Y0037948D01*
X0133798Y0037581D01*
X0135266Y0037214D02*
X0136000Y0037948D01*
X0135633Y0038690D02*
X0136000Y0039057D01*
X0136000Y0039791D01*
X0135633Y0040158D01*
X0135266Y0040158D01*
X0134899Y0039791D01*
X0134899Y0038690D01*
X0135633Y0038690D01*
X0134899Y0038690D02*
X0134165Y0039424D01*
X0133798Y0040158D01*
X0139083Y0029381D02*
X0141285Y0029381D01*
X0141285Y0028647D02*
X0141285Y0030115D01*
X0139817Y0028647D02*
X0139083Y0029381D01*
X0139083Y0027171D02*
X0141285Y0027171D01*
X0141285Y0026437D02*
X0141285Y0027905D01*
X0139817Y0026437D02*
X0139083Y0027171D01*
X0139450Y0025695D02*
X0139083Y0025329D01*
X0139083Y0024595D01*
X0139450Y0024228D01*
X0140918Y0024228D01*
X0141285Y0024595D01*
X0141285Y0025329D01*
X0140918Y0025695D01*
X0141285Y0023488D02*
X0141285Y0022754D01*
X0141285Y0023121D02*
X0139083Y0023121D01*
X0139083Y0022754D02*
X0139083Y0023488D01*
D16*
X0114418Y0070846D02*
X0185912Y0051689D01*
X0186672Y0051485D01*
X0212532Y0044556D01*
X0225982Y0094754D01*
X0199362Y0101887D01*
X0185912Y0051689D01*
X0199362Y0101887D02*
X0127868Y0121044D01*
X0114418Y0070846D01*
X0165819Y0142603D02*
X0180675Y0155518D01*
X0166676Y0171622D02*
X0151819Y0158708D01*
X0139553Y0183004D02*
X0139822Y0183744D01*
X0139553Y0183004D02*
X0139504Y0182945D01*
X0139452Y0182889D01*
X0139398Y0182835D01*
X0139341Y0182785D01*
X0139281Y0182737D01*
X0139220Y0182692D01*
X0139156Y0182650D01*
X0139090Y0182611D01*
X0139022Y0182575D01*
X0138953Y0182543D01*
X0138882Y0182515D01*
X0138810Y0182490D01*
X0138737Y0182468D01*
X0138663Y0182450D01*
X0138588Y0182436D01*
X0138512Y0182425D01*
X0138436Y0182418D01*
X0138360Y0182415D01*
X0138283Y0182416D01*
X0138207Y0182420D01*
X0138131Y0182428D01*
X0138056Y0182440D01*
X0137981Y0182456D01*
X0137907Y0182475D01*
X0137834Y0182498D01*
X0137762Y0182524D01*
X0137692Y0182554D01*
X0137623Y0182587D01*
X0137556Y0182623D01*
X0137491Y0182663D01*
X0137428Y0182706D01*
X0137367Y0182752D01*
X0133667Y0184099D01*
X0133668Y0184099D02*
X0133591Y0184103D01*
X0133515Y0184110D01*
X0133440Y0184122D01*
X0133365Y0184137D01*
X0133291Y0184156D01*
X0133218Y0184178D01*
X0133146Y0184204D01*
X0133076Y0184233D01*
X0133007Y0184266D01*
X0132939Y0184302D01*
X0132874Y0184342D01*
X0132811Y0184384D01*
X0132749Y0184430D01*
X0132690Y0184479D01*
X0132634Y0184530D01*
X0132580Y0184584D01*
X0132529Y0184641D01*
X0132481Y0184700D01*
X0132435Y0184762D01*
X0132393Y0184825D01*
X0132354Y0184891D01*
X0132318Y0184958D01*
X0132286Y0185027D01*
X0132257Y0185098D01*
X0132231Y0185170D01*
X0132209Y0185243D01*
X0132191Y0185317D01*
X0132176Y0185392D01*
X0132165Y0185468D01*
X0132158Y0185544D01*
X0132154Y0185620D01*
X0132155Y0185696D01*
X0132154Y0185697D02*
X0132423Y0186437D01*
X0134578Y0192356D02*
X0134847Y0193096D01*
X0134898Y0193157D01*
X0134951Y0193215D01*
X0135008Y0193270D01*
X0135067Y0193322D01*
X0135129Y0193371D01*
X0135193Y0193417D01*
X0135259Y0193459D01*
X0135327Y0193499D01*
X0135398Y0193534D01*
X0135470Y0193566D01*
X0135543Y0193595D01*
X0135618Y0193619D01*
X0135694Y0193640D01*
X0135771Y0193657D01*
X0135849Y0193670D01*
X0135927Y0193679D01*
X0136006Y0193684D01*
X0136085Y0193685D01*
X0136164Y0193682D01*
X0136242Y0193675D01*
X0136320Y0193664D01*
X0136398Y0193649D01*
X0136474Y0193630D01*
X0136550Y0193608D01*
X0136624Y0193581D01*
X0136697Y0193551D01*
X0136768Y0193518D01*
X0136838Y0193480D01*
X0136905Y0193439D01*
X0136970Y0193395D01*
X0137033Y0193348D01*
X0140733Y0192001D01*
X0140732Y0192001D02*
X0140809Y0191997D01*
X0140885Y0191990D01*
X0140960Y0191978D01*
X0141035Y0191963D01*
X0141109Y0191944D01*
X0141182Y0191922D01*
X0141254Y0191896D01*
X0141324Y0191867D01*
X0141393Y0191834D01*
X0141461Y0191798D01*
X0141526Y0191758D01*
X0141589Y0191716D01*
X0141651Y0191670D01*
X0141710Y0191621D01*
X0141766Y0191570D01*
X0141820Y0191516D01*
X0141871Y0191459D01*
X0141919Y0191400D01*
X0141965Y0191338D01*
X0142007Y0191275D01*
X0142046Y0191209D01*
X0142082Y0191142D01*
X0142114Y0191073D01*
X0142143Y0191002D01*
X0142169Y0190930D01*
X0142191Y0190857D01*
X0142209Y0190783D01*
X0142224Y0190708D01*
X0142235Y0190632D01*
X0142242Y0190556D01*
X0142246Y0190480D01*
X0142245Y0190404D01*
X0142246Y0190403D02*
X0141977Y0189663D01*
X0120506Y0153952D02*
X0119872Y0153952D01*
X0119555Y0153635D01*
X0118613Y0153952D02*
X0117979Y0153952D01*
X0118296Y0153952D02*
X0118296Y0152367D01*
X0117979Y0152050D01*
X0117662Y0152050D01*
X0117345Y0152367D01*
X0116403Y0152367D02*
X0116086Y0152050D01*
X0115452Y0152050D01*
X0115135Y0152367D01*
X0115452Y0153001D02*
X0116086Y0153001D01*
X0116403Y0152684D01*
X0116403Y0152367D01*
X0115452Y0153001D02*
X0115135Y0153318D01*
X0115135Y0153635D01*
X0115452Y0153952D01*
X0116086Y0153952D01*
X0116403Y0153635D01*
X0119555Y0152050D02*
X0120823Y0153318D01*
X0120823Y0153635D01*
X0120506Y0153952D01*
X0120823Y0152050D02*
X0119555Y0152050D01*
X0081823Y0183050D02*
X0080555Y0183050D01*
X0081189Y0183050D02*
X0081189Y0184952D01*
X0080555Y0184318D01*
X0079613Y0184952D02*
X0078979Y0184952D01*
X0079296Y0184952D02*
X0079296Y0183367D01*
X0078979Y0183050D01*
X0078662Y0183050D01*
X0078345Y0183367D01*
X0077403Y0183367D02*
X0077086Y0183050D01*
X0076452Y0183050D01*
X0076135Y0183367D01*
X0076452Y0184001D02*
X0077086Y0184001D01*
X0077403Y0183684D01*
X0077403Y0183367D01*
X0076452Y0184001D02*
X0076135Y0184318D01*
X0076135Y0184635D01*
X0076452Y0184952D01*
X0077086Y0184952D01*
X0077403Y0184635D01*
X0071094Y0181928D02*
X0074244Y0176473D01*
X0069129Y0173520D01*
X0055491Y0165646D02*
X0050377Y0162693D01*
X0046735Y0169001D01*
X0046416Y0161290D02*
X0046416Y0160339D01*
X0047050Y0160656D01*
X0047367Y0160656D01*
X0047684Y0160339D01*
X0047684Y0159706D01*
X0047367Y0159389D01*
X0046733Y0159389D01*
X0046416Y0159706D01*
X0045157Y0159706D02*
X0045157Y0161290D01*
X0044840Y0161290D02*
X0045474Y0161290D01*
X0046416Y0161290D02*
X0047684Y0161290D01*
X0045157Y0159706D02*
X0044840Y0159389D01*
X0044523Y0159389D01*
X0044206Y0159706D01*
X0042306Y0176672D02*
X0040534Y0179741D01*
X0064401Y0193520D01*
X0066173Y0190452D01*
X0096737Y0193066D02*
X0097054Y0192749D01*
X0097371Y0192749D01*
X0097688Y0193066D01*
X0097688Y0194650D01*
X0097371Y0194650D02*
X0098005Y0194650D01*
X0098947Y0194017D02*
X0099581Y0194650D01*
X0099581Y0192749D01*
X0098947Y0192749D02*
X0100215Y0192749D01*
X0027137Y0114737D02*
X0027137Y0113950D01*
X0027137Y0114737D02*
X0027111Y0114809D01*
X0027082Y0114879D01*
X0027049Y0114948D01*
X0027013Y0115016D01*
X0026973Y0115081D01*
X0026931Y0115144D01*
X0026885Y0115206D01*
X0026836Y0115264D01*
X0026785Y0115321D01*
X0026731Y0115375D01*
X0026674Y0115426D01*
X0026615Y0115474D01*
X0026554Y0115520D01*
X0026490Y0115562D01*
X0026424Y0115601D01*
X0026357Y0115637D01*
X0026288Y0115669D01*
X0026217Y0115698D01*
X0026145Y0115724D01*
X0026072Y0115746D01*
X0025998Y0115764D01*
X0025923Y0115779D01*
X0025847Y0115790D01*
X0025771Y0115797D01*
X0025695Y0115801D01*
X0025619Y0115800D01*
X0025542Y0115796D01*
X0025466Y0115789D01*
X0025391Y0115777D01*
X0025316Y0115762D01*
X0025242Y0115744D01*
X0025169Y0115721D01*
X0021231Y0115721D01*
X0021158Y0115744D01*
X0021084Y0115762D01*
X0021009Y0115777D01*
X0020934Y0115789D01*
X0020858Y0115796D01*
X0020781Y0115800D01*
X0020705Y0115801D01*
X0020629Y0115797D01*
X0020553Y0115790D01*
X0020477Y0115779D01*
X0020402Y0115764D01*
X0020328Y0115746D01*
X0020255Y0115724D01*
X0020183Y0115698D01*
X0020112Y0115669D01*
X0020043Y0115637D01*
X0019976Y0115601D01*
X0019910Y0115562D01*
X0019846Y0115520D01*
X0019785Y0115474D01*
X0019726Y0115426D01*
X0019669Y0115375D01*
X0019615Y0115321D01*
X0019564Y0115264D01*
X0019515Y0115206D01*
X0019469Y0115144D01*
X0019427Y0115081D01*
X0019387Y0115016D01*
X0019351Y0114948D01*
X0019318Y0114879D01*
X0019289Y0114809D01*
X0019263Y0114737D01*
X0019263Y0113950D01*
X0019263Y0107650D02*
X0019263Y0106863D01*
X0019289Y0106791D01*
X0019318Y0106721D01*
X0019351Y0106652D01*
X0019387Y0106584D01*
X0019427Y0106519D01*
X0019469Y0106456D01*
X0019515Y0106394D01*
X0019564Y0106336D01*
X0019615Y0106279D01*
X0019669Y0106225D01*
X0019726Y0106174D01*
X0019785Y0106126D01*
X0019846Y0106080D01*
X0019910Y0106038D01*
X0019976Y0105999D01*
X0020043Y0105963D01*
X0020112Y0105931D01*
X0020183Y0105902D01*
X0020255Y0105876D01*
X0020328Y0105854D01*
X0020402Y0105836D01*
X0020477Y0105821D01*
X0020553Y0105810D01*
X0020629Y0105803D01*
X0020705Y0105799D01*
X0020781Y0105800D01*
X0020858Y0105804D01*
X0020934Y0105811D01*
X0021009Y0105823D01*
X0021084Y0105838D01*
X0021158Y0105856D01*
X0021231Y0105879D01*
X0025169Y0105879D01*
X0025242Y0105856D01*
X0025316Y0105838D01*
X0025391Y0105823D01*
X0025466Y0105811D01*
X0025542Y0105804D01*
X0025619Y0105800D01*
X0025695Y0105799D01*
X0025771Y0105803D01*
X0025847Y0105810D01*
X0025923Y0105821D01*
X0025998Y0105836D01*
X0026072Y0105854D01*
X0026145Y0105876D01*
X0026217Y0105902D01*
X0026288Y0105931D01*
X0026357Y0105963D01*
X0026424Y0105999D01*
X0026490Y0106038D01*
X0026554Y0106080D01*
X0026615Y0106126D01*
X0026674Y0106174D01*
X0026731Y0106225D01*
X0026785Y0106279D01*
X0026836Y0106336D01*
X0026885Y0106394D01*
X0026931Y0106456D01*
X0026973Y0106519D01*
X0027013Y0106584D01*
X0027049Y0106652D01*
X0027082Y0106721D01*
X0027111Y0106791D01*
X0027137Y0106863D01*
X0027137Y0107650D01*
X0018533Y0090423D02*
X0018216Y0090423D01*
X0017899Y0090106D01*
X0017899Y0089789D01*
X0017899Y0090106D02*
X0017582Y0090423D01*
X0017265Y0090423D01*
X0016948Y0090106D01*
X0016948Y0089472D01*
X0017265Y0089155D01*
X0016948Y0088213D02*
X0016948Y0087579D01*
X0016948Y0087896D02*
X0018533Y0087896D01*
X0018850Y0087579D01*
X0018850Y0087262D01*
X0018533Y0086945D01*
X0018533Y0086003D02*
X0018850Y0085686D01*
X0018850Y0085052D01*
X0018533Y0084735D01*
X0017899Y0085052D02*
X0017899Y0085686D01*
X0018216Y0086003D01*
X0018533Y0086003D01*
X0017899Y0085052D02*
X0017582Y0084735D01*
X0017265Y0084735D01*
X0016948Y0085052D01*
X0016948Y0085686D01*
X0017265Y0086003D01*
X0018533Y0089155D02*
X0018850Y0089472D01*
X0018850Y0090106D01*
X0018533Y0090423D01*
D17*
X0016200Y0090800D02*
X0016200Y0084800D01*
X0016198Y0084740D01*
X0016193Y0084679D01*
X0016184Y0084620D01*
X0016171Y0084561D01*
X0016155Y0084502D01*
X0016135Y0084445D01*
X0016112Y0084390D01*
X0016085Y0084335D01*
X0016056Y0084283D01*
X0016023Y0084232D01*
X0015987Y0084183D01*
X0015949Y0084137D01*
X0015907Y0084093D01*
X0015863Y0084051D01*
X0015817Y0084013D01*
X0015768Y0083977D01*
X0015717Y0083944D01*
X0015665Y0083915D01*
X0015610Y0083888D01*
X0015555Y0083865D01*
X0015498Y0083845D01*
X0015439Y0083829D01*
X0015380Y0083816D01*
X0015321Y0083807D01*
X0015260Y0083802D01*
X0015200Y0083800D01*
X0005200Y0083800D01*
X0005140Y0083802D01*
X0005079Y0083807D01*
X0005020Y0083816D01*
X0004961Y0083829D01*
X0004902Y0083845D01*
X0004845Y0083865D01*
X0004790Y0083888D01*
X0004735Y0083915D01*
X0004683Y0083944D01*
X0004632Y0083977D01*
X0004583Y0084013D01*
X0004537Y0084051D01*
X0004493Y0084093D01*
X0004451Y0084137D01*
X0004413Y0084183D01*
X0004377Y0084232D01*
X0004344Y0084283D01*
X0004315Y0084335D01*
X0004288Y0084390D01*
X0004265Y0084445D01*
X0004245Y0084502D01*
X0004229Y0084561D01*
X0004216Y0084620D01*
X0004207Y0084679D01*
X0004202Y0084740D01*
X0004200Y0084800D01*
X0004200Y0090800D01*
X0004202Y0090860D01*
X0004207Y0090921D01*
X0004216Y0090980D01*
X0004229Y0091039D01*
X0004245Y0091098D01*
X0004265Y0091155D01*
X0004288Y0091210D01*
X0004315Y0091265D01*
X0004344Y0091317D01*
X0004377Y0091368D01*
X0004413Y0091417D01*
X0004451Y0091463D01*
X0004493Y0091507D01*
X0004537Y0091549D01*
X0004583Y0091587D01*
X0004632Y0091623D01*
X0004683Y0091656D01*
X0004735Y0091685D01*
X0004790Y0091712D01*
X0004845Y0091735D01*
X0004902Y0091755D01*
X0004961Y0091771D01*
X0005020Y0091784D01*
X0005079Y0091793D01*
X0005140Y0091798D01*
X0005200Y0091800D01*
X0015200Y0091800D01*
X0015260Y0091798D01*
X0015321Y0091793D01*
X0015380Y0091784D01*
X0015439Y0091771D01*
X0015498Y0091755D01*
X0015555Y0091735D01*
X0015610Y0091712D01*
X0015665Y0091685D01*
X0015717Y0091656D01*
X0015768Y0091623D01*
X0015817Y0091587D01*
X0015863Y0091549D01*
X0015907Y0091507D01*
X0015949Y0091463D01*
X0015987Y0091417D01*
X0016023Y0091368D01*
X0016056Y0091317D01*
X0016085Y0091265D01*
X0016112Y0091210D01*
X0016135Y0091155D01*
X0016155Y0091098D01*
X0016171Y0091039D01*
X0016184Y0090980D01*
X0016193Y0090921D01*
X0016198Y0090860D01*
X0016200Y0090800D01*
X0071901Y0100202D02*
X0071901Y0074001D01*
X0099499Y0074001D01*
X0099499Y0101599D01*
X0073298Y0101599D01*
X0071901Y0100202D01*
X0073486Y0098600D02*
X0073488Y0098675D01*
X0073494Y0098749D01*
X0073504Y0098823D01*
X0073517Y0098896D01*
X0073535Y0098969D01*
X0073556Y0099040D01*
X0073581Y0099111D01*
X0073610Y0099180D01*
X0073643Y0099247D01*
X0073679Y0099312D01*
X0073718Y0099376D01*
X0073760Y0099437D01*
X0073806Y0099496D01*
X0073855Y0099553D01*
X0073907Y0099606D01*
X0073961Y0099657D01*
X0074018Y0099706D01*
X0074078Y0099750D01*
X0074140Y0099792D01*
X0074204Y0099831D01*
X0074270Y0099866D01*
X0074337Y0099897D01*
X0074407Y0099925D01*
X0074477Y0099949D01*
X0074549Y0099970D01*
X0074622Y0099986D01*
X0074695Y0099999D01*
X0074770Y0100008D01*
X0074844Y0100013D01*
X0074919Y0100014D01*
X0074993Y0100011D01*
X0075068Y0100004D01*
X0075141Y0099993D01*
X0075215Y0099979D01*
X0075287Y0099960D01*
X0075358Y0099938D01*
X0075428Y0099912D01*
X0075497Y0099882D01*
X0075563Y0099849D01*
X0075628Y0099812D01*
X0075691Y0099772D01*
X0075752Y0099728D01*
X0075810Y0099682D01*
X0075866Y0099632D01*
X0075919Y0099580D01*
X0075970Y0099525D01*
X0076017Y0099467D01*
X0076061Y0099407D01*
X0076102Y0099344D01*
X0076140Y0099280D01*
X0076174Y0099214D01*
X0076205Y0099145D01*
X0076232Y0099076D01*
X0076255Y0099005D01*
X0076274Y0098933D01*
X0076290Y0098860D01*
X0076302Y0098786D01*
X0076310Y0098712D01*
X0076314Y0098637D01*
X0076314Y0098563D01*
X0076310Y0098488D01*
X0076302Y0098414D01*
X0076290Y0098340D01*
X0076274Y0098267D01*
X0076255Y0098195D01*
X0076232Y0098124D01*
X0076205Y0098055D01*
X0076174Y0097986D01*
X0076140Y0097920D01*
X0076102Y0097856D01*
X0076061Y0097793D01*
X0076017Y0097733D01*
X0075970Y0097675D01*
X0075919Y0097620D01*
X0075866Y0097568D01*
X0075810Y0097518D01*
X0075752Y0097472D01*
X0075691Y0097428D01*
X0075628Y0097388D01*
X0075563Y0097351D01*
X0075497Y0097318D01*
X0075428Y0097288D01*
X0075358Y0097262D01*
X0075287Y0097240D01*
X0075215Y0097221D01*
X0075141Y0097207D01*
X0075068Y0097196D01*
X0074993Y0097189D01*
X0074919Y0097186D01*
X0074844Y0097187D01*
X0074770Y0097192D01*
X0074695Y0097201D01*
X0074622Y0097214D01*
X0074549Y0097230D01*
X0074477Y0097251D01*
X0074407Y0097275D01*
X0074337Y0097303D01*
X0074270Y0097334D01*
X0074204Y0097369D01*
X0074140Y0097408D01*
X0074078Y0097450D01*
X0074018Y0097494D01*
X0073961Y0097543D01*
X0073907Y0097594D01*
X0073855Y0097647D01*
X0073806Y0097704D01*
X0073760Y0097763D01*
X0073718Y0097824D01*
X0073679Y0097888D01*
X0073643Y0097953D01*
X0073610Y0098020D01*
X0073581Y0098089D01*
X0073556Y0098160D01*
X0073535Y0098231D01*
X0073517Y0098304D01*
X0073504Y0098377D01*
X0073494Y0098451D01*
X0073488Y0098525D01*
X0073486Y0098600D01*
X0079125Y0156202D02*
X0085275Y0156202D01*
X0085275Y0167402D02*
X0079125Y0167402D01*
X0076700Y0170300D02*
X0082700Y0170300D01*
X0082760Y0170302D01*
X0082821Y0170307D01*
X0082880Y0170316D01*
X0082939Y0170329D01*
X0082998Y0170345D01*
X0083055Y0170365D01*
X0083110Y0170388D01*
X0083165Y0170415D01*
X0083217Y0170444D01*
X0083268Y0170477D01*
X0083317Y0170513D01*
X0083363Y0170551D01*
X0083407Y0170593D01*
X0083449Y0170637D01*
X0083487Y0170683D01*
X0083523Y0170732D01*
X0083556Y0170783D01*
X0083585Y0170835D01*
X0083612Y0170890D01*
X0083635Y0170945D01*
X0083655Y0171002D01*
X0083671Y0171061D01*
X0083684Y0171120D01*
X0083693Y0171179D01*
X0083698Y0171240D01*
X0083700Y0171300D01*
X0083700Y0181300D01*
X0083698Y0181360D01*
X0083693Y0181421D01*
X0083684Y0181480D01*
X0083671Y0181539D01*
X0083655Y0181598D01*
X0083635Y0181655D01*
X0083612Y0181710D01*
X0083585Y0181765D01*
X0083556Y0181817D01*
X0083523Y0181868D01*
X0083487Y0181917D01*
X0083449Y0181963D01*
X0083407Y0182007D01*
X0083363Y0182049D01*
X0083317Y0182087D01*
X0083268Y0182123D01*
X0083217Y0182156D01*
X0083165Y0182185D01*
X0083110Y0182212D01*
X0083055Y0182235D01*
X0082998Y0182255D01*
X0082939Y0182271D01*
X0082880Y0182284D01*
X0082821Y0182293D01*
X0082760Y0182298D01*
X0082700Y0182300D01*
X0076700Y0182300D01*
X0076640Y0182298D01*
X0076579Y0182293D01*
X0076520Y0182284D01*
X0076461Y0182271D01*
X0076402Y0182255D01*
X0076345Y0182235D01*
X0076290Y0182212D01*
X0076235Y0182185D01*
X0076183Y0182156D01*
X0076132Y0182123D01*
X0076083Y0182087D01*
X0076037Y0182049D01*
X0075993Y0182007D01*
X0075951Y0181963D01*
X0075913Y0181917D01*
X0075877Y0181868D01*
X0075844Y0181817D01*
X0075815Y0181765D01*
X0075788Y0181710D01*
X0075765Y0181655D01*
X0075745Y0181598D01*
X0075729Y0181539D01*
X0075716Y0181480D01*
X0075707Y0181421D01*
X0075702Y0181360D01*
X0075700Y0181300D01*
X0075700Y0171300D01*
X0075702Y0171240D01*
X0075707Y0171179D01*
X0075716Y0171120D01*
X0075729Y0171061D01*
X0075745Y0171002D01*
X0075765Y0170945D01*
X0075788Y0170890D01*
X0075815Y0170835D01*
X0075844Y0170783D01*
X0075877Y0170732D01*
X0075913Y0170683D01*
X0075951Y0170637D01*
X0075993Y0170593D01*
X0076037Y0170551D01*
X0076083Y0170513D01*
X0076132Y0170477D01*
X0076183Y0170444D01*
X0076235Y0170415D01*
X0076290Y0170388D01*
X0076345Y0170365D01*
X0076402Y0170345D01*
X0076461Y0170329D01*
X0076520Y0170316D01*
X0076579Y0170307D01*
X0076640Y0170302D01*
X0076700Y0170300D01*
X0114200Y0165800D02*
X0114200Y0155800D01*
X0114202Y0155740D01*
X0114207Y0155679D01*
X0114216Y0155620D01*
X0114229Y0155561D01*
X0114245Y0155502D01*
X0114265Y0155445D01*
X0114288Y0155390D01*
X0114315Y0155335D01*
X0114344Y0155283D01*
X0114377Y0155232D01*
X0114413Y0155183D01*
X0114451Y0155137D01*
X0114493Y0155093D01*
X0114537Y0155051D01*
X0114583Y0155013D01*
X0114632Y0154977D01*
X0114683Y0154944D01*
X0114735Y0154915D01*
X0114790Y0154888D01*
X0114845Y0154865D01*
X0114902Y0154845D01*
X0114961Y0154829D01*
X0115020Y0154816D01*
X0115079Y0154807D01*
X0115140Y0154802D01*
X0115200Y0154800D01*
X0121200Y0154800D01*
X0121260Y0154802D01*
X0121321Y0154807D01*
X0121380Y0154816D01*
X0121439Y0154829D01*
X0121498Y0154845D01*
X0121555Y0154865D01*
X0121610Y0154888D01*
X0121665Y0154915D01*
X0121717Y0154944D01*
X0121768Y0154977D01*
X0121817Y0155013D01*
X0121863Y0155051D01*
X0121907Y0155093D01*
X0121949Y0155137D01*
X0121987Y0155183D01*
X0122023Y0155232D01*
X0122056Y0155283D01*
X0122085Y0155335D01*
X0122112Y0155390D01*
X0122135Y0155445D01*
X0122155Y0155502D01*
X0122171Y0155561D01*
X0122184Y0155620D01*
X0122193Y0155679D01*
X0122198Y0155740D01*
X0122200Y0155800D01*
X0122200Y0165800D01*
X0122198Y0165860D01*
X0122193Y0165921D01*
X0122184Y0165980D01*
X0122171Y0166039D01*
X0122155Y0166098D01*
X0122135Y0166155D01*
X0122112Y0166210D01*
X0122085Y0166265D01*
X0122056Y0166317D01*
X0122023Y0166368D01*
X0121987Y0166417D01*
X0121949Y0166463D01*
X0121907Y0166507D01*
X0121863Y0166549D01*
X0121817Y0166587D01*
X0121768Y0166623D01*
X0121717Y0166656D01*
X0121665Y0166685D01*
X0121610Y0166712D01*
X0121555Y0166735D01*
X0121498Y0166755D01*
X0121439Y0166771D01*
X0121380Y0166784D01*
X0121321Y0166793D01*
X0121260Y0166798D01*
X0121200Y0166800D01*
X0115200Y0166800D01*
X0115140Y0166798D01*
X0115079Y0166793D01*
X0115020Y0166784D01*
X0114961Y0166771D01*
X0114902Y0166755D01*
X0114845Y0166735D01*
X0114790Y0166712D01*
X0114735Y0166685D01*
X0114683Y0166656D01*
X0114632Y0166623D01*
X0114583Y0166587D01*
X0114537Y0166549D01*
X0114493Y0166507D01*
X0114451Y0166463D01*
X0114413Y0166417D01*
X0114377Y0166368D01*
X0114344Y0166317D01*
X0114315Y0166265D01*
X0114288Y0166210D01*
X0114265Y0166155D01*
X0114245Y0166098D01*
X0114229Y0166039D01*
X0114216Y0165980D01*
X0114207Y0165921D01*
X0114202Y0165860D01*
X0114200Y0165800D01*
X0166676Y0171622D02*
X0180675Y0155518D01*
D18*
X0048050Y0136001D03*
D19*
X0043700Y0122422D03*
X0037200Y0122477D03*
D20*
X0080231Y0166328D03*
D21*
X0024787Y0114007D02*
X0024537Y0114257D01*
X0024036Y0114257D01*
X0023786Y0114007D01*
X0024787Y0114007D02*
X0024787Y0113756D01*
X0023786Y0112756D01*
X0024787Y0112756D01*
X0023314Y0112756D02*
X0022313Y0112756D01*
X0022313Y0114257D01*
X0029313Y0104225D02*
X0029813Y0104225D01*
X0029563Y0104225D02*
X0029563Y0102724D01*
X0029313Y0102724D02*
X0029813Y0102724D01*
X0030295Y0102974D02*
X0030545Y0102724D01*
X0031046Y0102724D01*
X0031296Y0102974D01*
X0031768Y0103475D02*
X0032769Y0103475D01*
X0032519Y0104225D02*
X0032519Y0102724D01*
X0031768Y0103475D02*
X0032519Y0104225D01*
X0031296Y0103975D02*
X0031046Y0104225D01*
X0030545Y0104225D01*
X0030295Y0103975D01*
X0030295Y0102974D01*
X0139526Y0181504D02*
X0139996Y0181333D01*
X0139761Y0181418D02*
X0140274Y0182829D01*
X0140039Y0182915D02*
X0140510Y0182744D01*
X0140877Y0182344D02*
X0140534Y0181403D01*
X0140684Y0181082D01*
X0141154Y0180911D01*
X0141475Y0181061D01*
X0141919Y0180899D02*
X0142068Y0180579D01*
X0142539Y0180407D01*
X0142859Y0180557D01*
X0142945Y0180792D01*
X0142795Y0181113D01*
X0142560Y0181198D01*
X0142795Y0181113D02*
X0143116Y0181262D01*
X0143202Y0181497D01*
X0143052Y0181818D01*
X0142582Y0181989D01*
X0142261Y0181840D01*
X0141817Y0182001D02*
X0141668Y0182322D01*
X0141197Y0182493D01*
X0140877Y0182344D01*
D22*
X0143720Y0025013D03*
X0129220Y0025013D03*
X0114720Y0025013D03*
X0101220Y0025013D03*
X0087220Y0025013D03*
X0072720Y0025013D03*
M02*
